{
.appVersion = "983";
DisplayStrings = (
"  ",
/KaiSymbol/kaiSymbol/kaiSymbol.sc,
/kaiSymbol.sc
);
classes = (
{
automatic = 1;

glyphs = (
{
color = 1;
glyphname = A;
layers = (
{
anchors = (
{
name = bottom;
position = "{250, 0}";
},
{
name = ogonek;
position = "{502, 40}";
},
{
name = top;
position = "{328, 636}";
}
);
background = {
paths = (
{
closed = 1;
nodes = (
"412 342 OFFCURVE",
"368 648 OFFCURVE",
"368 648 CURVE",
"360 648 LINE",
"304 631 LINE",
"56 120 LINE SMOOTH",
"28 62 OFFCURVE",
"7 46 OFFCURVE",
"-30 42 CURVE",
"-43 -3 LINE",
"-43 -3 OFFCURVE",
"17 0 OFFCURVE",
"62 0 CURVE SMOOTH",
"126 0 OFFCURVE",
"194 -7 OFFCURVE",
"194 -7 CURVE",
"204 34 LINE",
"204 37 LINE",
"148 37 LINE SMOOTH",
"111 37 OFFCURVE",
"95 48 OFFCURVE",
"95 73 CURVE SMOOTH",
"95 86 OFFCURVE",
"99 98 OFFCURVE",
"109 119 CURVE SMOOTH",
"158 227 LINE",
"182 230 OFFCURVE",
"227 235 OFFCURVE",
"265 235 CURVE SMOOTH",
"292 235 OFFCURVE",
"341 235 OFFCURVE",
"365 234 CURVE",
"383 121 LINE SMOOTH",
"385 108 OFFCURVE",
"387 93 OFFCURVE",
"387 83 CURVE SMOOTH",
"387 48 OFFCURVE",
"369 38 OFFCURVE",
"295 33 CURVE",
"287 -3 LINE",
"289 -10 LINE",
"289 -10 OFFCURVE",
"359 0 OFFCURVE",
"432 0 CURVE SMOOTH",
"464 0 OFFCURVE",
"533 -3 OFFCURVE",
"533 -3 CURVE",
"544 36 LINE",
"542 39 LINE",
"487 45 OFFCURVE",
"468 60 OFFCURVE",
"458 111 CURVE SMOOTH"
);
},
{
closed = 1;
nodes = (
"306 544 LINE",
"313 544 LINE",
"357 277 LINE",
"335 274 OFFCURVE",
"292 271 OFFCURVE",
"266 271 CURVE SMOOTH",
"181 271 LINE"
);
}
);
};
layerId = UUID0;
paths = (
{
closed = 1;
nodes = (
"412 342 OFFCURVE",
"368 648 OFFCURVE",
"368 648 CURVE",
"360 648 LINE",
"304 631 LINE",
"56 120 LINE SMOOTH",
"28 62 OFFCURVE",
"7 46 OFFCURVE",
"-30 42 CURVE",
"-43 -3 LINE",
"-43 -3 OFFCURVE",
"17 0 OFFCURVE",
"62 0 CURVE SMOOTH",
"126 0 OFFCURVE",
"194 -7 OFFCURVE",
"194 -7 CURVE",
"204 34 LINE",
"204 37 LINE",
"148 37 LINE SMOOTH",
"111 37 OFFCURVE",
"95 48 OFFCURVE",
"95 73 CURVE SMOOTH",
"95 86 OFFCURVE",
"99 98 OFFCURVE",
"109 119 CURVE SMOOTH",
"158 227 LINE",
"182 230 OFFCURVE",
"227 235 OFFCURVE",
"265 235 CURVE SMOOTH",
"292 235 OFFCURVE",
"341 235 OFFCURVE",
"365 234 CURVE",
"383 121 LINE SMOOTH",
"385 108 OFFCURVE",
"387 93 OFFCURVE",
"387 83 CURVE SMOOTH",
"387 48 OFFCURVE",
"369 38 OFFCURVE",
"295 33 CURVE",
"287 -3 LINE",
"289 -10 LINE",
"289 -10 OFFCURVE",
"359 0 OFFCURVE",
"432 0 CURVE SMOOTH",
"464 0 OFFCURVE",
"533 -3 OFFCURVE",
"533 -3 CURVE",
"544 36 LINE",
"542 39 LINE",
"487 45 OFFCURVE",
"468 60 OFFCURVE",
"458 111 CURVE SMOOTH"
);
},
{
closed = 1;
nodes = (
"306 544 LINE",
"313 544 LINE",
"357 277 LINE",
"335 274 OFFCURVE",
"292 271 OFFCURVE",
"266 271 CURVE SMOOTH",
"181 271 LINE"
);
}
);
width = 556;
},
{
anchors = (
{
name = bottom;
position = "{302, 0}";
},
{
name = ogonek;
position = "{596, 40}";
},
{
name = top;
position = "{381, 647}";
}
);
background = {
paths = (
{
closed = 1;
nodes = (
"579 261 OFFCURVE",
"531 646 OFFCURVE",
"531 646 CURVE",
"517 658 LINE",
"250 642 LINE",
"39 140 LINE SMOOTH",
"26 109 OFFCURVE",
"7 91 OFFCURVE",
"-16 85 CURVE",
"-33 -2 LINE",
"-33 -2 OFFCURVE",
"36 -1 OFFCURVE",
"97 -1 CURVE SMOOTH",
"156 -1 OFFCURVE",
"247 -4 OFFCURVE",
"247 -4 CURVE",
"265 79 LINE",
"258 89 LINE",
"231 89 LINE SMOOTH",
"215 89 OFFCURVE",
"208 93 OFFCURVE",
"208 104 CURVE SMOOTH",
"208 110 OFFCURVE",
"210 118 OFFCURVE",
"214 131 CURVE SMOOTH",
"227 175 LINE",
"227 175 OFFCURVE",
"286 180 OFFCURVE",
"304 180 CURVE SMOOTH",
"312 180 OFFCURVE",
"377 178 OFFCURVE",
"377 178 CURVE",
"377 139 LINE SMOOTH",
"377 131 OFFCURVE",
"377 125 OFFCURVE",
"377 121 CURVE SMOOTH",
"377 98 OFFCURVE",
"367 93 OFFCURVE",
"311 87 CURVE",
"295 3 LINE",
"302 -6 LINE",
"302 -6 OFFCURVE",
"397 -1 OFFCURVE",
"490 -1 CURVE SMOOTH",
"544 -1 OFFCURVE",
"628 -3 OFFCURVE",
"628 -3 CURVE",
"646 76 LINE",
"640 86 LINE",
"613 90 OFFCURVE",
"599 107 OFFCURVE",
"593 153 CURVE SMOOTH"
);
},
{
closed = 1;
nodes = (
"339 478 LINE",
"361 478 LINE",
"371 303 LINE",
"350 302 OFFCURVE",
"337 301 OFFCURVE",
"322 301 CURVE SMOOTH",
"274 301 LINE"
);
}
);
};
layerId = UUID1;
paths = (
{
closed = 1;
nodes = (
"579 261 OFFCURVE",
"531 646 OFFCURVE",
"531 646 CURVE",
"517 658 LINE",
"250 642 LINE",
"39 140 LINE SMOOTH",
"26 109 OFFCURVE",
"7 91 OFFCURVE",
"-16 85 CURVE",
"-33 -2 LINE",
"-33 -2 OFFCURVE",
"36 -1 OFFCURVE",
"97 -1 CURVE SMOOTH",
"156 -1 OFFCURVE",
"247 -4 OFFCURVE",
"247 -4 CURVE",
"265 79 LINE",
"258 89 LINE",
"231 89 LINE SMOOTH",
"215 89 OFFCURVE",
"208 93 OFFCURVE",
"208 104 CURVE SMOOTH",
"208 110 OFFCURVE",
"210 118 OFFCURVE",
"214 131 CURVE SMOOTH",
"227 175 LINE",
"227 175 OFFCURVE",
"286 180 OFFCURVE",
"304 180 CURVE SMOOTH",
"312 180 OFFCURVE",
"377 178 OFFCURVE",
"377 178 CURVE",
"377 139 LINE SMOOTH",
"377 131 OFFCURVE",
"377 125 OFFCURVE",
"377 121 CURVE SMOOTH",
"377 98 OFFCURVE",
"367 93 OFFCURVE",
"311 87 CURVE",
"295 3 LINE",
"302 -6 LINE",
"302 -6 OFFCURVE",
"397 -1 OFFCURVE",
"490 -1 CURVE SMOOTH",
"544 -1 OFFCURVE",
"628 -3 OFFCURVE",
"628 -3 CURVE",
"646 76 LINE",
"640 86 LINE",
"613 90 OFFCURVE",
"599 107 OFFCURVE",
"593 153 CURVE SMOOTH"
);
},
{
closed = 1;
nodes = (
"339 478 LINE",
"361 478 LINE",
"371 303 LINE",
"350 302 OFFCURVE",
"337 301 OFFCURVE",
"322 301 CURVE SMOOTH",
"274 301 LINE"
);
}
);
width = 661;
}
);
leftKerningGroup = A;
rightKerningGroup = A;
unicode = 0041;
},
{
color = 10;
glyphname = Abreveacute;
layers = (
{
background = {
paths = (
{
closed = 1;
nodes = (
"254 768 OFFCURVE",
"217 785 OFFCURVE",
"200 818 CURVE",
"192 818 LINE",
"176 808 LINE",
"190 759 OFFCURVE",
"227 710 OFFCURVE",
"296 710 CURVE SMOOTH",
"365 710 OFFCURVE",
"402 759 OFFCURVE",
"416 808 CURVE",
"400 818 LINE",
"392 818 LINE",
"375 785 OFFCURVE",
"338 768 OFFCURVE",
"296 768 CURVE SMOOTH"
);
}
);
};
components = (
{
alignment = -1;
name = A;
},
{
name = brevecomb_acutecomb;
transform = "{1, 0, 0, 1, 111, 184}";
}
);
layerId = UUID0;
width = 556;
},
{
background = {
paths = (
{
closed = 1;
nodes = (
"292 810 OFFCURVE",
"250 833 OFFCURVE",
"230 880 CURVE",
"203 873 LINE",
"163 811 LINE",
"184 743 OFFCURVE",
"239 675 OFFCURVE",
"341 675 CURVE SMOOTH",
"443 675 OFFCURVE",
"498 743 OFFCURVE",
"519 811 CURVE",
"479 873 LINE",
"452 880 LINE",
"432 833 OFFCURVE",
"390 810 OFFCURVE",
"341 810 CURVE SMOOTH"
);
}
);
};
components = (
{
alignment = -1;
name = A;
},
{
name = brevecomb_acutecomb;
transform = "{1, 0, 0, 1, 165, 175}";
}
);
layerId = UUID1;
width = 661;
}
);
leftKerningGroup = A;
rightKerningGroup = A;
unicode = 1EAE;
},
{
color = 10;
glyphname = Abrevegrave;
layers = (
{
background = {
paths = (
{
closed = 1;
nodes = (
"254 768 OFFCURVE",
"217 785 OFFCURVE",
"200 818 CURVE",
"192 818 LINE",
"176 808 LINE",
"190 759 OFFCURVE",
"227 710 OFFCURVE",
"296 710 CURVE SMOOTH",
"365 710 OFFCURVE",
"402 759 OFFCURVE",
"416 808 CURVE",
"400 818 LINE",
"392 818 LINE",
"375 785 OFFCURVE",
"338 768 OFFCURVE",
"296 768 CURVE SMOOTH"
);
}
);
};
components = (
{
alignment = -1;
name = A;
},
{
name = brevecomb_gravecomb;
transform = "{1, 0, 0, 1, 104, 184}";
}
);
layerId = UUID0;
width = 556;
},
{
background = {
paths = (
{
closed = 1;
nodes = (
"292 810 OFFCURVE",
"250 833 OFFCURVE",
"230 880 CURVE",
"203 873 LINE",
"163 811 LINE",
"184 743 OFFCURVE",
"239 675 OFFCURVE",
"341 675 CURVE SMOOTH",
"443 675 OFFCURVE",
"498 743 OFFCURVE",
"519 811 CURVE",
"479 873 LINE",
"452 880 LINE",
"432 833 OFFCURVE",
"390 810 OFFCURVE",
"341 810 CURVE SMOOTH"
);
}
);
};
components = (
{
alignment = -1;
name = A;
},
{
name = brevecomb_gravecomb;
transform = "{1, 0, 0, 1, 164, 175}";
}
);
layerId = UUID1;
width = 661;
}
);
leftKerningGroup = A;
rightKerningGroup = A;
unicode = 1EB0;
},
{
color = 10;
glyphname = Ahookabove;
layers = (
{
background = {
paths = (
{
closed = 1;
nodes = (
"254 768 OFFCURVE",
"217 785 OFFCURVE",
"200 818 CURVE",
"192 818 LINE",
"176 808 LINE",
"190 759 OFFCURVE",
"227 710 OFFCURVE",
"296 710 CURVE SMOOTH",
"365 710 OFFCURVE",
"402 759 OFFCURVE",
"416 808 CURVE",
"400 818 LINE",
"392 818 LINE",
"375 785 OFFCURVE",
"338 768 OFFCURVE",
"296 768 CURVE SMOOTH"
);
}
);
};
components = (
{
alignment = -1;
name = A;
},
{
name = hookabovecomb;
transform = "{1, 0, 0, 1, 124, 184}";
}
);
layerId = UUID0;
width = 556;
},
{
background = {
paths = (
{
closed = 1;
nodes = (
"292 810 OFFCURVE",
"250 833 OFFCURVE",
"230 880 CURVE",
"203 873 LINE",
"163 811 LINE",
"184 743 OFFCURVE",
"239 675 OFFCURVE",
"341 675 CURVE SMOOTH",
"443 675 OFFCURVE",
"498 743 OFFCURVE",
"519 811 CURVE",
"479 873 LINE",
"452 880 LINE",
"432 833 OFFCURVE",
"390 810 OFFCURVE",
"341 810 CURVE SMOOTH"
);
}
);
};
components = (
{
alignment = -1;
name = A;
},
{
name = hookabovecomb;
transform = "{1, 0, 0, 1, 178, 175}";
}
);
layerId = UUID1;
width = 661;
}
);
leftKerningGroup = A;
rightKerningGroup = A;
unicode = 1EA2;
},
{
color = 1;
glyphname = AE;
layers = (
{
anchors = (
{
name = top;
position = "{499, 647}";
}
);
layerId = UUID0;
paths = (
{
closed = 1;
nodes = (
"260 -3 LINE",
"261 -10 LINE",
"261 -10 OFFCURVE",
"330 0 OFFCURVE",
"404 0 CURVE SMOOTH",
"503 0 OFFCURVE",
"697 -5 OFFCURVE",
"695 -7 CURVE",
"700 -1 LINE",
"719 83 OFFCURVE",
"747 166 OFFCURVE",
"747 166 CURVE",
"744 171 LINE",
"700 166 LINE",
"671 56 OFFCURVE",
"653 44 OFFCURVE",
"515 44 CURVE SMOOTH",
"462 44 OFFCURVE",
"442 62 OFFCURVE",
"441 112 CURVE SMOOTH",
"435 283 LINE",
"543 292 LINE",
"626 294 LINE",
"645 346 LINE",
"641 351 LINE",
"551 338 LINE",
"435 327 LINE",
"433 557 LINE",
"433 580 OFFCURVE",
"443 588 OFFCURVE",
"502 588 CURVE SMOOTH",
"626 588 OFFCURVE",
"648 581 OFFCURVE",
"648 537 CURVE SMOOTH",
"648 512 OFFCURVE",
"639 474 OFFCURVE",
"639 474 CURVE",
"686 478 LINE",
"703 570 OFFCURVE",
"728 643 OFFCURVE",
"728 643 CURVE",
"726 649 LINE",
"669 640 OFFCURVE",
"593 637 OFFCURVE",
"438 637 CURVE SMOOTH",
"367 637 OFFCURVE",
"285 639 OFFCURVE",
"285 640 CURVE",
"272 597 LINE",
"274 593 LINE",
"274 593 OFFCURVE",
"295 595 OFFCURVE",
"307 595 CURVE SMOOTH",
"321 595 OFFCURVE",
"327 590 OFFCURVE",
"329 579 CURVE",
"38 121 LINE SMOOTH",
"3 65 OFFCURVE",
"-33 30 OFFCURVE",
"-33 30 CURVE",
"-31 -4 LINE",
"-31 -4 OFFCURVE",
"13 0 OFFCURVE",
"35 0 CURVE SMOOTH",
"96 0 OFFCURVE",
"167 -7 OFFCURVE",
"167 -7 CURVE",
"178 39 LINE",
"124 39 LINE SMOOTH",
"88 39 OFFCURVE",
"75 47 OFFCURVE",
"75 69 CURVE SMOOTH",
"75 82 OFFCURVE",
"79 92 OFFCURVE",
"96 120 CURVE SMOOTH",
"180 260 LINE",
"269 269 LINE",
"365 277 LINE",
"367 153 LINE SMOOTH",
"367 143 OFFCURVE",
"367 127 OFFCURVE",
"367 117 CURVE SMOOTH",
"367 70 OFFCURVE",
"329 39 OFFCURVE",
"266 35 CURVE"
);
},
{
closed = 1;
nodes = (
"213 310 LINE",
"354 540 LINE",
"363 540 LINE",
"364 321 LINE",
"293 315 LINE"
);
}
);
width = 778;
},
{
anchors = (
{
name = top;
position = "{499, 647}";
}
);
layerId = UUID1;
paths = (
{
closed = 1;
nodes = (
"296 3 LINE",
"302 -6 LINE",
"302 -6 OFFCURVE",
"387 -1 OFFCURVE",
"470 0 CURVE SMOOTH",
"664 0 OFFCURVE",
"824 -7 OFFCURVE",
"824 -7 CURVE",
"841 9 LINE",
"864 118 OFFCURVE",
"894 215 OFFCURVE",
"894 215 CURVE",
"883 230 LINE",
"754 221 LINE",
"731 131 OFFCURVE",
"714 114 OFFCURVE",
"643 114 CURVE SMOOTH",
"615 114 OFFCURVE",
"600 136 OFFCURVE",
"599 181 CURVE SMOOTH",
"598 254 LINE",
"660 266 LINE",
"756 278 LINE",
"781 394 LINE",
"766 411 LINE",
"665 385 LINE",
"595 372 LINE",
"589 503 LINE",
"589 519 OFFCURVE",
"599 527 OFFCURVE",
"623 527 CURVE SMOOTH",
"689 527 OFFCURVE",
"709 519 OFFCURVE",
"709 484 CURVE SMOOTH",
"709 467 OFFCURVE",
"702 435 OFFCURVE",
"702 435 CURVE",
"841 444 LINE",
"858 538 OFFCURVE",
"888 643 OFFCURVE",
"888 643 CURVE",
"877 659 LINE",
"841 654 OFFCURVE",
"681 648 OFFCURVE",
"538 647 CURVE SMOOTH",
"371 647 OFFCURVE",
"208 650 OFFCURVE",
"208 650 CURVE",
"189 571 LINE",
"200 557 LINE",
"200 557 OFFCURVE",
"214 559 OFFCURVE",
"225 559 CURVE SMOOTH",
"240 559 OFFCURVE",
"246 552 OFFCURVE",
"247 531 CURVE",
"46 140 LINE SMOOTH",
"30 109 OFFCURVE",
"10 91 OFFCURVE",
"-16 85 CURVE",
"-24 -2 LINE",
"-24 -2 OFFCURVE",
"12 -1 OFFCURVE",
"54 -1 CURVE SMOOTH",
"100 -1 OFFCURVE",
"246 -3 OFFCURVE",
"248 -4 CURVE",
"265 79 LINE",
"262 89 LINE SMOOTH",
"221 89 OFFCURVE",
"210 88 OFFCURVE",
"210 101 CURVE SMOOTH",
"210 107 OFFCURVE",
"214 116 OFFCURVE",
"219 130 CURVE SMOOTH",
"238 183 LINE",
"315 206 LINE",
"388 219 LINE",
"385 162 LINE SMOOTH",
"385 147 OFFCURVE",
"383 140 OFFCURVE",
"382 130 CURVE SMOOTH",
"379 101 OFFCURVE",
"366 93 OFFCURVE",
"312 87 CURVE"
);
},
{
closed = 1;
nodes = (
"304 324 LINE",
"375 478 LINE",
"397 478 LINE",
"393 337 LINE",
"344 328 LINE"
);
}
);
width = 916;
}
);
leftKerningGroup = A;
rightKerningGroup = E;
unicode = 00C6;
},
{
color = 1;
glyphname = B;
layers = (
{
anchors = (
{
name = bottom;
position = "{330, 0}";
},
{
name = top;
position = "{335, 647}";
}
);
background = {
paths = (
{
closed = 1;
nodes = (
"187 0 OFFCURVE",
"232 -10 OFFCURVE",
"275 -10 CURVE",
"401 -10 OFFCURVE",
"514 88 OFFCURVE",
"514 196 CURVE SMOOTH",
"514 264 OFFCURVE",
"465 316 OFFCURVE",
"381 335 CURVE",
"463 369 OFFCURVE",
"514 431 OFFCURVE",
"514 508 CURVE SMOOTH",
"514 593 OFFCURVE",
"444 640 OFFCURVE",
"333 640 CURVE SMOOTH",
"333 640 OFFCURVE",
"266 636 OFFCURVE",
"231 636 CURVE SMOOTH",
"195 636 OFFCURVE",
"127 639 OFFCURVE",
"127 639 CURVE",
"115 598 LINE",
"117 594 LINE",
"117 594 OFFCURVE",
"138 596 OFFCURVE",
"149 596 CURVE SMOOTH",
"178 596 OFFCURVE",
"183 585 OFFCURVE",
"178 542 CURVE SMOOTH",
"126 118 LINE SMOOTH",
"119 61 OFFCURVE",
"101 43 OFFCURVE",
"39 31 CURVE",
"29 -12 LINE",
"29 -12 OFFCURVE",
"89 0 OFFCURVE",
"138 0 CURVE SMOOTH"
);
},
{
closed = 1;
nodes = (
"316 302 LINE",
"394 288 OFFCURVE",
"433 245 OFFCURVE",
"433 180 CURVE SMOOTH",
"433 94 OFFCURVE",
"377 37 OFFCURVE",
"291 37 CURVE SMOOTH",
"210 37 OFFCURVE",
"182 56 OFFCURVE",
"188 108 CURVE SMOOTH",
"216 300 LINE"
);
},
{
closed = 1;
nodes = (
"236 437 OFFCURVE",
"249 512 OFFCURVE",
"260 579 CURVE SMOOTH",
"264 597 OFFCURVE",
"267 602 OFFCURVE",
"281 602 CURVE SMOOTH",
"387 602 OFFCURVE",
"437 566 OFFCURVE",
"437 491 CURVE SMOOTH",
"437 366 OFFCURVE",
"328 341 OFFCURVE",
"328 341 CURVE",
"315 341 OFFCURVE",
"223 349 OFFCURVE",
"223 349 CURVE"
);
}
);
};
layerId = UUID0;
paths = (
{
closed = 1;
nodes = (
"187 0 OFFCURVE",
"242 -10 OFFCURVE",
"285 -10 CURVE",
"411 -10 OFFCURVE",
"514 88 OFFCURVE",
"514 196 CURVE SMOOTH",
"514 264 OFFCURVE",
"465 316 OFFCURVE",
"381 335 CURVE",
"463 369 OFFCURVE",
"514 431 OFFCURVE",
"514 508 CURVE SMOOTH",
"514 593 OFFCURVE",
"434 640 OFFCURVE",
"323 640 CURVE SMOOTH",
"323 640 OFFCURVE",
"266 636 OFFCURVE",
"231 636 CURVE SMOOTH",
"195 636 OFFCURVE",
"127 639 OFFCURVE",
"127 639 CURVE",
"115 598 LINE",
"117 594 LINE",
"117 594 OFFCURVE",
"138 596 OFFCURVE",
"149 596 CURVE SMOOTH",
"178 596 OFFCURVE",
"183 585 OFFCURVE",
"178 542 CURVE SMOOTH",
"126 118 LINE SMOOTH",
"119 61 OFFCURVE",
"101 43 OFFCURVE",
"39 31 CURVE",
"29 -12 LINE",
"29 -12 OFFCURVE",
"89 0 OFFCURVE",
"138 0 CURVE SMOOTH"
);
},
{
closed = 1;
nodes = (
"316 302 LINE",
"394 288 OFFCURVE",
"433 245 OFFCURVE",
"433 180 CURVE SMOOTH",
"433 94 OFFCURVE",
"377 37 OFFCURVE",
"291 37 CURVE SMOOTH",
"210 37 OFFCURVE",
"182 56 OFFCURVE",
"188 108 CURVE SMOOTH",
"216 300 LINE"
);
},
{
closed = 1;
nodes = (
"236 437 OFFCURVE",
"249 512 OFFCURVE",
"260 579 CURVE SMOOTH",
"264 597 OFFCURVE",
"267 602 OFFCURVE",
"281 602 CURVE SMOOTH",
"387 602 OFFCURVE",
"437 566 OFFCURVE",
"437 491 CURVE SMOOTH",
"437 366 OFFCURVE",
"319 341 OFFCURVE",
"319 341 CURVE",
"306 341 OFFCURVE",
"223 349 OFFCURVE",
"223 349 CURVE"
);
}
);
width = 571;
},
{
anchors = (
{
name = bottom;
position = "{330, 0}";
},
{
name = top;
position = "{335, 647}";
}
);
background = {
paths = (
{
closed = 1;
nodes = (
"190 0 OFFCURVE",
"297 -7 OFFCURVE",
"320 -11 CURVE",
"524 -11 OFFCURVE",
"629 64 OFFCURVE",
"629 210 CURVE SMOOTH",
"629 268 OFFCURVE",
"593 314 OFFCURVE",
"525 343 CURVE",
"605 395 OFFCURVE",
"639 447 OFFCURVE",
"639 515 CURVE SMOOTH",
"639 603 OFFCURVE",
"560 654 OFFCURVE",
"424 654 CURVE SMOOTH",
"424 654 OFFCURVE",
"275 647 OFFCURVE",
"243 647 CURVE SMOOTH",
"212 647 OFFCURVE",
"76 649 OFFCURVE",
"76 649 CURVE",
"55 569 LINE",
"65 557 LINE",
"65 557 OFFCURVE",
"87 559 OFFCURVE",
"99 559 CURVE SMOOTH",
"115 559 OFFCURVE",
"122 543 OFFCURVE",
"119 513 CURVE SMOOTH",
"74 156 LINE SMOOTH",
"68 108 OFFCURVE",
"51 92 OFFCURVE",
"0 83 CURVE",
"-20 -7 LINE",
"-20 -7 OFFCURVE",
"98 0 OFFCURVE",
"160 0 CURVE SMOOTH"
);
},
{
closed = 1;
nodes = (
"361 260 LINE",
"394 248 OFFCURVE",
"411 225 OFFCURVE",
"411 195 CURVE SMOOTH",
"411 143 OFFCURVE",
"382 114 OFFCURVE",
"332 114 CURVE SMOOTH",
"283 114 OFFCURVE",
"264 128 OFFCURVE",
"269 160 CURVE SMOOTH",
"286 260 LINE"
);
},
{
closed = 1;
nodes = (
"304 389 OFFCURVE",
"316 470 OFFCURVE",
"326 514 CURVE SMOOTH",
"328 525 OFFCURVE",
"332 528 OFFCURVE",
"345 528 CURVE SMOOTH",
"401 528 OFFCURVE",
"427 509 OFFCURVE",
"427 470 CURVE SMOOTH",
"427 409 OFFCURVE",
"378 378 OFFCURVE",
"378 378 CURVE",
"356 378 OFFCURVE",
"304 389 OFFCURVE",
"304 389 CURVE"
);
}
);
};
layerId = UUID1;
paths = (
{
closed = 1;
nodes = (
"190 0 OFFCURVE",
"297 -7 OFFCURVE",
"320 -11 CURVE",
"524 -11 OFFCURVE",
"629 64 OFFCURVE",
"629 210 CURVE SMOOTH",
"629 268 OFFCURVE",
"593 314 OFFCURVE",
"525 343 CURVE",
"605 395 OFFCURVE",
"639 447 OFFCURVE",
"639 515 CURVE SMOOTH",
"639 603 OFFCURVE",
"560 654 OFFCURVE",
"424 654 CURVE SMOOTH",
"424 654 OFFCURVE",
"275 647 OFFCURVE",
"243 647 CURVE SMOOTH",
"212 647 OFFCURVE",
"76 649 OFFCURVE",
"76 649 CURVE",
"55 569 LINE",
"65 557 LINE",
"65 557 OFFCURVE",
"87 559 OFFCURVE",
"99 559 CURVE SMOOTH",
"115 559 OFFCURVE",
"122 543 OFFCURVE",
"119 513 CURVE SMOOTH",
"74 156 LINE SMOOTH",
"68 108 OFFCURVE",
"51 92 OFFCURVE",
"0 83 CURVE",
"-20 -7 LINE",
"-20 -7 OFFCURVE",
"98 0 OFFCURVE",
"160 0 CURVE SMOOTH"
);
},
{
closed = 1;
nodes = (
"361 260 LINE",
"394 248 OFFCURVE",
"411 225 OFFCURVE",
"411 195 CURVE SMOOTH",
"411 143 OFFCURVE",
"382 114 OFFCURVE",
"332 114 CURVE SMOOTH",
"283 114 OFFCURVE",
"264 128 OFFCURVE",
"269 160 CURVE SMOOTH",
"286 260 LINE"
);
},
{
closed = 1;
nodes = (
"304 389 OFFCURVE",
"316 470 OFFCURVE",
"326 514 CURVE SMOOTH",
"328 525 OFFCURVE",
"332 528 OFFCURVE",
"345 528 CURVE SMOOTH",
"401 528 OFFCURVE",
"427 509 OFFCURVE",
"427 470 CURVE SMOOTH",
"427 409 OFFCURVE",
"378 378 OFFCURVE",
"378 378 CURVE",
"356 378 OFFCURVE",
"304 389 OFFCURVE",
"304 389 CURVE"
);
}
);
width = 647;
}
);
leftKerningGroup = H;
rightKerningGroup = B;
unicode = 0042;
},
{
color = 1;
glyphname = C;
layers = (
{
anchors = (
{
name = bottom;
position = "{303, 0}";
},
{
name = top;
position = "{381, 636}";
}
);
background = {
paths = (
{
closed = 1;
nodes = (
"422 -12 OFFCURVE",
"499 28 OFFCURVE",
"499 28 CURVE",
"505 37 LINE",
"520 107 OFFCURVE",
"551 197 OFFCURVE",
"551 197 CURVE",
"508 193 LINE",
"470 84 OFFCURVE",
"410 33 OFFCURVE",
"322 33 CURVE SMOOTH",
"203 33 OFFCURVE",
"132 132 OFFCURVE",
"132 282 CURVE SMOOTH",
"132 469 OFFCURVE",
"236 594 OFFCURVE",
"383 594 CURVE SMOOTH",
"471 594 OFFCURVE",
"514 566 OFFCURVE",
"514 510 CURVE SMOOTH",
"514 490 OFFCURVE",
"505 451 OFFCURVE",
"505 451 CURVE",
"548 455 LINE",
"565 545 OFFCURVE",
"593 619 OFFCURVE",
"593 619 CURVE",
"590 625 LINE",
"590 625 OFFCURVE",
"496 648 OFFCURVE",
"417 648 CURVE SMOOTH",
"206 648 OFFCURVE",
"45 477 OFFCURVE",
"45 253 CURVE SMOOTH",
"45 91 OFFCURVE",
"150 -12 OFFCURVE",
"307 -12 CURVE SMOOTH"
);
}
);
};
layerId = UUID0;
paths = (
{
closed = 1;
nodes = (
"422 -12 OFFCURVE",
"499 28 OFFCURVE",
"499 28 CURVE",
"505 37 LINE",
"520 107 OFFCURVE",
"551 197 OFFCURVE",
"551 197 CURVE",
"508 193 LINE",
"470 84 OFFCURVE",
"410 33 OFFCURVE",
"322 33 CURVE SMOOTH",
"203 33 OFFCURVE",
"132 132 OFFCURVE",
"132 282 CURVE SMOOTH",
"132 469 OFFCURVE",
"236 594 OFFCURVE",
"383 594 CURVE SMOOTH",
"471 594 OFFCURVE",
"514 566 OFFCURVE",
"514 510 CURVE SMOOTH",
"514 490 OFFCURVE",
"505 451 OFFCURVE",
"505 451 CURVE",
"548 455 LINE",
"565 545 OFFCURVE",
"593 619 OFFCURVE",
"593 619 CURVE",
"590 625 LINE",
"590 625 OFFCURVE",
"496 648 OFFCURVE",
"417 648 CURVE SMOOTH",
"206 648 OFFCURVE",
"45 477 OFFCURVE",
"45 253 CURVE SMOOTH",
"45 91 OFFCURVE",
"150 -12 OFFCURVE",
"307 -12 CURVE SMOOTH"
);
}
);
width = 601;
},
{
anchors = (
{
name = bottom;
position = "{314, 0}";
},
{
name = top;
position = "{335, 647}";
}
);
background = {
paths = (
{
closed = 1;
nodes = (
"405 -11 OFFCURVE",
"505 27 OFFCURVE",
"505 27 CURVE",
"520 43 LINE",
"531 139 OFFCURVE",
"557 256 OFFCURVE",
"557 256 CURVE",
"402 246 LINE",
"383 154 OFFCURVE",
"365 130 OFFCURVE",
"316 130 CURVE SMOOTH",
"267 130 OFFCURVE",
"248 168 OFFCURVE",
"248 268 CURVE SMOOTH",
"248 450 OFFCURVE",
"276 521 OFFCURVE",
"349 521 CURVE SMOOTH",
"391 521 OFFCURVE",
"415 501 OFFCURVE",
"415 465 CURVE SMOOTH",
"415 447 OFFCURVE",
"404 390 OFFCURVE",
"404 390 CURVE",
"560 399 LINE",
"582 521 OFFCURVE",
"614 613 OFFCURVE",
"614 613 CURVE",
"608 633 LINE",
"608 633 OFFCURVE",
"469 659 OFFCURVE",
"386 659 CURVE SMOOTH",
"146 659 OFFCURVE",
"18 520 OFFCURVE",
"18 259 CURVE SMOOTH",
"18 86 OFFCURVE",
"112 -11 OFFCURVE",
"279 -11 CURVE SMOOTH"
);
}
);
};
layerId = UUID1;
paths = (
{
closed = 1;
nodes = (
"405 -11 OFFCURVE",
"505 27 OFFCURVE",
"505 27 CURVE",
"520 43 LINE",
"531 139 OFFCURVE",
"557 256 OFFCURVE",
"557 256 CURVE",
"402 246 LINE",
"383 154 OFFCURVE",
"365 130 OFFCURVE",
"316 130 CURVE SMOOTH",
"267 130 OFFCURVE",
"248 168 OFFCURVE",
"248 268 CURVE SMOOTH",
"248 450 OFFCURVE",
"276 521 OFFCURVE",
"349 521 CURVE SMOOTH",
"391 521 OFFCURVE",
"415 501 OFFCURVE",
"415 465 CURVE SMOOTH",
"415 447 OFFCURVE",
"404 390 OFFCURVE",
"404 390 CURVE",
"560 399 LINE",
"582 521 OFFCURVE",
"614 613 OFFCURVE",
"614 613 CURVE",
"608 633 LINE",
"608 633 OFFCURVE",
"469 659 OFFCURVE",
"386 659 CURVE SMOOTH",
"146 659 OFFCURVE",
"18 520 OFFCURVE",
"18 259 CURVE SMOOTH",
"18 86 OFFCURVE",
"112 -11 OFFCURVE",
"279 -11 CURVE SMOOTH"
);
}
);
width = 584;
}
);
leftKerningGroup = O;
rightKerningGroup = C;
unicode = 0043;
},
{
color = 1;
glyphname = D;
layers = (
{
anchors = (
{
name = bottom;
position = "{310, 0}";
},
{
name = center;
position = "{349, 318}";
},
{
name = top;
position = "{388, 636}";
}
);
background = {
paths = (
{
closed = 1;
nodes = (
"487 -12 OFFCURVE",
"653 165 OFFCURVE",
"653 376 CURVE SMOOTH",
"653 533 OFFCURVE",
"533 640 OFFCURVE",
"362 640 CURVE SMOOTH",
"362 640 OFFCURVE",
"270 636 OFFCURVE",
"226 636 CURVE SMOOTH",
"189 636 OFFCURVE",
"126 639 OFFCURVE",
"126 639 CURVE",
"115 598 LINE",
"116 594 LINE",
"116 594 OFFCURVE",
"138 596 OFFCURVE",
"150 596 CURVE SMOOTH",
"178 596 OFFCURVE",
"183 585 OFFCURVE",
"178 542 CURVE SMOOTH",
"126 117 LINE SMOOTH",
"119 61 OFFCURVE",
"101 43 OFFCURVE",
"39 31 CURVE",
"28 -12 LINE",
"28 -12 OFFCURVE",
"92 0 OFFCURVE",
"140 0 CURVE SMOOTH",
"188 0 OFFCURVE",
"286 -12 OFFCURVE",
"286 -12 CURVE"
);
},
{
closed = 1;
nodes = (
"473 596 OFFCURVE",
"567 509 OFFCURVE",
"567 356 CURVE SMOOTH",
"567 167 OFFCURVE",
"463 35 OFFCURVE",
"305 35 CURVE SMOOTH",
"219 35 OFFCURVE",
"191 50 OFFCURVE",
"191 107 CURVE SMOOTH",
"191 143 OFFCURVE",
"218 299 OFFCURVE",
"262 574 CURVE SMOOTH",
"265 592 OFFCURVE",
"272 596 OFFCURVE",
"298 596 CURVE SMOOTH"
);
}
);
};
layerId = UUID0;
paths = (
{
closed = 1;
nodes = (
"487 -12 OFFCURVE",
"653 165 OFFCURVE",
"653 376 CURVE SMOOTH",
"653 533 OFFCURVE",
"533 640 OFFCURVE",
"362 640 CURVE SMOOTH",
"362 640 OFFCURVE",
"270 636 OFFCURVE",
"226 636 CURVE SMOOTH",
"189 636 OFFCURVE",
"126 639 OFFCURVE",
"126 639 CURVE",
"115 598 LINE",
"116 594 LINE",
"116 594 OFFCURVE",
"138 596 OFFCURVE",
"150 596 CURVE SMOOTH",
"178 596 OFFCURVE",
"183 585 OFFCURVE",
"178 542 CURVE SMOOTH",
"126 117 LINE SMOOTH",
"119 61 OFFCURVE",
"101 43 OFFCURVE",
"39 31 CURVE",
"28 -12 LINE",
"28 -12 OFFCURVE",
"92 0 OFFCURVE",
"140 0 CURVE SMOOTH",
"188 0 OFFCURVE",
"286 -12 OFFCURVE",
"286 -12 CURVE"
);
},
{
closed = 1;
nodes = (
"473 596 OFFCURVE",
"567 509 OFFCURVE",
"567 356 CURVE SMOOTH",
"567 167 OFFCURVE",
"463 35 OFFCURVE",
"305 35 CURVE SMOOTH",
"219 35 OFFCURVE",
"191 50 OFFCURVE",
"191 107 CURVE SMOOTH",
"191 143 OFFCURVE",
"218 299 OFFCURVE",
"262 574 CURVE SMOOTH",
"265 592 OFFCURVE",
"272 596 OFFCURVE",
"298 596 CURVE SMOOTH"
);
}
);
width = 675;
},
{
anchors = (
{
name = bottom;
position = "{278, 0}";
},
{
name = center;
position = "{341, 324}";
},
{
name = top;
position = "{347, 647}";
}
);
background = {
paths = (
{
closed = 1;
nodes = (
"511 -12 OFFCURVE",
"665 153 OFFCURVE",
"665 402 CURVE SMOOTH",
"665 568 OFFCURVE",
"563 653 OFFCURVE",
"382 653 CURVE SMOOTH",
"382 653 OFFCURVE",
"274 647 OFFCURVE",
"229 647 CURVE SMOOTH",
"189 647 OFFCURVE",
"80 650 OFFCURVE",
"80 650 CURVE",
"61 569 LINE",
"69 555 LINE",
"69 555 OFFCURVE",
"86 557 OFFCURVE",
"100 557 CURVE SMOOTH",
"118 557 OFFCURVE",
"122 545 OFFCURVE",
"117 503 CURVE SMOOTH",
"76 168 LINE SMOOTH",
"67 110 OFFCURVE",
"51 93 OFFCURVE",
"4 85 CURVE",
"-16 -8 LINE",
"-16 -8 OFFCURVE",
"71 0 OFFCURVE",
"126 0 CURVE SMOOTH",
"187 0 OFFCURVE",
"279 -12 OFFCURVE",
"279 -12 CURVE"
);
},
{
closed = 1;
nodes = (
"411 526 OFFCURVE",
"435 493 OFFCURVE",
"435 398 CURVE SMOOTH",
"435 211 OFFCURVE",
"386 113 OFFCURVE",
"293 113 CURVE SMOOTH",
"274 113 OFFCURVE",
"267 121 OFFCURVE",
"267 145 CURVE SMOOTH",
"267 155 OFFCURVE",
"313 465 OFFCURVE",
"320 499 CURVE SMOOTH",
"324 520 OFFCURVE",
"329 526 OFFCURVE",
"343 526 CURVE SMOOTH"
);
}
);
};
layerId = UUID1;
paths = (
{
closed = 1;
nodes = (
"511 -12 OFFCURVE",
"665 153 OFFCURVE",
"665 402 CURVE SMOOTH",
"665 568 OFFCURVE",
"563 653 OFFCURVE",
"382 653 CURVE SMOOTH",
"382 653 OFFCURVE",
"274 647 OFFCURVE",
"229 647 CURVE SMOOTH",
"189 647 OFFCURVE",
"80 650 OFFCURVE",
"80 650 CURVE",
"61 569 LINE",
"69 555 LINE",
"69 555 OFFCURVE",
"86 557 OFFCURVE",
"100 557 CURVE SMOOTH",
"118 557 OFFCURVE",
"122 545 OFFCURVE",
"117 503 CURVE SMOOTH",
"76 168 LINE SMOOTH",
"67 110 OFFCURVE",
"51 93 OFFCURVE",
"4 85 CURVE",
"-16 -8 LINE",
"-16 -8 OFFCURVE",
"71 0 OFFCURVE",
"126 0 CURVE SMOOTH",
"187 0 OFFCURVE",
"279 -12 OFFCURVE",
"279 -12 CURVE"
);
},
{
closed = 1;
nodes = (
"411 526 OFFCURVE",
"435 493 OFFCURVE",
"435 398 CURVE SMOOTH",
"435 211 OFFCURVE",
"386 113 OFFCURVE",
"293 113 CURVE SMOOTH",
"274 113 OFFCURVE",
"267 121 OFFCURVE",
"267 145 CURVE SMOOTH",
"267 155 OFFCURVE",
"313 465 OFFCURVE",
"320 499 CURVE SMOOTH",
"324 520 OFFCURVE",
"329 526 OFFCURVE",
"343 526 CURVE SMOOTH"
);
}
);
width = 660;
}
);
leftKerningGroup = H;
rightKerningGroup = O;
unicode = 0044;
},
{
color = 0;
glyphname = Eth;
layers = (
{
components = (
{
name = D;
transform = "{1, 0, 0, 1, 10, 0}";
}
);
layerId = UUID0;
paths = (
{
closed = 1;
nodes = (
"195 343 LINE",
"31 343 LINE",
"20 311 LINE",
"26 304 LINE",
"190 304 LINE"
);
},
{
closed = 1;
nodes = (
"208 304 LINE",
"390 304 LINE",
"400 336 LINE",
"396 343 LINE",
"213 343 LINE"
);
}
);
width = 684;
},
{
components = (
{
name = D;
transform = "{1, 0, 0, 1, 20, 0}";
}
);
layerId = UUID1;
paths = (
{
closed = 1;
nodes = (
"133 363 LINE",
"35 363 LINE",
"11 274 LINE",
"20 266 LINE",
"121 266 LINE"
);
},
{
closed = 1;
nodes = (
"295 267 LINE",
"377 267 LINE",
"395 357 LINE",
"388 367 LINE",
"310 364 LINE"
);
}
);
width = 680;
}
);
rightKerningGroup = O;
unicode = 00D0;
},
{
color = 1;
glyphname = E;
layers = (
{
anchors = (
{
name = bottom;
position = "{256, 0}";
},
{
name = ogonek;
position = "{434, 38}";
},
{
name = top;
position = "{344, 636}";
},
{
name = topleft;
position = "{70, 636}";
}
);
background = {
paths = (
{
closed = 1;
nodes = (
"185 114 OFFCURVE",
"200 186 OFFCURVE",
"216 298 CURVE",
"232 301 OFFCURVE",
"262 305 OFFCURVE",
"290 305 CURVE SMOOTH",
"343 305 OFFCURVE",
"425 302 OFFCURVE",
"425 302 CURVE",
"445 358 LINE",
"442 362 LINE",
"442 362 OFFCURVE",
"358 351 OFFCURVE",
"324 351 CURVE SMOOTH",
"295 351 OFFCURVE",
"246 352 OFFCURVE",
"225 352 CURVE",
"256 551 LINE SMOOTH",
"262 589 OFFCURVE",
"266 590 OFFCURVE",
"329 590 CURVE SMOOTH",
"446 590 OFFCURVE",
"471 586 OFFCURVE",
"471 540 CURVE SMOOTH",
"471 514 OFFCURVE",
"462 475 OFFCURVE",
"462 475 CURVE",
"506 479 LINE",
"523 571 OFFCURVE",
"548 643 OFFCURVE",
"548 643 CURVE",
"546 648 LINE",
"482 639 OFFCURVE",
"411 636 OFFCURVE",
"257 636 CURVE SMOOTH",
"200 636 OFFCURVE",
"126 639 OFFCURVE",
"126 639 CURVE",
"115 597 LINE",
"116 594 LINE",
"116 594 OFFCURVE",
"138 596 OFFCURVE",
"149 596 CURVE SMOOTH",
"178 596 OFFCURVE",
"183 585 OFFCURVE",
"178 542 CURVE SMOOTH",
"125 117 LINE SMOOTH",
"118 60 OFFCURVE",
"99 41 OFFCURVE",
"40 33 CURVE",
"29 -10 LINE",
"29 -10 OFFCURVE",
"89 0 OFFCURVE",
"161 0 CURVE SMOOTH",
"251 0 OFFCURVE",
"450 -7 OFFCURVE",
"450 -7 CURVE",
"455 -2 LINE",
"474 82 OFFCURVE",
"502 164 OFFCURVE",
"502 164 CURVE",
"500 169 LINE",
"459 164 LINE",
"430 53 OFFCURVE",
"411 41 OFFCURVE",
"257 41 CURVE SMOOTH",
"201 41 OFFCURVE",
"185 45 OFFCURVE",
"185 80 CURVE SMOOTH"
);
}
);
};
layerId = UUID0;
paths = (
{
closed = 1;
nodes = (
"185 114 OFFCURVE",
"200 186 OFFCURVE",
"216 298 CURVE",
"232 301 OFFCURVE",
"262 305 OFFCURVE",
"290 305 CURVE SMOOTH",
"343 305 OFFCURVE",
"425 302 OFFCURVE",
"425 302 CURVE",
"445 358 LINE",
"442 362 LINE",
"442 362 OFFCURVE",
"358 351 OFFCURVE",
"324 351 CURVE SMOOTH",
"295 351 OFFCURVE",
"246 352 OFFCURVE",
"225 352 CURVE",
"256 551 LINE SMOOTH",
"262 589 OFFCURVE",
"266 590 OFFCURVE",
"329 590 CURVE SMOOTH",
"446 590 OFFCURVE",
"471 586 OFFCURVE",
"471 540 CURVE SMOOTH",
"471 514 OFFCURVE",
"462 475 OFFCURVE",
"462 475 CURVE",
"506 479 LINE",
"523 571 OFFCURVE",
"548 643 OFFCURVE",
"548 643 CURVE",
"546 648 LINE",
"482 639 OFFCURVE",
"411 636 OFFCURVE",
"257 636 CURVE SMOOTH",
"200 636 OFFCURVE",
"126 639 OFFCURVE",
"126 639 CURVE",
"115 597 LINE",
"116 594 LINE",
"116 594 OFFCURVE",
"138 596 OFFCURVE",
"149 596 CURVE SMOOTH",
"178 596 OFFCURVE",
"183 585 OFFCURVE",
"178 542 CURVE SMOOTH",
"125 117 LINE SMOOTH",
"118 60 OFFCURVE",
"99 41 OFFCURVE",
"40 33 CURVE",
"29 -10 LINE",
"29 -10 OFFCURVE",
"89 0 OFFCURVE",
"161 0 CURVE SMOOTH",
"251 0 OFFCURVE",
"450 -7 OFFCURVE",
"450 -7 CURVE",
"455 -2 LINE",
"474 82 OFFCURVE",
"502 164 OFFCURVE",
"502 164 CURVE",
"500 169 LINE",
"459 164 LINE",
"430 53 OFFCURVE",
"411 41 OFFCURVE",
"257 41 CURVE SMOOTH",
"201 41 OFFCURVE",
"185 45 OFFCURVE",
"185 80 CURVE SMOOTH"
);
}
);
width = 567;
},
{
anchors = (
{
name = bottom;
position = "{264, 0}";
},
{
name = ogonek;
position = "{488, 40}";
},
{
name = top;
position = "{353, 647}";
},
{
name = topleft;
position = "{70, 647}";
}
);
background = {
paths = (
{
closed = 1;
nodes = (
"269 173 OFFCURVE",
"278 226 OFFCURVE",
"283 260 CURVE",
"301 262 OFFCURVE",
"328 266 OFFCURVE",
"356 266 CURVE SMOOTH",
"400 266 OFFCURVE",
"471 263 OFFCURVE",
"471 263 CURVE",
"499 378 LINE",
"489 392 LINE",
"489 392 OFFCURVE",
"411 386 OFFCURVE",
"382 386 CURVE SMOOTH",
"355 386 OFFCURVE",
"322 387 OFFCURVE",
"303 387 CURVE",
"323 500 LINE SMOOTH",
"327 522 OFFCURVE",
"332 527 OFFCURVE",
"358 527 CURVE SMOOTH",
"424 527 OFFCURVE",
"444 519 OFFCURVE",
"444 484 CURVE SMOOTH",
"444 467 OFFCURVE",
"436 435 OFFCURVE",
"436 435 CURVE",
"576 444 LINE",
"592 538 OFFCURVE",
"623 643 OFFCURVE",
"623 643 CURVE",
"612 659 LINE",
"557 652 OFFCURVE",
"430 647 OFFCURVE",
"310 647 CURVE SMOOTH",
"220 647 OFFCURVE",
"80 650 OFFCURVE",
"80 650 CURVE",
"61 571 LINE",
"71 557 LINE",
"71 557 OFFCURVE",
"86 559 OFFCURVE",
"96 559 CURVE SMOOTH",
"117 559 OFFCURVE",
"121 548 OFFCURVE",
"116 505 CURVE SMOOTH",
"73 170 LINE SMOOTH",
"66 110 OFFCURVE",
"49 90 OFFCURVE",
"0 82 CURVE",
"-20 -10 LINE",
"-20 -10 OFFCURVE",
"88 0 OFFCURVE",
"190 0 CURVE SMOOTH",
"343 0 OFFCURVE",
"501 -7 OFFCURVE",
"501 -7 CURVE",
"518 9 LINE",
"541 118 OFFCURVE",
"571 215 OFFCURVE",
"571 215 CURVE",
"560 230 LINE",
"431 221 LINE",
"408 131 OFFCURVE",
"389 115 OFFCURVE",
"309 115 CURVE SMOOTH",
"279 115 OFFCURVE",
"269 121 OFFCURVE",
"269 151 CURVE SMOOTH"
);
}
);
};
layerId = UUID1;
paths = (
{
closed = 1;
nodes = (
"269 173 OFFCURVE",
"278 226 OFFCURVE",
"283 260 CURVE",
"301 262 OFFCURVE",
"328 266 OFFCURVE",
"356 266 CURVE SMOOTH",
"400 266 OFFCURVE",
"471 263 OFFCURVE",
"471 263 CURVE",
"499 378 LINE",
"489 392 LINE",
"489 392 OFFCURVE",
"411 386 OFFCURVE",
"382 386 CURVE SMOOTH",
"355 386 OFFCURVE",
"322 387 OFFCURVE",
"303 387 CURVE",
"323 500 LINE SMOOTH",
"327 522 OFFCURVE",
"332 527 OFFCURVE",
"358 527 CURVE SMOOTH",
"424 527 OFFCURVE",
"444 519 OFFCURVE",
"444 484 CURVE SMOOTH",
"444 467 OFFCURVE",
"436 435 OFFCURVE",
"436 435 CURVE",
"576 444 LINE",
"592 538 OFFCURVE",
"623 643 OFFCURVE",
"623 643 CURVE",
"612 659 LINE",
"557 652 OFFCURVE",
"430 647 OFFCURVE",
"310 647 CURVE SMOOTH",
"220 647 OFFCURVE",
"80 650 OFFCURVE",
"80 650 CURVE",
"61 571 LINE",
"71 557 LINE",
"71 557 OFFCURVE",
"86 559 OFFCURVE",
"96 559 CURVE SMOOTH",
"117 559 OFFCURVE",
"121 548 OFFCURVE",
"116 505 CURVE SMOOTH",
"73 170 LINE SMOOTH",
"66 110 OFFCURVE",
"49 90 OFFCURVE",
"0 82 CURVE",
"-20 -10 LINE",
"-20 -10 OFFCURVE",
"88 0 OFFCURVE",
"190 0 CURVE SMOOTH",
"343 0 OFFCURVE",
"501 -7 OFFCURVE",
"501 -7 CURVE",
"518 9 LINE",
"541 118 OFFCURVE",
"571 215 OFFCURVE",
"571 215 CURVE",
"560 230 LINE",
"431 221 LINE",
"408 131 OFFCURVE",
"389 115 OFFCURVE",
"309 115 CURVE SMOOTH",
"279 115 OFFCURVE",
"269 121 OFFCURVE",
"269 151 CURVE SMOOTH"
);
}
);
width = 586;
}
);
leftKerningGroup = H;
rightKerningGroup = E;
unicode = 0045;
},
{
color = 1;
glyphname = F;
layers = (
{
anchors = (
{
name = bottom;
position = "{182, 0}";
},
{
name = top;
position = "{318, 647}";
}
);
background = {
paths = (
{
closed = 1;
nodes = (
"213 280 LINE",
"230 283 OFFCURVE",
"259 287 OFFCURVE",
"288 287 CURVE SMOOTH",
"333 287 OFFCURVE",
"407 284 OFFCURVE",
"407 284 CURVE",
"426 341 LINE",
"424 345 LINE",
"424 345 OFFCURVE",
"352 334 OFFCURVE",
"322 334 CURVE SMOOTH",
"223 335 LINE",
"256 551 LINE SMOOTH",
"262 589 OFFCURVE",
"266 590 OFFCURVE",
"329 590 CURVE SMOOTH",
"429 590 OFFCURVE",
"453 586 OFFCURVE",
"453 541 CURVE SMOOTH",
"453 514 OFFCURVE",
"444 472 OFFCURVE",
"444 472 CURVE",
"487 476 LINE",
"504 568 OFFCURVE",
"530 643 OFFCURVE",
"530 643 CURVE",
"528 648 LINE",
"466 639 OFFCURVE",
"389 636 OFFCURVE",
"257 636 CURVE SMOOTH",
"200 636 OFFCURVE",
"126 639 OFFCURVE",
"126 639 CURVE",
"115 597 LINE",
"116 594 LINE",
"116 594 OFFCURVE",
"138 596 OFFCURVE",
"149 596 CURVE SMOOTH",
"178 596 OFFCURVE",
"183 585 OFFCURVE",
"178 542 CURVE SMOOTH",
"125 117 LINE SMOOTH",
"118 61 OFFCURVE",
"101 43 OFFCURVE",
"39 31 CURVE",
"29 -12 LINE",
"29 -12 OFFCURVE",
"90 0 OFFCURVE",
"137 0 CURVE SMOOTH",
"188 0 OFFCURVE",
"279 -4 OFFCURVE",
"279 -4 CURVE",
"292 39 LINE",
"291 43 LINE",
"291 43 OFFCURVE",
"242 40 OFFCURVE",
"222 40 CURVE SMOOTH",
"189 40 OFFCURVE",
"181 61 OFFCURVE",
"188 108 CURVE SMOOTH"
);
}
);
};
layerId = UUID0;
paths = (
{
closed = 1;
nodes = (
"213 280 LINE",
"230 283 OFFCURVE",
"259 287 OFFCURVE",
"288 287 CURVE SMOOTH",
"333 287 OFFCURVE",
"407 284 OFFCURVE",
"407 284 CURVE",
"426 341 LINE",
"424 345 LINE",
"424 345 OFFCURVE",
"352 334 OFFCURVE",
"322 334 CURVE SMOOTH",
"223 335 LINE",
"256 551 LINE SMOOTH",
"262 589 OFFCURVE",
"266 590 OFFCURVE",
"329 590 CURVE SMOOTH",
"429 590 OFFCURVE",
"453 586 OFFCURVE",
"453 541 CURVE SMOOTH",
"453 514 OFFCURVE",
"444 472 OFFCURVE",
"444 472 CURVE",
"487 476 LINE",
"504 568 OFFCURVE",
"530 643 OFFCURVE",
"530 643 CURVE",
"528 648 LINE",
"466 639 OFFCURVE",
"389 636 OFFCURVE",
"257 636 CURVE SMOOTH",
"200 636 OFFCURVE",
"126 639 OFFCURVE",
"126 639 CURVE",
"115 597 LINE",
"116 594 LINE",
"116 594 OFFCURVE",
"138 596 OFFCURVE",
"149 596 CURVE SMOOTH",
"178 596 OFFCURVE",
"183 585 OFFCURVE",
"178 542 CURVE SMOOTH",
"125 117 LINE SMOOTH",
"118 61 OFFCURVE",
"101 43 OFFCURVE",
"39 31 CURVE",
"29 -12 LINE",
"29 -12 OFFCURVE",
"90 0 OFFCURVE",
"137 0 CURVE SMOOTH",
"188 0 OFFCURVE",
"279 -4 OFFCURVE",
"279 -4 CURVE",
"292 39 LINE",
"291 43 LINE",
"291 43 OFFCURVE",
"242 40 OFFCURVE",
"222 40 CURVE SMOOTH",
"189 40 OFFCURVE",
"181 61 OFFCURVE",
"188 108 CURVE SMOOTH"
);
}
);
width = 490;
},
{
anchors = (
{
name = bottom;
position = "{182, 0}";
},
{
name = top;
position = "{318, 647}";
}
);
background = {
paths = (
{
closed = 1;
nodes = (
"281 243 LINE",
"298 245 OFFCURVE",
"326 249 OFFCURVE",
"354 249 CURVE SMOOTH",
"397 249 OFFCURVE",
"465 246 OFFCURVE",
"465 246 CURVE",
"493 361 LINE",
"482 375 LINE",
"482 375 OFFCURVE",
"408 369 OFFCURVE",
"380 369 CURVE SMOOTH",
"300 370 LINE",
"323 500 LINE SMOOTH",
"327 522 OFFCURVE",
"332 527 OFFCURVE",
"358 527 CURVE SMOOTH",
"405 527 OFFCURVE",
"421 517 OFFCURVE",
"421 484 CURVE SMOOTH",
"421 467 OFFCURVE",
"414 436 OFFCURVE",
"414 436 CURVE",
"554 444 LINE",
"569 536 OFFCURVE",
"595 643 OFFCURVE",
"595 643 CURVE",
"584 659 LINE",
"534 652 OFFCURVE",
"419 647 OFFCURVE",
"310 647 CURVE SMOOTH",
"220 647 OFFCURVE",
"80 650 OFFCURVE",
"80 650 CURVE",
"61 571 LINE",
"71 557 LINE",
"71 557 OFFCURVE",
"86 559 OFFCURVE",
"96 559 CURVE SMOOTH",
"117 559 OFFCURVE",
"121 548 OFFCURVE",
"116 505 CURVE SMOOTH",
"73 170 LINE SMOOTH",
"65 110 OFFCURVE",
"49 90 OFFCURVE",
"0 82 CURVE",
"-20 -10 LINE",
"-20 -10 OFFCURVE",
"88 0 OFFCURVE",
"191 0 CURVE SMOOTH",
"236 0 OFFCURVE",
"349 -3 OFFCURVE",
"349 -3 CURVE",
"375 105 LINE",
"361 123 LINE",
"361 123 OFFCURVE",
"335 115 OFFCURVE",
"305 115 CURVE SMOOTH",
"272 115 OFFCURVE",
"266 127 OFFCURVE",
"272 175 CURVE SMOOTH"
);
}
);
};
layerId = UUID1;
paths = (
{
closed = 1;
nodes = (
"281 243 LINE",
"298 245 OFFCURVE",
"326 249 OFFCURVE",
"354 249 CURVE SMOOTH",
"397 249 OFFCURVE",
"465 246 OFFCURVE",
"465 246 CURVE",
"493 361 LINE",
"482 375 LINE",
"482 375 OFFCURVE",
"408 369 OFFCURVE",
"380 369 CURVE SMOOTH",
"300 370 LINE",
"323 500 LINE SMOOTH",
"327 522 OFFCURVE",
"332 527 OFFCURVE",
"358 527 CURVE SMOOTH",
"405 527 OFFCURVE",
"421 517 OFFCURVE",
"421 484 CURVE SMOOTH",
"421 467 OFFCURVE",
"414 436 OFFCURVE",
"414 436 CURVE",
"554 444 LINE",
"569 536 OFFCURVE",
"595 643 OFFCURVE",
"595 643 CURVE",
"584 659 LINE",
"534 652 OFFCURVE",
"419 647 OFFCURVE",
"310 647 CURVE SMOOTH",
"220 647 OFFCURVE",
"80 650 OFFCURVE",
"80 650 CURVE",
"61 571 LINE",
"71 557 LINE",
"71 557 OFFCURVE",
"86 559 OFFCURVE",
"96 559 CURVE SMOOTH",
"117 559 OFFCURVE",
"121 548 OFFCURVE",
"116 505 CURVE SMOOTH",
"73 170 LINE SMOOTH",
"65 110 OFFCURVE",
"49 90 OFFCURVE",
"0 82 CURVE",
"-20 -10 LINE",
"-20 -10 OFFCURVE",
"88 0 OFFCURVE",
"191 0 CURVE SMOOTH",
"236 0 OFFCURVE",
"349 -3 OFFCURVE",
"349 -3 CURVE",
"375 105 LINE",
"361 123 LINE",
"361 123 OFFCURVE",
"335 115 OFFCURVE",
"305 115 CURVE SMOOTH",
"272 115 OFFCURVE",
"266 127 OFFCURVE",
"272 175 CURVE SMOOTH"
);
}
);
width = 540;
}
);
leftKerningGroup = H;
rightKerningGroup = F;
unicode = 0046;
},
{
color = 1;
glyphname = G;
layers = (
{
anchors = (
{
name = bottom;
position = "{312, 0}";
},
{
name = top;
position = "{390, 636}";
}
);
background = {
paths = (
{
closed = 1;
nodes = (
"428 -12 OFFCURVE",
"517 35 OFFCURVE",
"517 35 CURVE",
"523 43 LINE",
"523 43 OFFCURVE",
"522 64 OFFCURVE",
"522 73 CURVE SMOOTH",
"522 92 OFFCURVE",
"530 159 OFFCURVE",
"536 195 CURVE SMOOTH",
"543 242 OFFCURVE",
"557 271 OFFCURVE",
"576 284 CURVE",
"575 304 LINE SMOOTH",
"575 304 OFFCURVE",
"533 299 OFFCURVE",
"492 299 CURVE SMOOTH",
"435 299 OFFCURVE",
"370 303 OFFCURVE",
"371 303 CURVE",
"357 256 LINE",
"358 252 LINE",
"358 252 OFFCURVE",
"403 252 OFFCURVE",
"425 252 CURVE SMOOTH",
"469 252 OFFCURVE",
"477 243 OFFCURVE",
"472 198 CURVE SMOOTH",
"457 72 LINE",
"457 72 OFFCURVE",
"401 33 OFFCURVE",
"322 33 CURVE SMOOTH",
"203 33 OFFCURVE",
"132 132 OFFCURVE",
"132 282 CURVE SMOOTH",
"132 469 OFFCURVE",
"236 594 OFFCURVE",
"383 594 CURVE SMOOTH",
"471 594 OFFCURVE",
"514 566 OFFCURVE",
"514 510 CURVE SMOOTH",
"514 490 OFFCURVE",
"505 451 OFFCURVE",
"505 451 CURVE",
"548 455 LINE",
"565 545 OFFCURVE",
"593 619 OFFCURVE",
"593 619 CURVE",
"590 625 LINE",
"590 625 OFFCURVE",
"496 648 OFFCURVE",
"417 648 CURVE SMOOTH",
"206 648 OFFCURVE",
"45 477 OFFCURVE",
"45 253 CURVE SMOOTH",
"45 91 OFFCURVE",
"150 -12 OFFCURVE",
"307 -12 CURVE SMOOTH"
);
}
);
};
layerId = UUID0;
paths = (
{
closed = 1;
nodes = (
"428 -12 OFFCURVE",
"517 35 OFFCURVE",
"517 35 CURVE",
"523 43 LINE",
"523 43 OFFCURVE",
"522 64 OFFCURVE",
"522 73 CURVE SMOOTH",
"522 92 OFFCURVE",
"530 159 OFFCURVE",
"536 195 CURVE SMOOTH",
"543 242 OFFCURVE",
"557 271 OFFCURVE",
"576 284 CURVE",
"575 304 LINE SMOOTH",
"575 304 OFFCURVE",
"533 299 OFFCURVE",
"492 299 CURVE SMOOTH",
"435 299 OFFCURVE",
"370 303 OFFCURVE",
"371 303 CURVE",
"357 256 LINE",
"358 252 LINE",
"358 252 OFFCURVE",
"403 252 OFFCURVE",
"425 252 CURVE SMOOTH",
"469 252 OFFCURVE",
"477 243 OFFCURVE",
"472 198 CURVE SMOOTH",
"457 72 LINE",
"457 72 OFFCURVE",
"401 33 OFFCURVE",
"322 33 CURVE SMOOTH",
"203 33 OFFCURVE",
"132 132 OFFCURVE",
"132 282 CURVE SMOOTH",
"132 469 OFFCURVE",
"236 594 OFFCURVE",
"383 594 CURVE SMOOTH",
"471 594 OFFCURVE",
"514 566 OFFCURVE",
"514 510 CURVE SMOOTH",
"514 490 OFFCURVE",
"505 451 OFFCURVE",
"505 451 CURVE",
"548 455 LINE",
"565 545 OFFCURVE",
"593 619 OFFCURVE",
"593 619 CURVE",
"590 625 LINE",
"590 625 OFFCURVE",
"496 648 OFFCURVE",
"417 648 CURVE SMOOTH",
"206 648 OFFCURVE",
"45 477 OFFCURVE",
"45 253 CURVE SMOOTH",
"45 91 OFFCURVE",
"150 -12 OFFCURVE",
"307 -12 CURVE SMOOTH"
);
}
);
width = 640;
},
{
anchors = (
{
name = bottom;
position = "{280, 0}";
},
{
name = top;
position = "{379, 647}";
}
);
background = {
paths = (
{
closed = 1;
nodes = (
"438 -11 OFFCURVE",
"519 22 OFFCURVE",
"519 22 CURVE",
"533 38 LINE",
"533 38 OFFCURVE",
"532 56 OFFCURVE",
"532 76 CURVE SMOOTH",
"532 94 OFFCURVE",
"543 179 OFFCURVE",
"552 226 CURVE SMOOTH",
"558 262 OFFCURVE",
"571 283 OFFCURVE",
"600 301 CURVE",
"597 359 LINE SMOOTH",
"597 357 OFFCURVE",
"529 354 OFFCURVE",
"489 354 CURVE SMOOTH",
"440 354 OFFCURVE",
"339 354 OFFCURVE",
"339 354 CURVE",
"316 259 LINE",
"323 245 LINE",
"323 245 OFFCURVE",
"338 246 OFFCURVE",
"354 246 CURVE SMOOTH",
"377 246 OFFCURVE",
"382 237 OFFCURVE",
"378 205 CURVE SMOOTH",
"371 142 LINE",
"371 142 OFFCURVE",
"349 130 OFFCURVE",
"316 130 CURVE SMOOTH",
"267 130 OFFCURVE",
"248 168 OFFCURVE",
"248 268 CURVE SMOOTH",
"248 450 OFFCURVE",
"276 521 OFFCURVE",
"349 521 CURVE SMOOTH",
"391 521 OFFCURVE",
"415 504 OFFCURVE",
"415 468 CURVE SMOOTH",
"415 450 OFFCURVE",
"404 404 OFFCURVE",
"404 404 CURVE",
"560 413 LINE",
"582 535 OFFCURVE",
"614 613 OFFCURVE",
"614 613 CURVE",
"608 633 LINE",
"608 633 OFFCURVE",
"469 659 OFFCURVE",
"386 659 CURVE SMOOTH",
"146 659 OFFCURVE",
"18 520 OFFCURVE",
"18 259 CURVE SMOOTH",
"18 86 OFFCURVE",
"112 -11 OFFCURVE",
"279 -11 CURVE SMOOTH"
);
}
);
};
layerId = UUID1;
paths = (
{
closed = 1;
nodes = (
"438 -11 OFFCURVE",
"519 22 OFFCURVE",
"519 22 CURVE",
"533 38 LINE",
"533 38 OFFCURVE",
"532 56 OFFCURVE",
"532 76 CURVE SMOOTH",
"532 94 OFFCURVE",
"543 179 OFFCURVE",
"552 226 CURVE SMOOTH",
"558 262 OFFCURVE",
"571 283 OFFCURVE",
"600 301 CURVE",
"597 359 LINE SMOOTH",
"597 357 OFFCURVE",
"529 354 OFFCURVE",
"489 354 CURVE SMOOTH",
"440 354 OFFCURVE",
"339 354 OFFCURVE",
"339 354 CURVE",
"316 259 LINE",
"323 245 LINE",
"323 245 OFFCURVE",
"338 246 OFFCURVE",
"354 246 CURVE SMOOTH",
"377 246 OFFCURVE",
"382 237 OFFCURVE",
"378 205 CURVE SMOOTH",
"371 142 LINE",
"371 142 OFFCURVE",
"349 130 OFFCURVE",
"316 130 CURVE SMOOTH",
"267 130 OFFCURVE",
"248 168 OFFCURVE",
"248 268 CURVE SMOOTH",
"248 450 OFFCURVE",
"276 521 OFFCURVE",
"349 521 CURVE SMOOTH",
"391 521 OFFCURVE",
"415 504 OFFCURVE",
"415 468 CURVE SMOOTH",
"415 450 OFFCURVE",
"404 404 OFFCURVE",
"404 404 CURVE",
"560 413 LINE",
"582 535 OFFCURVE",
"614 613 OFFCURVE",
"614 613 CURVE",
"608 633 LINE",
"608 633 OFFCURVE",
"469 659 OFFCURVE",
"386 659 CURVE SMOOTH",
"146 659 OFFCURVE",
"18 520 OFFCURVE",
"18 259 CURVE SMOOTH",
"18 86 OFFCURVE",
"112 -11 OFFCURVE",
"279 -11 CURVE SMOOTH"
);
}
);
width = 618;
}
);
leftKerningGroup = O;
rightKerningGroup = G;
unicode = 0047;
},
{
color = 1;
glyphname = H;
layers = (
{
anchors = (
{
name = bottom;
position = "{334, 0}";
},
{
name = bottomright;
position = "{566, 106}";
},
{
name = center;
position = "{373, 318}";
},
{
name = top;
position = "{412, 636}";
},
{
name = topleft;
position = "{70, 636}";
}
);
background = {
paths = (
{
closed = 1;
nodes = (
"640 584 OFFCURVE",
"654 596 OFFCURVE",
"703 603 CURVE",
"711 646 LINE",
"662 640 OFFCURVE",
"619 636 OFFCURVE",
"595 636 CURVE SMOOTH",
"569 636 OFFCURVE",
"504 639 OFFCURVE",
"505 640 CURVE",
"492 597 LINE",
"494 594 LINE",
"504 595 OFFCURVE",
"519 596 OFFCURVE",
"527 596 CURVE SMOOTH",
"556 596 OFFCURVE",
"563 584 OFFCURVE",
"556 542 CURVE",
"532 356 LINE",
"465 348 OFFCURVE",
"430 346 OFFCURVE",
"387 346 CURVE SMOOTH",
"333 346 OFFCURVE",
"278 347 OFFCURVE",
"224 347 CURVE",
"250 511 LINE SMOOTH",
"261 585 OFFCURVE",
"269 594 OFFCURVE",
"325 603 CURVE",
"333 646 LINE",
"293 640 OFFCURVE",
"255 636 OFFCURVE",
"233 636 CURVE SMOOTH",
"208 636 OFFCURVE",
"160 638 OFFCURVE",
"127 640 CURVE",
"115 597 LINE",
"117 594 LINE",
"127 595 OFFCURVE",
"142 596 OFFCURVE",
"149 596 CURVE SMOOTH",
"178 596 OFFCURVE",
"183 586 OFFCURVE",
"178 542 CURVE SMOOTH",
"130 151 LINE",
"122 63 OFFCURVE",
"108 45 OFFCURVE",
"39 31 CURVE",
"28 -12 LINE",
"30 -7 OFFCURVE",
"117 0 OFFCURVE",
"176 0 CURVE SMOOTH",
"204 0 OFFCURVE",
"254 -2 OFFCURVE",
"254 -3 CURVE",
"268 41 LINE",
"268 42 OFFCURVE",
"267 44 OFFCURVE",
"267 45 CURVE SMOOTH",
"256 44 OFFCURVE",
"237 42 OFFCURVE",
"223 42 CURVE SMOOTH",
"199 42 OFFCURVE",
"191 47 OFFCURVE",
"188 67 CURVE SMOOTH",
"184 89 OFFCURVE",
"193 136 OFFCURVE",
"198 173 CURVE SMOOTH",
"215 293 LINE",
"281 299 OFFCURVE",
"358 304 OFFCURVE",
"377 304 CURVE SMOOTH",
"410 304 OFFCURVE",
"481 303 OFFCURVE",
"525 303 CURVE",
"507 149 LINE SMOOTH",
"496 61 OFFCURVE",
"481 42 OFFCURVE",
"420 41 CURVE",
"407 -2 LINE",
"407 -3 OFFCURVE",
"446 0 OFFCURVE",
"482 0 CURVE SMOOTH",
"513 0 LINE SMOOTH",
"544 0 OFFCURVE",
"599 -2 OFFCURVE",
"632 -3 CURVE",
"645 41 LINE",
"646 42 OFFCURVE",
"645 43 OFFCURVE",
"645 44 CURVE",
"634 43 OFFCURVE",
"615 41 OFFCURVE",
"601 41 CURVE SMOOTH",
"574 41 OFFCURVE",
"565 52 OFFCURVE",
"565 84 CURVE SMOOTH",
"565 114 OFFCURVE",
"587 264 OFFCURVE",
"633 546 CURVE"
);
}
);
};
layerId = UUID0;
paths = (
{
closed = 1;
nodes = (
"30 -7 OFFCURVE",
"117 0 OFFCURVE",
"176 0 CURVE SMOOTH",
"204 0 OFFCURVE",
"254 -2 OFFCURVE",
"254 -3 CURVE",
"268 41 LINE",
"268 42 OFFCURVE",
"267 44 OFFCURVE",
"267 45 CURVE SMOOTH",
"256 44 OFFCURVE",
"237 42 OFFCURVE",
"223 42 CURVE SMOOTH",
"199 42 OFFCURVE",
"191 47 OFFCURVE",
"188 67 CURVE SMOOTH",
"184 89 OFFCURVE",
"193 136 OFFCURVE",
"198 173 CURVE SMOOTH",
"217 307 LINE",
"250 511 LINE SMOOTH",
"261 585 OFFCURVE",
"269 594 OFFCURVE",
"325 603 CURVE",
"333 646 LINE",
"293 640 OFFCURVE",
"255 636 OFFCURVE",
"233 636 CURVE SMOOTH",
"208 636 OFFCURVE",
"160 638 OFFCURVE",
"127 640 CURVE",
"115 597 LINE",
"117 594 LINE",
"127 595 OFFCURVE",
"142 596 OFFCURVE",
"149 596 CURVE SMOOTH",
"178 596 OFFCURVE",
"183 586 OFFCURVE",
"178 542 CURVE SMOOTH",
"130 151 LINE",
"122 63 OFFCURVE",
"108 45 OFFCURVE",
"39 31 CURVE",
"28 -12 LINE"
);
},
{
closed = 1;
nodes = (
"268 298 OFFCURVE",
"356 304 OFFCURVE",
"377 304 CURVE",
"544 303 LINE",
"551 358 LINE",
"471 349 OFFCURVE",
"434 346 OFFCURVE",
"387 346 CURVE SMOOTH",
"328 346 OFFCURVE",
"269 347 OFFCURVE",
"210 347 CURVE",
"199 291 LINE"
);
},
{
closed = 1;
nodes = (
"645 41 LINE",
"646 42 OFFCURVE",
"645 43 OFFCURVE",
"645 44 CURVE",
"634 43 OFFCURVE",
"615 41 OFFCURVE",
"601 41 CURVE SMOOTH",
"574 41 OFFCURVE",
"565 52 OFFCURVE",
"565 84 CURVE SMOOTH",
"565 114 OFFCURVE",
"587 264 OFFCURVE",
"633 546 CURVE",
"640 584 OFFCURVE",
"654 596 OFFCURVE",
"703 603 CURVE",
"711 646 LINE",
"662 640 OFFCURVE",
"619 636 OFFCURVE",
"595 636 CURVE SMOOTH",
"569 636 OFFCURVE",
"504 639 OFFCURVE",
"505 640 CURVE",
"492 597 LINE",
"494 594 LINE",
"504 595 OFFCURVE",
"519 596 OFFCURVE",
"527 596 CURVE SMOOTH",
"556 596 OFFCURVE",
"561 584 OFFCURVE",
"556 542 CURVE SMOOTH",
"507 149 LINE SMOOTH",
"496 61 OFFCURVE",
"481 42 OFFCURVE",
"420 41 CURVE",
"407 -2 LINE",
"407 -3 OFFCURVE",
"446 0 OFFCURVE",
"482 0 CURVE SMOOTH",
"513 0 LINE SMOOTH",
"544 0 OFFCURVE",
"599 -2 OFFCURVE",
"632 -3 CURVE"
);
}
);
width = 723;
},
{
anchors = (
{
name = bottom;
position = "{329, 0}";
},
{
name = bottomright;
position = "{628, 172}";
},
{
name = center;
position = "{369, 324}";
},
{
name = top;
position = "{408, 647}";
},
{
name = topleft;
position = "{70, 647}";
}
);
background = {
paths = (
{
closed = 1;
nodes = (
"687 548 OFFCURVE",
"697 556 OFFCURVE",
"745 564 CURVE",
"762 652 LINE",
"731 650 OFFCURVE",
"670 648 OFFCURVE",
"615 647 CURVE SMOOTH",
"588 647 OFFCURVE",
"430 647 OFFCURVE",
"429 647 CURVE",
"412 572 LINE",
"419 558 LINE",
"425 558 OFFCURVE",
"437 559 OFFCURVE",
"445 559 CURVE SMOOTH",
"472 559 OFFCURVE",
"478 548 OFFCURVE",
"473 508 CURVE",
"458 389 LINE",
"437 387 OFFCURVE",
"416 386 OFFCURVE",
"379 386 CURVE SMOOTH",
"353 387 OFFCURVE",
"328 388 OFFCURVE",
"302 389 CURVE",
"322 510 LINE SMOOTH",
"328 545 OFFCURVE",
"338 554 OFFCURVE",
"379 562 CURVE",
"397 652 LINE",
"301 649 OFFCURVE",
"230 647 OFFCURVE",
"199 647 CURVE SMOOTH",
"168 647 OFFCURVE",
"109 647 OFFCURVE",
"73 647 CURVE",
"56 572 LINE",
"63 558 LINE",
"69 558 OFFCURVE",
"81 559 OFFCURVE",
"88 559 CURVE SMOOTH",
"115 559 OFFCURVE",
"121 549 OFFCURVE",
"116 508 CURVE SMOOTH",
"73 162 LINE",
"66 106 OFFCURVE",
"53 91 OFFCURVE",
"1 80 CURVE",
"-17 -5 LINE",
"52 -2 OFFCURVE",
"113 0 OFFCURVE",
"145 0 CURVE SMOOTH",
"174 0 OFFCURVE",
"254 -2 OFFCURVE",
"306 -4 CURVE",
"325 80 LINE",
"323 83 OFFCURVE",
"320 87 OFFCURVE",
"318 90 CURVE SMOOTH",
"313 88 OFFCURVE",
"301 87 OFFCURVE",
"292 87 CURVE SMOOTH",
"273 87 OFFCURVE",
"267 95 OFFCURVE",
"267 119 CURVE SMOOTH",
"267 129 OFFCURVE",
"268 143 OFFCURVE",
"270 156 CURVE SMOOTH",
"282 256 LINE",
"329 261 OFFCURVE",
"378 265 OFFCURVE",
"390 265 CURVE SMOOTH",
"408 265 OFFCURVE",
"431 264 OFFCURVE",
"443 264 CURVE",
"430 162 LINE SMOOTH",
"423 108 OFFCURVE",
"403 87 OFFCURVE",
"357 86 CURVE",
"339 -1 LINE",
"390 -1 OFFCURVE",
"470 0 OFFCURVE",
"503 0 CURVE SMOOTH",
"552 0 LINE SMOOTH",
"621 -1 OFFCURVE",
"653 -2 OFFCURVE",
"671 -2 CURVE",
"690 81 LINE",
"688 85 OFFCURVE",
"685 88 OFFCURVE",
"683 92 CURVE",
"674 90 OFFCURVE",
"664 89 OFFCURVE",
"656 89 CURVE SMOOTH",
"634 89 OFFCURVE",
"625 101 OFFCURVE",
"625 133 CURVE SMOOTH",
"625 165 OFFCURVE",
"661 413 OFFCURVE",
"680 510 CURVE"
);
}
);
};
layerId = UUID1;
paths = (
{
closed = 1;
nodes = (
"52 -2 OFFCURVE",
"113 0 OFFCURVE",
"145 0 CURVE SMOOTH",
"174 0 OFFCURVE",
"254 -2 OFFCURVE",
"306 -4 CURVE",
"325 80 LINE",
"323 83 OFFCURVE",
"320 87 OFFCURVE",
"318 90 CURVE SMOOTH",
"313 88 OFFCURVE",
"301 87 OFFCURVE",
"292 87 CURVE SMOOTH",
"273 87 OFFCURVE",
"267 95 OFFCURVE",
"267 119 CURVE SMOOTH",
"267 129 OFFCURVE",
"268 143 OFFCURVE",
"270 156 CURVE SMOOTH",
"287 300 LINE",
"322 510 LINE SMOOTH",
"328 545 OFFCURVE",
"338 554 OFFCURVE",
"379 562 CURVE",
"397 652 LINE",
"301 649 OFFCURVE",
"230 647 OFFCURVE",
"199 647 CURVE SMOOTH",
"168 647 OFFCURVE",
"109 647 OFFCURVE",
"73 647 CURVE",
"56 572 LINE",
"63 558 LINE",
"69 558 OFFCURVE",
"81 559 OFFCURVE",
"88 559 CURVE SMOOTH",
"115 559 OFFCURVE",
"121 549 OFFCURVE",
"116 508 CURVE SMOOTH",
"73 162 LINE",
"66 106 OFFCURVE",
"53 91 OFFCURVE",
"1 80 CURVE",
"-17 -5 LINE"
);
},
{
closed = 1;
nodes = (
"314 260 OFFCURVE",
"376 265 OFFCURVE",
"390 265 CURVE",
"450 264 LINE",
"471 390 LINE",
"445 387 OFFCURVE",
"423 386 OFFCURVE",
"379 386 CURVE SMOOTH",
"348 387 OFFCURVE",
"318 388 OFFCURVE",
"286 390 CURVE",
"261 254 LINE"
);
},
{
closed = 1;
nodes = (
"690 81 LINE",
"688 85 OFFCURVE",
"685 88 OFFCURVE",
"683 92 CURVE",
"674 90 OFFCURVE",
"664 89 OFFCURVE",
"656 89 CURVE SMOOTH",
"634 89 OFFCURVE",
"625 101 OFFCURVE",
"625 133 CURVE SMOOTH",
"625 165 OFFCURVE",
"661 413 OFFCURVE",
"680 510 CURVE",
"687 548 OFFCURVE",
"697 556 OFFCURVE",
"745 564 CURVE",
"762 652 LINE",
"731 650 OFFCURVE",
"670 648 OFFCURVE",
"615 647 CURVE SMOOTH",
"588 647 OFFCURVE",
"430 647 OFFCURVE",
"429 647 CURVE",
"412 572 LINE",
"419 558 LINE",
"425 558 OFFCURVE",
"437 559 OFFCURVE",
"445 559 CURVE SMOOTH",
"472 559 OFFCURVE",
"478 548 OFFCURVE",
"473 508 CURVE",
"430 162 LINE SMOOTH",
"423 108 OFFCURVE",
"403 87 OFFCURVE",
"357 86 CURVE",
"339 -1 LINE",
"390 -1 OFFCURVE",
"470 0 OFFCURVE",
"503 0 CURVE SMOOTH",
"552 0 LINE SMOOTH",
"621 -1 OFFCURVE",
"653 -2 OFFCURVE",
"671 -2 CURVE"
);
}
);
width = 716;
}
);
leftKerningGroup = H;
rightKerningGroup = H;
unicode = 0048;
},
{
color = 0;
glyphname = Hbar;
layers = (
{
components = (
{
name = H;
}
);
layerId = UUID0;
paths = (
{
closed = 1;
nodes = (
"274 495 OFFCURVE",
"67 496 OFFCURVE",
"67 496 CURVE",
"60 457 LINE",
"69 448 LINE",
"69 448 OFFCURVE",
"251 449 OFFCURVE",
"392 449 CURVE SMOOTH",
"721 450 LINE",
"725 487 LINE",
"712 500 LINE",
"712 500 OFFCURVE",
"534 495 OFFCURVE",
"414 495 CURVE SMOOTH"
);
}
);
width = 723;
},
{
components = (
{
name = H;
}
);
layerId = UUID1;
paths = (
{
closed = 1;
nodes = (
"257 503 OFFCURVE",
"23 504 OFFCURVE",
"23 504 CURVE",
"15 446 LINE",
"26 436 LINE",
"26 436 OFFCURVE",
"230 437 OFFCURVE",
"396 437 CURVE SMOOTH",
"763 438 LINE",
"768 493 LINE",
"753 508 LINE",
"753 508 OFFCURVE",
"563 503 OFFCURVE",
"422 503 CURVE SMOOTH"
);
}
);
width = 716;
}
);
leftKerningGroup = H;
rightKerningGroup = H;
unicode = 0126;
},
{
color = 1;
glyphname = I;
layers = (
{
anchors = (
{
name = bottom;
position = "{145, 0}";
},
{
name = ogonek;
position = "{242, 33}";
},
{
name = top;
position = "{230, 636}";
},
{
name = topleft;
position = "{70, 636}";
}
);
background = {
paths = (
{
closed = 1;
nodes = (
"262 584 OFFCURVE",
"278 596 OFFCURVE",
"332 603 CURVE",
"342 646 LINE",
"342 646 OFFCURVE",
"276 636 OFFCURVE",
"232 636 CURVE SMOOTH",
"193 636 OFFCURVE",
"117 640 OFFCURVE",
"119 640 CURVE",
"107 597 LINE",
"107 596 OFFCURVE",
"108 595 OFFCURVE",
"108 594 CURVE SMOOTH",
"108 594 OFFCURVE",
"135 596 OFFCURVE",
"149 596 CURVE SMOOTH",
"178 596 OFFCURVE",
"183 584 OFFCURVE",
"178 542 CURVE SMOOTH",
"126 118 LINE SMOOTH",
"119 62 OFFCURVE",
"99 43 OFFCURVE",
"38 31 CURVE",
"26 -12 LINE",
"26 -12 OFFCURVE",
"89 0 OFFCURVE",
"137 0 CURVE SMOOTH",
"183 0 OFFCURVE",
"262 -3 OFFCURVE",
"262 -3 CURVE",
"276 41 LINE",
"274 45 LINE",
"274 45 OFFCURVE",
"246 42 OFFCURVE",
"223 42 CURVE SMOOTH",
"197 42 OFFCURVE",
"186 52 OFFCURVE",
"186 85 CURVE SMOOTH",
"186 127 OFFCURVE",
"225 366 OFFCURVE",
"256 546 CURVE SMOOTH"
);
}
);
};
layerId = UUID0;
paths = (
{
closed = 1;
nodes = (
"262 584 OFFCURVE",
"278 596 OFFCURVE",
"332 603 CURVE",
"342 646 LINE",
"342 646 OFFCURVE",
"276 636 OFFCURVE",
"232 636 CURVE SMOOTH",
"193 636 OFFCURVE",
"117 640 OFFCURVE",
"119 640 CURVE",
"107 597 LINE",
"107 596 OFFCURVE",
"108 595 OFFCURVE",
"108 594 CURVE SMOOTH",
"108 594 OFFCURVE",
"135 596 OFFCURVE",
"149 596 CURVE SMOOTH",
"178 596 OFFCURVE",
"183 584 OFFCURVE",
"178 542 CURVE SMOOTH",
"126 118 LINE SMOOTH",
"119 62 OFFCURVE",
"99 43 OFFCURVE",
"38 31 CURVE",
"26 -12 LINE",
"26 -12 OFFCURVE",
"89 0 OFFCURVE",
"137 0 CURVE SMOOTH",
"183 0 OFFCURVE",
"262 -3 OFFCURVE",
"262 -3 CURVE",
"276 41 LINE",
"274 45 LINE",
"274 45 OFFCURVE",
"246 42 OFFCURVE",
"223 42 CURVE SMOOTH",
"197 42 OFFCURVE",
"186 52 OFFCURVE",
"186 85 CURVE SMOOTH",
"186 127 OFFCURVE",
"225 366 OFFCURVE",
"256 546 CURVE SMOOTH"
);
}
);
width = 346;
},
{
anchors = (
{
name = bottom;
position = "{151, 0}";
},
{
name = ogonek;
position = "{264, 40}";
},
{
name = top;
position = "{240, 647}";
},
{
name = topleft;
position = "{70, 647}";
}
);
background = {
paths = (
{
closed = 1;
nodes = (
"331 547 OFFCURVE",
"339 555 OFFCURVE",
"384 562 CURVE",
"402 652 LINE",
"402 652 OFFCURVE",
"273 647 OFFCURVE",
"232 647 CURVE SMOOTH",
"179 647 OFFCURVE",
"129 647 OFFCURVE",
"73 647 CURVE",
"56 572 LINE",
"59 567 OFFCURVE",
"61 563 OFFCURVE",
"64 558 CURVE SMOOTH",
"64 558 OFFCURVE",
"78 559 OFFCURVE",
"88 559 CURVE SMOOTH",
"115 559 OFFCURVE",
"121 549 OFFCURVE",
"116 508 CURVE SMOOTH",
"73 162 LINE SMOOTH",
"67 107 OFFCURVE",
"55 92 OFFCURVE",
"1 80 CURVE",
"-17 -5 LINE",
"-17 -5 OFFCURVE",
"85 0 OFFCURVE",
"147 0 CURVE SMOOTH",
"188 0 OFFCURVE",
"310 -4 OFFCURVE",
"310 -4 CURVE",
"329 80 LINE",
"323 90 LINE",
"323 90 OFFCURVE",
"312 87 OFFCURVE",
"292 87 CURVE SMOOTH",
"274 87 OFFCURVE",
"267 95 OFFCURVE",
"267 125 CURVE SMOOTH",
"267 164 OFFCURVE",
"306 416 OFFCURVE",
"323 510 CURVE SMOOTH"
);
}
);
};
layerId = UUID1;
paths = (
{
closed = 1;
nodes = (
"331 547 OFFCURVE",
"339 555 OFFCURVE",
"384 562 CURVE",
"402 652 LINE",
"402 652 OFFCURVE",
"273 647 OFFCURVE",
"232 647 CURVE SMOOTH",
"179 647 OFFCURVE",
"129 647 OFFCURVE",
"73 647 CURVE",
"56 572 LINE",
"59 567 OFFCURVE",
"61 563 OFFCURVE",
"64 558 CURVE SMOOTH",
"64 558 OFFCURVE",
"78 559 OFFCURVE",
"88 559 CURVE SMOOTH",
"115 559 OFFCURVE",
"121 549 OFFCURVE",
"116 508 CURVE SMOOTH",
"73 162 LINE SMOOTH",
"67 107 OFFCURVE",
"55 92 OFFCURVE",
"1 80 CURVE",
"-17 -5 LINE",
"-17 -5 OFFCURVE",
"85 0 OFFCURVE",
"147 0 CURVE SMOOTH",
"188 0 OFFCURVE",
"310 -4 OFFCURVE",
"310 -4 CURVE",
"329 80 LINE",
"323 90 LINE",
"323 90 OFFCURVE",
"312 87 OFFCURVE",
"292 87 CURVE SMOOTH",
"274 87 OFFCURVE",
"267 95 OFFCURVE",
"267 125 CURVE SMOOTH",
"267 164 OFFCURVE",
"306 416 OFFCURVE",
"323 510 CURVE SMOOTH"
);
}
);
width = 359;
}
);
leftKerningGroup = H;
rightKerningGroup = H;
unicode = 0049;
},
{
color = 1;
glyphname = J;
layers = (
{
anchors = (
{
name = bottom;
position = "{143, 0}";
},
{
name = top;
position = "{168, 647}";
}
);
background = {
paths = (
{
closed = 1;
nodes = (
"114 114 LINE SMOOTH",
"100 -5 OFFCURVE",
"71 -55 OFFCURVE",
"-13 -103 CURVE",
"-16 -111 LINE",
"-4 -143 LINE",
"107 -97 OFFCURVE",
"163 -19 OFFCURVE",
"180 118 CURVE SMOOTH",
"191 197 OFFCURVE",
"230 457 OFFCURVE",
"245 546 CURVE SMOOTH",
"252 588 OFFCURVE",
"261 596 OFFCURVE",
"308 603 CURVE",
"316 645 LINE",
"316 645 OFFCURVE",
"245 636 OFFCURVE",
"206 636 CURVE SMOOTH",
"103 636 LINE",
"92 594 LINE",
"92 591 LINE",
"92 591 OFFCURVE",
"127 595 OFFCURVE",
"139 595 CURVE SMOOTH",
"167 595 OFFCURVE",
"173 585 OFFCURVE",
"168 542 CURVE SMOOTH"
);
}
);
};
layerId = UUID0;
paths = (
{
closed = 1;
nodes = (
"114 114 LINE SMOOTH",
"100 -5 OFFCURVE",
"71 -55 OFFCURVE",
"-13 -103 CURVE",
"-16 -111 LINE",
"-4 -143 LINE",
"107 -97 OFFCURVE",
"163 -19 OFFCURVE",
"180 118 CURVE SMOOTH",
"191 197 OFFCURVE",
"230 457 OFFCURVE",
"245 546 CURVE SMOOTH",
"252 588 OFFCURVE",
"261 596 OFFCURVE",
"308 603 CURVE",
"316 645 LINE",
"316 645 OFFCURVE",
"245 636 OFFCURVE",
"206 636 CURVE SMOOTH",
"103 636 LINE",
"92 594 LINE",
"92 591 LINE",
"92 591 OFFCURVE",
"127 595 OFFCURVE",
"139 595 CURVE SMOOTH",
"167 595 OFFCURVE",
"173 585 OFFCURVE",
"168 542 CURVE SMOOTH"
);
}
);
width = 313;
},
{
anchors = (
{
name = bottom;
position = "{143, 0}";
},
{
name = top;
position = "{168, 647}";
}
);
background = {
paths = (
{
closed = 1;
nodes = (
"62 132 LINE SMOOTH",
"44 2 OFFCURVE",
"21 -39 OFFCURVE",
"-66 -101 CURVE",
"-70 -116 LINE",
"-35 -164 LINE",
"147 -120 OFFCURVE",
"234 -43 OFFCURVE",
"252 85 CURVE SMOOTH",
"269 222 OFFCURVE",
"298 418 OFFCURVE",
"316 510 CURVE SMOOTH",
"323 547 OFFCURVE",
"329 553 OFFCURVE",
"367 562 CURVE",
"387 655 LINE",
"387 655 OFFCURVE",
"295 649 OFFCURVE",
"198 648 CURVE SMOOTH",
"59 647 LINE",
"42 571 LINE",
"49 557 LINE",
"49 557 OFFCURVE",
"69 559 OFFCURVE",
"84 559 CURVE SMOOTH",
"109 559 OFFCURVE",
"113 549 OFFCURVE",
"108 508 CURVE SMOOTH"
);
}
);
};
layerId = UUID1;
paths = (
{
closed = 1;
nodes = (
"62 132 LINE SMOOTH",
"44 2 OFFCURVE",
"21 -39 OFFCURVE",
"-66 -101 CURVE",
"-70 -116 LINE",
"-35 -164 LINE",
"147 -120 OFFCURVE",
"234 -43 OFFCURVE",
"252 85 CURVE SMOOTH",
"269 222 OFFCURVE",
"298 418 OFFCURVE",
"316 510 CURVE SMOOTH",
"323 547 OFFCURVE",
"329 553 OFFCURVE",
"367 562 CURVE",
"387 655 LINE",
"387 655 OFFCURVE",
"295 649 OFFCURVE",
"198 648 CURVE SMOOTH",
"59 647 LINE",
"42 571 LINE",
"49 557 LINE",
"49 557 OFFCURVE",
"69 559 OFFCURVE",
"84 559 CURVE SMOOTH",
"109 559 OFFCURVE",
"113 549 OFFCURVE",
"108 508 CURVE SMOOTH"
);
}
);
width = 329;
}
);
leftKerningGroup = J;
rightKerningGroup = J;
unicode = 004A;
},
{
color = 1;
glyphname = K;
layers = (
{
anchors = (
{
name = bottom;
position = "{372, 0}";
},
{
name = top;
position = "{373, 647}";
}
);
background = {
paths = (
{
closed = 1;
nodes = (
"126 118 LINE SMOOTH",
"119 61 OFFCURVE",
"104 48 OFFCURVE",
"43 42 CURVE",
"28 -1 LINE",
"28 -1 OFFCURVE",
"90 0 OFFCURVE",
"137 0 CURVE SMOOTH",
"180 0 OFFCURVE",
"254 -3 OFFCURVE",
"254 -3 CURVE",
"269 41 LINE",
"267 45 LINE",
"267 45 OFFCURVE",
"242 42 OFFCURVE",
"223 42 CURVE SMOOTH",
"189 42 OFFCURVE",
"180 56 OFFCURVE",
"188 109 CURVE SMOOTH",
"253 543 LINE SMOOTH",
"259 581 OFFCURVE",
"276 596 OFFCURVE",
"325 603 CURVE",
"333 646 LINE",
"333 646 OFFCURVE",
"273 636 OFFCURVE",
"232 636 CURVE SMOOTH",
"195 636 OFFCURVE",
"127 640 OFFCURVE",
"127 640 CURVE",
"115 597 LINE",
"117 594 LINE",
"117 594 OFFCURVE",
"138 596 OFFCURVE",
"149 596 CURVE SMOOTH",
"178 596 OFFCURVE",
"183 585 OFFCURVE",
"178 542 CURVE SMOOTH"
);
},
{
closed = 1;
nodes = (
"242 315 LINE",
"382 72 LINE SMOOTH",
"413 19 OFFCURVE",
"448 -14 OFFCURVE",
"479 -14 CURVE SMOOTH",
"489 -14 OFFCURVE",
"558 -2 OFFCURVE",
"558 -2 CURVE",
"567 30 LINE",
"564 33 LINE",
"519 33 OFFCURVE",
"490 56 OFFCURVE",
"451 118 CURVE SMOOTH",
"315 339 LINE",
"493 513 LINE SMOOTH",
"559 575 OFFCURVE",
"580 589 OFFCURVE",
"614 595 CURVE",
"624 634 LINE",
"622 640 LINE",
"622 640 OFFCURVE",
"572 636 OFFCURVE",
"535 636 CURVE SMOOTH",
"499 636 OFFCURVE",
"431 644 OFFCURVE",
"431 644 CURVE",
"419 603 LINE",
"421 599 LINE",
"460 596 OFFCURVE",
"478 587 OFFCURVE",
"478 571 CURVE SMOOTH",
"478 557 OFFCURVE",
"467 541 OFFCURVE",
"442 517 CURVE SMOOTH",
"244 328 LINE"
);
}
);
};
layerId = UUID0;
paths = (
{
closed = 1;
nodes = (
"126 118 LINE SMOOTH",
"119 61 OFFCURVE",
"104 48 OFFCURVE",
"43 42 CURVE",
"28 -1 LINE",
"28 -1 OFFCURVE",
"90 0 OFFCURVE",
"137 0 CURVE SMOOTH",
"180 0 OFFCURVE",
"254 -3 OFFCURVE",
"254 -3 CURVE",
"269 41 LINE",
"267 45 LINE",
"267 45 OFFCURVE",
"242 42 OFFCURVE",
"223 42 CURVE SMOOTH",
"189 42 OFFCURVE",
"180 56 OFFCURVE",
"188 109 CURVE SMOOTH",
"253 543 LINE SMOOTH",
"259 581 OFFCURVE",
"276 596 OFFCURVE",
"325 603 CURVE",
"333 646 LINE",
"333 646 OFFCURVE",
"273 636 OFFCURVE",
"232 636 CURVE SMOOTH",
"195 636 OFFCURVE",
"127 640 OFFCURVE",
"127 640 CURVE",
"115 597 LINE",
"117 594 LINE",
"117 594 OFFCURVE",
"138 596 OFFCURVE",
"149 596 CURVE SMOOTH",
"178 596 OFFCURVE",
"183 585 OFFCURVE",
"178 542 CURVE SMOOTH"
);
},
{
closed = 1;
nodes = (
"242 315 LINE",
"382 72 LINE SMOOTH",
"413 19 OFFCURVE",
"448 -14 OFFCURVE",
"479 -14 CURVE SMOOTH",
"489 -14 OFFCURVE",
"553 -2 OFFCURVE",
"553 -2 CURVE",
"562 30 LINE",
"559 33 LINE",
"514 33 OFFCURVE",
"485 56 OFFCURVE",
"446 118 CURVE SMOOTH",
"310 336 LINE",
"493 510 LINE SMOOTH",
"559 572 OFFCURVE",
"580 589 OFFCURVE",
"614 595 CURVE",
"624 634 LINE",
"622 640 LINE",
"622 640 OFFCURVE",
"572 636 OFFCURVE",
"535 636 CURVE SMOOTH",
"499 636 OFFCURVE",
"431 644 OFFCURVE",
"431 644 CURVE",
"419 603 LINE",
"421 599 LINE",
"460 596 OFFCURVE",
"478 587 OFFCURVE",
"478 571 CURVE SMOOTH",
"478 557 OFFCURVE",
"467 541 OFFCURVE",
"442 517 CURVE SMOOTH",
"244 328 LINE"
);
}
);
width = 601;
},
{
anchors = (
{
name = bottom;
position = "{372, 0}";
},
{
name = top;
position = "{373, 647}";
}
);
background = {
paths = (
{
closed = 1;
nodes = (
"73 162 LINE SMOOTH",
"67 106 OFFCURVE",
"53 91 OFFCURVE",
"1 80 CURVE",
"-17 -5 LINE",
"-17 -5 OFFCURVE",
"85 0 OFFCURVE",
"147 0 CURVE SMOOTH",
"188 0 OFFCURVE",
"311 -4 OFFCURVE",
"311 -4 CURVE",
"330 80 LINE",
"323 90 LINE",
"323 90 OFFCURVE",
"313 87 OFFCURVE",
"292 87 CURVE SMOOTH",
"267 87 OFFCURVE",
"263 101 OFFCURVE",
"270 156 CURVE SMOOTH",
"320 506 LINE SMOOTH",
"323 539 OFFCURVE",
"334 549 OFFCURVE",
"385 562 CURVE",
"403 652 LINE",
"403 652 OFFCURVE",
"273 647 OFFCURVE",
"232 647 CURVE SMOOTH",
"215 647 OFFCURVE",
"74 648 OFFCURVE",
"74 648 CURVE",
"56 572 LINE",
"63 558 LINE",
"63 558 OFFCURVE",
"78 559 OFFCURVE",
"88 559 CURVE SMOOTH",
"115 559 OFFCURVE",
"121 549 OFFCURVE",
"116 508 CURVE SMOOTH"
);
},
{
closed = 1;
nodes = (
"298 317 LINE",
"387 65 LINE SMOOTH",
"409 4 OFFCURVE",
"432 -16 OFFCURVE",
"483 -16 CURVE SMOOTH",
"508 -16 OFFCURVE",
"637 -5 OFFCURVE",
"637 -5 CURVE",
"657 69 LINE",
"648 84 LINE",
"610 90 OFFCURVE",
"587 115 OFFCURVE",
"566 174 CURVE SMOOTH",
"501 356 LINE",
"561 435 LINE SMOOTH",
"608 495 OFFCURVE",
"647 530 OFFCURVE",
"705 562 CURVE",
"723 637 LINE",
"716 652 LINE",
"716 652 OFFCURVE",
"608 647 OFFCURVE",
"573 647 CURVE SMOOTH",
"528 647 OFFCURVE",
"433 650 OFFCURVE",
"433 650 CURVE",
"414 568 LINE",
"419 558 LINE",
"445 556 OFFCURVE",
"454 549 OFFCURVE",
"454 532 CURVE SMOOTH",
"454 518 OFFCURVE",
"440 493 OFFCURVE",
"420 472 CURVE SMOOTH",
"307 347 LINE"
);
}
);
};
layerId = UUID1;
paths = (
{
closed = 1;
nodes = (
"73 162 LINE SMOOTH",
"67 106 OFFCURVE",
"53 91 OFFCURVE",
"1 80 CURVE",
"-17 -5 LINE",
"-17 -5 OFFCURVE",
"85 0 OFFCURVE",
"147 0 CURVE SMOOTH",
"188 0 OFFCURVE",
"311 -4 OFFCURVE",
"311 -4 CURVE",
"330 80 LINE",
"323 90 LINE",
"323 90 OFFCURVE",
"313 87 OFFCURVE",
"292 87 CURVE SMOOTH",
"267 87 OFFCURVE",
"263 101 OFFCURVE",
"270 156 CURVE SMOOTH",
"320 506 LINE SMOOTH",
"323 539 OFFCURVE",
"334 549 OFFCURVE",
"385 562 CURVE",
"403 652 LINE",
"403 652 OFFCURVE",
"273 647 OFFCURVE",
"232 647 CURVE SMOOTH",
"215 647 OFFCURVE",
"74 648 OFFCURVE",
"74 648 CURVE",
"56 572 LINE",
"63 558 LINE",
"63 558 OFFCURVE",
"78 559 OFFCURVE",
"88 559 CURVE SMOOTH",
"115 559 OFFCURVE",
"121 549 OFFCURVE",
"116 508 CURVE SMOOTH"
);
},
{
closed = 1;
nodes = (
"298 317 LINE",
"387 65 LINE SMOOTH",
"409 4 OFFCURVE",
"432 -16 OFFCURVE",
"483 -16 CURVE SMOOTH",
"508 -16 OFFCURVE",
"637 -5 OFFCURVE",
"637 -5 CURVE",
"657 69 LINE",
"648 84 LINE",
"610 90 OFFCURVE",
"587 115 OFFCURVE",
"566 174 CURVE SMOOTH",
"501 356 LINE",
"561 435 LINE SMOOTH",
"608 495 OFFCURVE",
"647 530 OFFCURVE",
"705 562 CURVE",
"723 637 LINE",
"716 652 LINE",
"716 652 OFFCURVE",
"608 647 OFFCURVE",
"573 647 CURVE SMOOTH",
"528 647 OFFCURVE",
"433 650 OFFCURVE",
"433 650 CURVE",
"414 568 LINE",
"419 558 LINE",
"445 556 OFFCURVE",
"454 549 OFFCURVE",
"454 532 CURVE SMOOTH",
"454 518 OFFCURVE",
"440 493 OFFCURVE",
"420 472 CURVE SMOOTH",
"307 347 LINE"
);
}
);
width = 676;
}
);
leftKerningGroup = H;
rightKerningGroup = X;
unicode = 004B;
},
{
color = 1;
glyphname = L;
layers = (
{
anchors = (
{
name = bottom;
position = "{255, 0}";
},
{
name = center;
position = "{254, 318}";
},
{
name = top;
position = "{233, 636}";
},
{
name = topright;
position = "{515, 636}";
}
);
background = {
paths = (
{
closed = 1;
nodes = (
"256 0 OFFCURVE",
"422 -9 OFFCURVE",
"422 -9 CURVE",
"427 -4 LINE",
"450 93 OFFCURVE",
"478 182 OFFCURVE",
"478 182 CURVE",
"478 183 OFFCURVE",
"477 185 OFFCURVE",
"477 186 CURVE",
"435 182 LINE",
"400 59 OFFCURVE",
"377 41 OFFCURVE",
"264 41 CURVE SMOOTH",
"202 41 OFFCURVE",
"188 50 OFFCURVE",
"188 91 CURVE SMOOTH",
"188 124 OFFCURVE",
"229 396 OFFCURVE",
"250 508 CURVE SMOOTH",
"266 591 OFFCURVE",
"269 595 OFFCURVE",
"325 604 CURVE",
"333 646 LINE",
"333 646 OFFCURVE",
"274 636 OFFCURVE",
"233 636 CURVE SMOOTH",
"197 636 OFFCURVE",
"126 640 OFFCURVE",
"127 640 CURVE",
"115 597 LINE",
"115 596 OFFCURVE",
"116 595 OFFCURVE",
"116 594 CURVE SMOOTH",
"116 594 OFFCURVE",
"138 596 OFFCURVE",
"149 596 CURVE SMOOTH",
"176 596 OFFCURVE",
"183 586 OFFCURVE",
"178 542 CURVE SMOOTH",
"125 117 LINE SMOOTH",
"118 60 OFFCURVE",
"100 41 OFFCURVE",
"50 33 CURVE",
"38 -10 LINE",
"38 -10 OFFCURVE",
"95 0 OFFCURVE",
"167 0 CURVE SMOOTH"
);
}
);
};
layerId = UUID0;
paths = (
{
closed = 1;
nodes = (
"256 0 OFFCURVE",
"422 -9 OFFCURVE",
"422 -9 CURVE",
"427 -4 LINE",
"450 93 OFFCURVE",
"478 182 OFFCURVE",
"478 182 CURVE",
"478 183 OFFCURVE",
"477 185 OFFCURVE",
"477 186 CURVE",
"435 182 LINE",
"400 59 OFFCURVE",
"377 41 OFFCURVE",
"264 41 CURVE SMOOTH",
"202 41 OFFCURVE",
"188 50 OFFCURVE",
"188 91 CURVE SMOOTH",
"188 124 OFFCURVE",
"229 396 OFFCURVE",
"250 508 CURVE SMOOTH",
"266 591 OFFCURVE",
"269 595 OFFCURVE",
"325 604 CURVE",
"333 646 LINE",
"333 646 OFFCURVE",
"274 636 OFFCURVE",
"233 636 CURVE SMOOTH",
"197 636 OFFCURVE",
"126 640 OFFCURVE",
"127 640 CURVE",
"115 597 LINE",
"115 596 OFFCURVE",
"116 595 OFFCURVE",
"116 594 CURVE SMOOTH",
"116 594 OFFCURVE",
"138 596 OFFCURVE",
"149 596 CURVE SMOOTH",
"176 596 OFFCURVE",
"183 586 OFFCURVE",
"178 542 CURVE SMOOTH",
"125 117 LINE SMOOTH",
"118 60 OFFCURVE",
"100 41 OFFCURVE",
"50 33 CURVE",
"38 -10 LINE",
"38 -10 OFFCURVE",
"95 0 OFFCURVE",
"167 0 CURVE SMOOTH"
);
}
);
width = 485;
},
{
anchors = (
{
name = bottom;
position = "{243, 0}";
},
{
name = center;
position = "{283, 324}";
},
{
name = top;
position = "{252, 647}";
},
{
name = topright;
position = "{573, 647}";
}
);
background = {
paths = (
{
closed = 1;
nodes = (
"331 0 OFFCURVE",
"475 -7 OFFCURVE",
"475 -7 CURVE",
"492 9 LINE",
"518 148 OFFCURVE",
"548 276 OFFCURVE",
"548 276 CURVE",
"545 281 OFFCURVE",
"541 286 OFFCURVE",
"538 291 CURVE",
"408 278 LINE",
"385 144 OFFCURVE",
"364 115 OFFCURVE",
"298 115 CURVE SMOOTH",
"278 115 OFFCURVE",
"269 124 OFFCURVE",
"269 147 CURVE SMOOTH",
"269 187 OFFCURVE",
"305 412 OFFCURVE",
"321 502 CURVE SMOOTH",
"327 537 OFFCURVE",
"346 547 OFFCURVE",
"414 554 CURVE",
"437 652 LINE",
"437 652 OFFCURVE",
"278 647 OFFCURVE",
"231 647 CURVE SMOOTH",
"178 647 OFFCURVE",
"127 647 OFFCURVE",
"72 647 CURVE",
"55 572 LINE",
"57 567 OFFCURVE",
"60 563 OFFCURVE",
"62 558 CURVE SMOOTH",
"62 558 OFFCURVE",
"77 559 OFFCURVE",
"87 559 CURVE SMOOTH",
"114 559 OFFCURVE",
"120 549 OFFCURVE",
"115 508 CURVE SMOOTH",
"73 170 LINE SMOOTH",
"66 110 OFFCURVE",
"49 90 OFFCURVE",
"0 82 CURVE",
"-20 -10 LINE",
"-20 -10 OFFCURVE",
"88 0 OFFCURVE",
"189 0 CURVE SMOOTH"
);
}
);
};
layerId = UUID1;
paths = (
{
closed = 1;
nodes = (
"331 0 OFFCURVE",
"475 -7 OFFCURVE",
"475 -7 CURVE",
"492 9 LINE",
"518 148 OFFCURVE",
"548 276 OFFCURVE",
"548 276 CURVE",
"545 281 OFFCURVE",
"541 286 OFFCURVE",
"538 291 CURVE",
"408 278 LINE",
"385 144 OFFCURVE",
"364 115 OFFCURVE",
"298 115 CURVE SMOOTH",
"278 115 OFFCURVE",
"269 124 OFFCURVE",
"269 147 CURVE SMOOTH",
"269 187 OFFCURVE",
"305 412 OFFCURVE",
"321 502 CURVE SMOOTH",
"327 537 OFFCURVE",
"346 547 OFFCURVE",
"414 554 CURVE",
"437 652 LINE",
"437 652 OFFCURVE",
"278 647 OFFCURVE",
"231 647 CURVE SMOOTH",
"178 647 OFFCURVE",
"127 647 OFFCURVE",
"72 647 CURVE",
"55 572 LINE",
"57 567 OFFCURVE",
"60 563 OFFCURVE",
"62 558 CURVE SMOOTH",
"62 558 OFFCURVE",
"77 559 OFFCURVE",
"87 559 CURVE SMOOTH",
"114 559 OFFCURVE",
"120 549 OFFCURVE",
"115 508 CURVE SMOOTH",
"73 170 LINE SMOOTH",
"66 110 OFFCURVE",
"49 90 OFFCURVE",
"0 82 CURVE",
"-20 -10 LINE",
"-20 -10 OFFCURVE",
"88 0 OFFCURVE",
"189 0 CURVE SMOOTH"
);
}
);
width = 543;
}
);
leftKerningGroup = H;
rightKerningGroup = L;
unicode = 004C;
},
{
color = 0;
glyphname = Lcaron;
layers = (
{
components = (
{
name = L;
}
);
layerId = UUID0;
paths = (
{
closed = 1;
nodes = (
"510 634 LINE",
"439 620 LINE",
"439 620 OFFCURVE",
"435 512 OFFCURVE",
"418 402 CURVE",
"429 400 LINE",
"455 414 LINE",
"489 516 OFFCURVE",
"516 626 OFFCURVE",
"516 626 CURVE"
);
}
);
width = 488;
},
{
components = (
{
name = L;
}
);
layerId = UUID1;
paths = (
{
closed = 1;
nodes = (
"619 647 LINE",
"483 633 LINE",
"483 633 OFFCURVE",
"480 515 OFFCURVE",
"463 395 CURVE",
"481 389 LINE",
"557 414 LINE",
"597 526 OFFCURVE",
"626 635 OFFCURVE",
"626 635 CURVE"
);
}
);
width = 581;
}
);
leftKerningGroup = H;
rightKerningGroup = L;
unicode = 013D;
},
{
color = 0;
glyphname = Lslash;
layers = (
{
components = (
{
name = L;
}
);
layerId = UUID0;
paths = (
{
closed = 1;
nodes = (
"163 309 LINE",
"384 418 LINE",
"379 449 LINE",
"371 454 LINE",
"163 351 LINE",
"163 357 LINE",
"34 293 LINE",
"39 261 LINE",
"48 258 LINE",
"163 315 LINE"
);
}
);
width = 488;
},
{
components = (
{
name = L;
transform = "{1, 0, 0, 1, 10, 0}";
}
);
layerId = UUID1;
paths = (
{
closed = 1;
nodes = (
"215 268 LINE",
"435 378 LINE",
"404 471 LINE",
"395 475 LINE",
"215 385 LINE",
"215 407 LINE",
"13 306 LINE",
"44 212 LINE",
"54 210 LINE",
"215 290 LINE"
);
}
);
width = 553;
}
);
leftKerningGroup = H;
rightKerningGroup = L;
unicode = 0141;
},
{
color = 1;
glyphname = M;
layers = (
{
anchors = (
{
name = bottom;
position = "{402, 0}";
},
{
name = top;
position = "{418, 647}";
}
);
background = {
paths = (
{
closed = 1;
nodes = (
"374 -13 LINE",
"458 163 OFFCURVE",
"543 342 OFFCURVE",
"628 529 CURVE",
"633 529 LINE",
"633 529 OFFCURVE",
"616 119 OFFCURVE",
"612 85 CURVE SMOOTH",
"608 56 OFFCURVE",
"589 40 OFFCURVE",
"549 35 CURVE",
"540 -8 LINE",
"540 -8 OFFCURVE",
"596 0 OFFCURVE",
"638 0 CURVE SMOOTH",
"673 0 OFFCURVE",
"728 -3 OFFCURVE",
"728 -3 CURVE",
"742 40 LINE",
"742 41 OFFCURVE",
"741 42 OFFCURVE",
"741 43 CURVE SMOOTH",
"741 43 OFFCURVE",
"725 41 OFFCURVE",
"714 41 CURVE SMOOTH",
"683 41 OFFCURVE",
"676 58 OFFCURVE",
"678 137 CURVE SMOOTH",
"681 280 OFFCURVE",
"696 522 OFFCURVE",
"699 549 CURVE SMOOTH",
"702 582 OFFCURVE",
"724 597 OFFCURVE",
"781 604 CURVE",
"790 638 LINE",
"790 639 OFFCURVE",
"789 641 OFFCURVE",
"789 642 CURVE SMOOTH",
"789 642 OFFCURVE",
"712 636 OFFCURVE",
"684 636 CURVE SMOOTH",
"666 636 OFFCURVE",
"623 641 OFFCURVE",
"624 639 CURVE",
"499 343 OFFCURVE",
"400 134 OFFCURVE",
"400 134 CURVE",
"396 134 LINE",
"396 134 OFFCURVE",
"340 341 OFFCURVE",
"286 640 CURVE",
"286 640 OFFCURVE",
"251 636 OFFCURVE",
"223 636 CURVE SMOOTH",
"193 636 OFFCURVE",
"120 641 OFFCURVE",
"120 641 CURVE",
"109 609 LINE",
"111 605 LINE",
"165 601 OFFCURVE",
"189 586 OFFCURVE",
"189 555 CURVE SMOOTH",
"189 532 OFFCURVE",
"114 191 OFFCURVE",
"98 113 CURVE SMOOTH",
"86 59 OFFCURVE",
"68 41 OFFCURVE",
"28 35 CURVE",
"17 -8 LINE",
"17 -8 OFFCURVE",
"61 0 OFFCURVE",
"99 0 CURVE SMOOTH",
"131 0 OFFCURVE",
"191 -4 OFFCURVE",
"191 -4 CURVE",
"205 39 LINE",
"205 40 OFFCURVE",
"204 41 OFFCURVE",
"204 42 CURVE SMOOTH",
"204 42 OFFCURVE",
"174 41 OFFCURVE",
"164 41 CURVE SMOOTH",
"146 41 OFFCURVE",
"138 49 OFFCURVE",
"138 66 CURVE SMOOTH",
"138 86 OFFCURVE",
"227 529 OFFCURVE",
"227 529 CURVE",
"231 529 LINE",
"272 342 OFFCURVE",
"313 159 OFFCURVE",
"353 -19 CURVE"
);
}
);
};
layerId = UUID0;
paths = (
{
closed = 1;
nodes = (
"374 -13 LINE",
"510 273 OFFCURVE",
"570 400 OFFCURVE",
"628 529 CURVE",
"633 529 LINE",
"625 323 OFFCURVE",
"615 108 OFFCURVE",
"612 85 CURVE SMOOTH",
"608 55 OFFCURVE",
"589 40 OFFCURVE",
"549 35 CURVE",
"540 -8 LINE",
"590 -2 OFFCURVE",
"619 0 OFFCURVE",
"638 0 CURVE SMOOTH",
"664 0 OFFCURVE",
"704 -2 OFFCURVE",
"728 -3 CURVE",
"742 40 LINE",
"742 41 OFFCURVE",
"741 42 OFFCURVE",
"741 43 CURVE SMOOTH",
"729 42 OFFCURVE",
"718 41 OFFCURVE",
"714 41 CURVE SMOOTH",
"683 41 OFFCURVE",
"676 59 OFFCURVE",
"678 137 CURVE SMOOTH",
"680 227 OFFCURVE",
"693 492 OFFCURVE",
"699 549 CURVE SMOOTH",
"702 582 OFFCURVE",
"724 597 OFFCURVE",
"781 604 CURVE",
"790 638 LINE",
"790 639 OFFCURVE",
"789 641 OFFCURVE",
"789 642 CURVE SMOOTH",
"756 639 OFFCURVE",
"704 636 OFFCURVE",
"684 636 CURVE SMOOTH",
"666 636 OFFCURVE",
"623 641 OFFCURVE",
"624 639 CURVE",
"538 436 OFFCURVE",
"449 235 OFFCURVE",
"400 134 CURVE",
"396 134 LINE",
"362 255 OFFCURVE",
"316 467 OFFCURVE",
"286 640 CURVE",
"259 638 OFFCURVE",
"235 636 OFFCURVE",
"223 636 CURVE SMOOTH",
"209 636 OFFCURVE",
"175 638 OFFCURVE",
"120 641 CURVE",
"109 609 LINE",
"111 605 LINE",
"165 601 OFFCURVE",
"189 586 OFFCURVE",
"189 555 CURVE SMOOTH",
"189 532 OFFCURVE",
"114 191 OFFCURVE",
"98 113 CURVE SMOOTH",
"86 60 OFFCURVE",
"69 41 OFFCURVE",
"28 35 CURVE",
"17 -8 LINE",
"62 -2 OFFCURVE",
"83 0 OFFCURVE",
"99 0 CURVE SMOOTH",
"116 0 OFFCURVE",
"148 -1 OFFCURVE",
"191 -4 CURVE",
"205 39 LINE",
"205 40 OFFCURVE",
"204 41 OFFCURVE",
"204 42 CURVE SMOOTH",
"191 42 OFFCURVE",
"171 41 OFFCURVE",
"164 41 CURVE SMOOTH",
"146 41 OFFCURVE",
"138 49 OFFCURVE",
"138 66 CURVE SMOOTH",
"138 75 OFFCURVE",
"155 161 OFFCURVE",
"227 529 CURVE",
"231 529 LINE",
"264 380 OFFCURVE",
"299 221 OFFCURVE",
"353 -19 CURVE"
);
}
);
width = 813;
},
{
anchors = (
{
name = bottom;
position = "{402, 0}";
},
{
name = top;
position = "{418, 647}";
}
);
background = {
paths = (
{
closed = 1;
nodes = (
"421 -2 LINE",
"496 195 OFFCURVE",
"564 355 OFFCURVE",
"567 363 CURVE",
"580 363 LINE",
"580 363 OFFCURVE",
"560 177 OFFCURVE",
"554 132 CURVE SMOOTH",
"550 100 OFFCURVE",
"535 87 OFFCURVE",
"499 83 CURVE",
"476 -8 LINE",
"490 -4 OFFCURVE",
"650 0 OFFCURVE",
"668 0 CURVE SMOOTH",
"714 -1 OFFCURVE",
"775 -3 OFFCURVE",
"775 -3 CURVE",
"794 83 LINE",
"792 86 OFFCURVE",
"790 88 OFFCURVE",
"788 91 CURVE SMOOTH",
"788 91 OFFCURVE",
"774 89 OFFCURVE",
"759 89 CURVE SMOOTH",
"730 89 OFFCURVE",
"722 111 OFFCURVE",
"725 176 CURVE SMOOTH",
"728 269 OFFCURVE",
"735 449 OFFCURVE",
"742 510 CURVE SMOOTH",
"747 550 OFFCURVE",
"758 559 OFFCURVE",
"811 561 CURVE",
"830 649 LINE",
"828 650 OFFCURVE",
"825 652 OFFCURVE",
"823 653 CURVE SMOOTH",
"823 653 OFFCURVE",
"780 650 OFFCURVE",
"732 648 CURVE SMOOTH",
"670 644 OFFCURVE",
"610 647 OFFCURVE",
"547 647 CURVE",
"498 502 OFFCURVE",
"431 333 OFFCURVE",
"431 333 CURVE",
"418 333 LINE",
"418 333 OFFCURVE",
"397 502 OFFCURVE",
"390 651 CURVE",
"390 651 OFFCURVE",
"291 647 OFFCURVE",
"236 647 CURVE SMOOTH",
"195 647 OFFCURVE",
"92 652 OFFCURVE",
"92 652 CURVE",
"72 566 LINE",
"79 558 LINE",
"129 553 OFFCURVE",
"134 546 OFFCURVE",
"134 529 CURVE SMOOTH",
"134 503 OFFCURVE",
"64 179 OFFCURVE",
"57 148 CURVE SMOOTH",
"47 104 OFFCURVE",
"30 86 OFFCURVE",
"-6 82 CURVE",
"-25 -8 LINE",
"-25 -7 OFFCURVE",
"52 0 OFFCURVE",
"91 0 CURVE SMOOTH",
"123 0 OFFCURVE",
"231 -4 OFFCURVE",
"231 -4 CURVE",
"254 82 LINE",
"251 85 OFFCURVE",
"249 87 OFFCURVE",
"246 90 CURVE SMOOTH",
"246 90 OFFCURVE",
"228 88 OFFCURVE",
"221 88 CURVE SMOOTH",
"201 88 OFFCURVE",
"193 97 OFFCURVE",
"193 115 CURVE SMOOTH",
"193 128 OFFCURVE",
"226 363 OFFCURVE",
"226 363 CURVE",
"239 363 LINE",
"246 308 OFFCURVE",
"264 200 OFFCURVE",
"293 -12 CURVE"
);
}
);
};
layerId = UUID1;
paths = (
{
closed = 1;
nodes = (
"421 -2 LINE",
"496 195 OFFCURVE",
"564 355 OFFCURVE",
"567 363 CURVE",
"580 363 LINE",
"571 283 OFFCURVE",
"558 165 OFFCURVE",
"554 132 CURVE SMOOTH",
"550 100 OFFCURVE",
"535 87 OFFCURVE",
"499 83 CURVE",
"476 -8 LINE",
"488 -6 OFFCURVE",
"629 0 OFFCURVE",
"668 0 CURVE SMOOTH",
"702 -1 OFFCURVE",
"749 -2 OFFCURVE",
"775 -3 CURVE",
"794 83 LINE",
"792 86 OFFCURVE",
"790 88 OFFCURVE",
"788 91 CURVE SMOOTH",
"778 90 OFFCURVE",
"767 89 OFFCURVE",
"759 89 CURVE SMOOTH",
"730 89 OFFCURVE",
"722 110 OFFCURVE",
"725 176 CURVE SMOOTH",
"730 329 OFFCURVE",
"737 467 OFFCURVE",
"742 510 CURVE SMOOTH",
"747 550 OFFCURVE",
"759 559 OFFCURVE",
"811 561 CURVE",
"830 649 LINE",
"828 650 OFFCURVE",
"825 652 OFFCURVE",
"823 653 CURVE SMOOTH",
"805 652 OFFCURVE",
"767 649 OFFCURVE",
"732 648 CURVE SMOOTH",
"670 644 OFFCURVE",
"610 647 OFFCURVE",
"547 647 CURVE",
"512 546 OFFCURVE",
"463 414 OFFCURVE",
"431 333 CURVE",
"418 333 LINE",
"405 434 OFFCURVE",
"394 564 OFFCURVE",
"390 651 CURVE",
"329 649 OFFCURVE",
"266 647 OFFCURVE",
"236 647 CURVE SMOOTH",
"212 647 OFFCURVE",
"163 649 OFFCURVE",
"92 652 CURVE",
"72 566 LINE",
"79 558 LINE",
"123 554 OFFCURVE",
"134 548 OFFCURVE",
"134 529 CURVE SMOOTH",
"134 512 OFFCURVE",
"82 255 OFFCURVE",
"57 148 CURVE SMOOTH",
"47 104 OFFCURVE",
"30 86 OFFCURVE",
"-6 82 CURVE",
"-25 -8 LINE",
"-25 -6 OFFCURVE",
"63 0 OFFCURVE",
"91 0 CURVE SMOOTH",
"117 0 OFFCURVE",
"188 -2 OFFCURVE",
"231 -4 CURVE",
"254 82 LINE",
"251 85 OFFCURVE",
"249 87 OFFCURVE",
"246 90 CURVE SMOOTH",
"238 89 OFFCURVE",
"226 88 OFFCURVE",
"221 88 CURVE SMOOTH",
"202 88 OFFCURVE",
"193 96 OFFCURVE",
"193 115 CURVE SMOOTH",
"193 120 OFFCURVE",
"196 145 OFFCURVE",
"226 363 CURVE",
"239 363 LINE",
"246 308 OFFCURVE",
"264 200 OFFCURVE",
"293 -12 CURVE"
);
}
);
width = 808;
}
);
leftKerningGroup = M;
rightKerningGroup = M;
unicode = 004D;
},
{
color = 1;
glyphname = N;
layers = (
{
anchors = (
{
name = bottom;
position = "{317, 0}";
},
{
name = top;
position = "{395, 636}";
}
);
background = {
paths = (
{
closed = 1;
nodes = (
"520 134 LINE",
"520 134 OFFCURVE",
"385 377 OFFCURVE",
"255 640 CURVE",
"255 640 OFFCURVE",
"224 636 OFFCURVE",
"193 636 CURVE SMOOTH",
"167 636 OFFCURVE",
"112 641 OFFCURVE",
"112 641 CURVE",
"101 607 LINE SMOOTH",
"101 605 OFFCURVE",
"102 604 OFFCURVE",
"102 602 CURVE",
"166 595 OFFCURVE",
"184 581 OFFCURVE",
"179 541 CURVE",
"112 98 LINE SMOOTH",
"106 57 OFFCURVE",
"85 40 OFFCURVE",
"45 35 CURVE",
"34 -8 LINE",
"34 -8 OFFCURVE",
"86 0 OFFCURVE",
"123 0 CURVE SMOOTH",
"165 0 OFFCURVE",
"223 -4 OFFCURVE",
"223 -4 CURVE",
"237 39 LINE",
"235 42 LINE",
"235 42 OFFCURVE",
"196 42 OFFCURVE",
"186 42 CURVE SMOOTH",
"164 42 OFFCURVE",
"157 51 OFFCURVE",
"161 81 CURVE SMOOTH",
"221 522 LINE",
"225 522 LINE",
"225 522 OFFCURVE",
"366 269 OFFCURVE",
"518 -42 CURVE",
"543 -28 LINE",
"625 538 LINE SMOOTH",
"631 577 OFFCURVE",
"654 595 OFFCURVE",
"699 601 CURVE",
"709 645 LINE",
"709 645 OFFCURVE",
"654 636 OFFCURVE",
"614 636 CURVE SMOOTH",
"582 636 OFFCURVE",
"525 640 OFFCURVE",
"525 640 CURVE",
"511 598 LINE",
"513 594 LINE",
"512 594 OFFCURVE",
"532 595 OFFCURVE",
"549 595 CURVE SMOOTH",
"569 595 OFFCURVE",
"579 581 OFFCURVE",
"576 552 CURVE",
"524 134 LINE"
);
}
);
};
layerId = UUID0;
paths = (
{
closed = 1;
nodes = (
"520 134 LINE",
"520 134 OFFCURVE",
"385 377 OFFCURVE",
"255 640 CURVE",
"255 640 OFFCURVE",
"224 636 OFFCURVE",
"193 636 CURVE SMOOTH",
"167 636 OFFCURVE",
"112 641 OFFCURVE",
"112 641 CURVE",
"101 607 LINE SMOOTH",
"101 605 OFFCURVE",
"102 604 OFFCURVE",
"102 602 CURVE",
"166 595 OFFCURVE",
"184 581 OFFCURVE",
"179 541 CURVE",
"112 98 LINE SMOOTH",
"106 57 OFFCURVE",
"85 40 OFFCURVE",
"45 35 CURVE",
"34 -8 LINE",
"34 -8 OFFCURVE",
"86 0 OFFCURVE",
"123 0 CURVE SMOOTH",
"165 0 OFFCURVE",
"223 -4 OFFCURVE",
"223 -4 CURVE",
"237 39 LINE",
"235 42 LINE",
"235 42 OFFCURVE",
"196 42 OFFCURVE",
"186 42 CURVE SMOOTH",
"164 42 OFFCURVE",
"157 51 OFFCURVE",
"161 81 CURVE SMOOTH",
"221 522 LINE",
"225 522 LINE",
"225 522 OFFCURVE",
"366 269 OFFCURVE",
"518 -42 CURVE",
"543 -28 LINE",
"625 538 LINE SMOOTH",
"631 577 OFFCURVE",
"654 595 OFFCURVE",
"699 601 CURVE",
"709 645 LINE",
"709 645 OFFCURVE",
"654 636 OFFCURVE",
"614 636 CURVE SMOOTH",
"582 636 OFFCURVE",
"525 640 OFFCURVE",
"525 640 CURVE",
"511 598 LINE",
"513 594 LINE",
"512 594 OFFCURVE",
"532 595 OFFCURVE",
"549 595 CURVE SMOOTH",
"569 595 OFFCURVE",
"579 581 OFFCURVE",
"576 552 CURVE",
"524 134 LINE"
);
}
);
width = 689;
},
{
anchors = (
{
name = bottom;
position = "{330, 0}";
},
{
name = top;
position = "{409, 647}";
}
);
background = {
paths = (
{
closed = 1;
nodes = (
"481 333 LINE",
"481 333 OFFCURVE",
"405 489 OFFCURVE",
"341 651 CURVE",
"341 651 OFFCURVE",
"267 647 OFFCURVE",
"213 647 CURVE SMOOTH",
"140 647 OFFCURVE",
"67 652 OFFCURVE",
"67 652 CURVE",
"52 571 LINE SMOOTH",
"55 566 OFFCURVE",
"59 562 OFFCURVE",
"62 557 CURVE",
"122 550 OFFCURVE",
"132 540 OFFCURVE",
"126 494 CURVE",
"72 145 LINE SMOOTH",
"66 105 OFFCURVE",
"48 87 OFFCURVE",
"9 82 CURVE",
"-12 -8 LINE",
"-12 -8 OFFCURVE",
"73 0 OFFCURVE",
"142 0 CURVE SMOOTH",
"183 0 OFFCURVE",
"293 -4 OFFCURVE",
"293 -4 CURVE",
"314 81 LINE",
"306 90 LINE",
"306 90 OFFCURVE",
"285 86 OFFCURVE",
"274 86 CURVE SMOOTH",
"245 86 OFFCURVE",
"238 99 OFFCURVE",
"242 137 CURVE SMOOTH",
"260 315 LINE",
"275 315 LINE",
"275 315 OFFCURVE",
"344 174 OFFCURVE",
"425 -12 CURVE",
"617 0 LINE",
"691 497 LINE SMOOTH",
"697 538 OFFCURVE",
"712 554 OFFCURVE",
"754 560 CURVE",
"770 650 LINE",
"770 649 OFFCURVE",
"688 647 OFFCURVE",
"633 647 CURVE SMOOTH",
"578 647 OFFCURVE",
"469 651 OFFCURVE",
"469 651 CURVE",
"454 570 LINE",
"458 559 LINE",
"468 559 OFFCURVE",
"478 559 OFFCURVE",
"488 559 CURVE SMOOTH",
"511 559 OFFCURVE",
"517 550 OFFCURVE",
"514 516 CURVE",
"496 333 LINE"
);
}
);
};
layerId = UUID1;
paths = (
{
closed = 1;
nodes = (
"481 333 LINE",
"481 333 OFFCURVE",
"405 489 OFFCURVE",
"341 651 CURVE",
"341 651 OFFCURVE",
"267 647 OFFCURVE",
"213 647 CURVE SMOOTH",
"140 647 OFFCURVE",
"67 652 OFFCURVE",
"67 652 CURVE",
"52 571 LINE SMOOTH",
"55 566 OFFCURVE",
"59 562 OFFCURVE",
"62 557 CURVE",
"122 550 OFFCURVE",
"132 540 OFFCURVE",
"126 494 CURVE",
"72 145 LINE SMOOTH",
"66 105 OFFCURVE",
"48 87 OFFCURVE",
"9 82 CURVE",
"-12 -8 LINE",
"-12 -8 OFFCURVE",
"73 0 OFFCURVE",
"142 0 CURVE SMOOTH",
"183 0 OFFCURVE",
"293 -4 OFFCURVE",
"293 -4 CURVE",
"314 81 LINE",
"306 90 LINE",
"306 90 OFFCURVE",
"285 86 OFFCURVE",
"274 86 CURVE SMOOTH",
"245 86 OFFCURVE",
"238 99 OFFCURVE",
"242 137 CURVE SMOOTH",
"260 315 LINE",
"275 315 LINE",
"275 315 OFFCURVE",
"344 174 OFFCURVE",
"425 -12 CURVE",
"617 0 LINE",
"691 497 LINE SMOOTH",
"697 538 OFFCURVE",
"712 554 OFFCURVE",
"754 560 CURVE",
"770 650 LINE",
"770 649 OFFCURVE",
"688 647 OFFCURVE",
"633 647 CURVE SMOOTH",
"578 647 OFFCURVE",
"469 651 OFFCURVE",
"469 651 CURVE",
"454 570 LINE",
"458 559 LINE",
"468 559 OFFCURVE",
"478 559 OFFCURVE",
"488 559 CURVE SMOOTH",
"511 559 OFFCURVE",
"517 550 OFFCURVE",
"514 516 CURVE",
"496 333 LINE"
);
}
);
width = 718;
}
);
leftKerningGroup = H;
rightKerningGroup = H;
unicode = 004E;
},
{
color = 1;
glyphname = Eng;
layers = (
{
background = {
paths = (
{
closed = 1;
nodes = (
"122 637 OFFCURVE",
"62 642 OFFCURVE",
"62 642 CURVE",
"54 605 LINE",
"57 600 LINE",
"127 590 OFFCURVE",
"144 577 OFFCURVE",
"144 538 CURVE SMOOTH",
"132 124 LINE SMOOTH",
"129 60 OFFCURVE",
"115 42 OFFCURVE",
"69 38 CURVE",
"64 -8 LINE",
"64 -8 OFFCURVE",
"111 0 OFFCURVE",
"151 0 CURVE SMOOTH",
"198 0 OFFCURVE",
"263 -4 OFFCURVE",
"263 -4 CURVE",
"272 42 LINE",
"269 46 LINE",
"269 46 OFFCURVE",
"229 44 OFFCURVE",
"219 44 CURVE SMOOTH",
"196 44 OFFCURVE",
"188 54 OFFCURVE",
"188 84 CURVE SMOOTH",
"193 511 LINE",
"198 511 LINE",
"198 511 OFFCURVE",
"356 289 OFFCURVE",
"539 8 CURVE",
"525 -47 OFFCURVE",
"492 -84 OFFCURVE",
"427 -113 CURVE",
"424 -121 LINE",
"441 -154 LINE",
"554 -112 OFFCURVE",
"600 -43 OFFCURVE",
"604 86 CURVE SMOOTH",
"613 536 LINE SMOOTH",
"614 575 OFFCURVE",
"633 593 OFFCURVE",
"681 599 CURVE",
"686 645 LINE",
"686 645 OFFCURVE",
"629 637 OFFCURVE",
"587 637 CURVE SMOOTH",
"554 637 OFFCURVE",
"492 641 OFFCURVE",
"492 641 CURVE",
"483 596 LINE",
"485 592 LINE",
"485 592 OFFCURVE",
"505 593 OFFCURVE",
"523 593 CURVE SMOOTH",
"545 593 OFFCURVE",
"556 579 OFFCURVE",
"556 550 CURVE SMOOTH",
"556 145 LINE",
"551 145 LINE SMOOTH",
"551 145 OFFCURVE",
"356 419 OFFCURVE",
"215 641 CURVE",
"215 641 OFFCURVE",
"157 637 OFFCURVE",
"143 637 CURVE SMOOTH"
);
}
);
};
layerId = UUID0;
paths = (
{
closed = 1;
nodes = (
"168 637 OFFCURVE",
"110 642 OFFCURVE",
"110 642 CURVE",
"98 605 LINE",
"101 600 LINE",
"166 590 OFFCURVE",
"181 577 OFFCURVE",
"176 538 CURVE SMOOTH",
"114 124 LINE SMOOTH",
"103 60 OFFCURVE",
"87 42 OFFCURVE",
"43 38 CURVE",
"32 -8 LINE",
"32 -8 OFFCURVE",
"79 0 OFFCURVE",
"118 0 CURVE SMOOTH",
"164 0 OFFCURVE",
"227 -4 OFFCURVE",
"227 -4 CURVE",
"241 42 LINE",
"239 46 LINE",
"239 46 OFFCURVE",
"200 44 OFFCURVE",
"191 44 CURVE SMOOTH",
"168 44 OFFCURVE",
"162 54 OFFCURVE",
"166 84 CURVE SMOOTH",
"223 511 LINE",
"228 511 LINE",
"228 511 OFFCURVE",
"350 289 OFFCURVE",
"490 8 CURVE",
"467 -47 OFFCURVE",
"429 -84 OFFCURVE",
"358 -113 CURVE",
"354 -121 LINE",
"367 -154 LINE",
"488 -112 OFFCURVE",
"544 -43 OFFCURVE",
"565 86 CURVE SMOOTH",
"629 536 LINE SMOOTH",
"635 575 OFFCURVE",
"655 593 OFFCURVE",
"702 599 CURVE",
"712 645 LINE",
"712 645 OFFCURVE",
"656 637 OFFCURVE",
"615 637 CURVE SMOOTH",
"584 637 OFFCURVE",
"523 641 OFFCURVE",
"523 641 CURVE",
"508 596 LINE",
"510 592 LINE",
"510 592 OFFCURVE",
"529 593 OFFCURVE",
"546 593 CURVE SMOOTH",
"568 593 OFFCURVE",
"576 579 OFFCURVE",
"573 550 CURVE SMOOTH",
"523 145 LINE",
"518 145 LINE SMOOTH",
"518 145 OFFCURVE",
"367 419 OFFCURVE",
"260 641 CURVE",
"260 641 OFFCURVE",
"204 637 OFFCURVE",
"189 637 CURVE SMOOTH"
);
}
);
width = 691;
},
{
background = {
paths = (
{
closed = 1;
nodes = (
"112 647 OFFCURVE",
"19 652 OFFCURVE",
"19 652 CURVE",
"13 571 LINE",
"25 557 LINE",
"89 550 OFFCURVE",
"100 537 OFFCURVE",
"100 494 CURVE SMOOTH",
"88 145 LINE SMOOTH",
"87 105 OFFCURVE",
"70 87 OFFCURVE",
"31 82 CURVE",
"21 -8 LINE",
"21 -8 OFFCURVE",
"104 0 OFFCURVE",
"144 0 CURVE SMOOTH",
"225 0 OFFCURVE",
"329 -4 OFFCURVE",
"329 -4 CURVE",
"340 81 LINE",
"331 90 LINE",
"331 90 OFFCURVE",
"309 86 OFFCURVE",
"297 86 CURVE SMOOTH",
"268 86 OFFCURVE",
"259 99 OFFCURVE",
"258 137 CURVE SMOOTH",
"255 315 LINE",
"270 315 LINE",
"270 315 OFFCURVE",
"359 179 OFFCURVE",
"468 -1 CURVE",
"456 -42 OFFCURVE",
"435 -71 OFFCURVE",
"387 -111 CURVE",
"385 -126 LINE",
"425 -174 LINE",
"591 -128 OFFCURVE",
"661 -49 OFFCURVE",
"665 85 CURVE SMOOTH",
"676 497 LINE SMOOTH",
"677 538 OFFCURVE",
"691 554 OFFCURVE",
"734 560 CURVE",
"739 650 LINE",
"739 650 OFFCURVE",
"650 648 OFFCURVE",
"604 647 CURVE SMOOTH",
"574 647 OFFCURVE",
"434 651 OFFCURVE",
"434 651 CURVE",
"429 569 LINE",
"434 558 LINE",
"434 558 OFFCURVE",
"458 559 OFFCURVE",
"465 559 CURVE SMOOTH",
"489 559 OFFCURVE",
"497 550 OFFCURVE",
"498 516 CURVE SMOOTH",
"502 333 LINE",
"487 333 LINE SMOOTH",
"487 333 OFFCURVE",
"385 489 OFFCURVE",
"295 651 CURVE",
"295 651 OFFCURVE",
"223 647 OFFCURVE",
"169 647 CURVE SMOOTH"
);
}
);
};
layerId = UUID1;
paths = (
{
closed = 1;
nodes = (
"161 647 OFFCURVE",
"71 652 OFFCURVE",
"71 652 CURVE",
"56 575 LINE",
"66 561 LINE",
"125 554 OFFCURVE",
"136 543 OFFCURVE",
"131 499 CURVE SMOOTH",
"76 143 LINE SMOOTH",
"70 102 OFFCURVE",
"52 83 OFFCURVE",
"13 78 CURVE",
"-8 -8 LINE",
"-8 -8 OFFCURVE",
"73 0 OFFCURVE",
"111 0 CURVE SMOOTH",
"190 0 OFFCURVE",
"289 -4 OFFCURVE",
"289 -4 CURVE",
"309 78 LINE",
"302 86 LINE",
"302 86 OFFCURVE",
"279 83 OFFCURVE",
"268 83 CURVE SMOOTH",
"240 83 OFFCURVE",
"232 96 OFFCURVE",
"236 133 CURVE SMOOTH",
"258 331 LINE",
"272 331 LINE",
"272 331 OFFCURVE",
"343 188 OFFCURVE",
"427 0 CURVE",
"407 -46 OFFCURVE",
"372 -82 OFFCURVE",
"321 -108 CURVE",
"317 -123 LINE",
"353 -172 LINE",
"522 -128 OFFCURVE",
"604 -51 OFFCURVE",
"626 85 CURVE SMOOTH",
"687 501 LINE SMOOTH",
"693 542 OFFCURVE",
"709 558 OFFCURVE",
"752 564 CURVE",
"767 651 LINE",
"767 651 OFFCURVE",
"681 648 OFFCURVE",
"636 647 CURVE SMOOTH",
"607 647 OFFCURVE",
"474 651 OFFCURVE",
"474 651 CURVE",
"460 572 LINE",
"463 562 LINE",
"463 562 OFFCURVE",
"487 563 OFFCURVE",
"493 563 CURVE SMOOTH",
"517 563 OFFCURVE",
"524 553 OFFCURVE",
"520 520 CURVE SMOOTH",
"499 318 LINE",
"485 318 LINE SMOOTH",
"485 318 OFFCURVE",
"403 484 OFFCURVE",
"335 651 CURVE",
"335 651 OFFCURVE",
"266 647 OFFCURVE",
"215 647 CURVE SMOOTH"
);
}
);
width = 715;
}
);
leftKerningGroup = H;
rightKerningGroup = J;
unicode = 014A;
},
{
color = 1;
glyphname = O;
layers = (
{
anchors = (
{
name = bottom;
position = "{305, 0}";
},
{
name = center;
position = "{344, 318}";
},
{
name = ogonek;
position = "{402, 10}";
},
{
name = top;
position = "{383, 636}";
},
{
name = topleft;
position = "{70, 636}";
},
{
name = topright;
position = "{695, 636}";
}
);
background = {
paths = (
{
closed = 1;
nodes = (
"200 35 OFFCURVE",
"127 134 OFFCURVE",
"127 285 CURVE SMOOTH",
"127 460 OFFCURVE",
"230 593 OFFCURVE",
"368 593 CURVE SMOOTH",
"482 593 OFFCURVE",
"557 494 OFFCURVE",
"557 343 CURVE SMOOTH",
"557 166 OFFCURVE",
"453 35 OFFCURVE",
"311 35 CURVE SMOOTH"
);
},
{
closed = 1;
nodes = (
"482 -12 OFFCURVE",
"644 165 OFFCURVE",
"644 382 CURVE SMOOTH",
"644 538 OFFCURVE",
"543 648 OFFCURVE",
"397 648 CURVE SMOOTH",
"204 648 OFFCURVE",
"45 470 OFFCURVE",
"45 254 CURVE SMOOTH",
"45 97 OFFCURVE",
"144 -12 OFFCURVE",
"286 -12 CURVE SMOOTH"
);
}
);
};
layerId = UUID0;
paths = (
{
closed = 1;
nodes = (
"490 -12 OFFCURVE",
"644 163 OFFCURVE",
"644 382 CURVE SMOOTH",
"644 536 OFFCURVE",
"535 648 OFFCURVE",
"387 648 CURVE SMOOTH",
"197 648 OFFCURVE",
"45 473 OFFCURVE",
"45 254 CURVE SMOOTH",
"45 100 OFFCURVE",
"151 -12 OFFCURVE",
"296 -12 CURVE SMOOTH"
);
},
{
closed = 1;
nodes = (
"200 35 OFFCURVE",
"127 134 OFFCURVE",
"127 285 CURVE SMOOTH",
"127 461 OFFCURVE",
"231 593 OFFCURVE",
"368 593 CURVE SMOOTH",
"482 593 OFFCURVE",
"557 494 OFFCURVE",
"557 343 CURVE SMOOTH",
"557 166 OFFCURVE",
"453 35 OFFCURVE",
"311 35 CURVE SMOOTH"
);
}
);
width = 665;
},
{
anchors = (
{
name = bottom;
position = "{288, 0}";
},
{
name = center;
position = "{328, 324}";
},
{
name = ogonek;
position = "{441, 40}";
},
{
name = top;
position = "{367, 647}";
},
{
name = topleft;
position = "{70, 647}";
},
{
name = topright;
position = "{663, 647}";
}
);
background = {
paths = (
{
closed = 1;
nodes = (
"267 114 OFFCURVE",
"247 152 OFFCURVE",
"247 234 CURVE SMOOTH",
"247 438 OFFCURVE",
"275 522 OFFCURVE",
"342 522 CURVE SMOOTH",
"386 522 OFFCURVE",
"407 484 OFFCURVE",
"407 402 CURVE SMOOTH",
"407 197 OFFCURVE",
"379 114 OFFCURVE",
"310 114 CURVE SMOOTH"
);
},
{
closed = 1;
nodes = (
"512 -12 OFFCURVE",
"638 141 OFFCURVE",
"638 398 CURVE SMOOTH",
"638 571 OFFCURVE",
"541 659 OFFCURVE",
"372 659 CURVE SMOOTH",
"140 659 OFFCURVE",
"18 513 OFFCURVE",
"18 256 CURVE SMOOTH",
"18 82 OFFCURVE",
"118 -12 OFFCURVE",
"283 -12 CURVE SMOOTH"
);
}
);
};
layerId = UUID1;
paths = (
{
closed = 1;
nodes = (
"512 -12 OFFCURVE",
"638 141 OFFCURVE",
"638 398 CURVE SMOOTH",
"638 571 OFFCURVE",
"541 659 OFFCURVE",
"372 659 CURVE SMOOTH",
"140 659 OFFCURVE",
"18 513 OFFCURVE",
"18 256 CURVE SMOOTH",
"18 82 OFFCURVE",
"118 -12 OFFCURVE",
"283 -12 CURVE SMOOTH"
);
},
{
closed = 1;
nodes = (
"267 114 OFFCURVE",
"247 152 OFFCURVE",
"247 234 CURVE SMOOTH",
"247 438 OFFCURVE",
"275 522 OFFCURVE",
"342 522 CURVE SMOOTH",
"386 522 OFFCURVE",
"407 484 OFFCURVE",
"407 402 CURVE SMOOTH",
"407 197 OFFCURVE",
"379 114 OFFCURVE",
"310 114 CURVE SMOOTH"
);
}
);
width = 633;
}
);
leftKerningGroup = O;
rightKerningGroup = O;
unicode = 004F;
},
{
color = 1;
glyphname = Ohorn;
layers = (
{
anchors = (
{
name = bottom;
position = "{286, 0}";
},
{
name = top;
position = "{295, 647}";
}
);
layerId = UUID0;
paths = (
{
closed = 1;
nodes = (
"611 734 LINE",
"625 718 OFFCURVE",
"633 693 OFFCURVE",
"633 672 CURVE SMOOTH",
"633 635 OFFCURVE",
"601 615 OFFCURVE",
"560 615 CURVE SMOOTH",
"510 615 OFFCURVE",
"486 649 OFFCURVE",
"397 649 CURVE",
"569 580 LINE",
"642 577 OFFCURVE",
"715 632 OFFCURVE",
"715 711 CURVE SMOOTH",
"715 749 OFFCURVE",
"700 774 OFFCURVE",
"674 774 CURVE SMOOTH",
"657 774 OFFCURVE",
"636 765 OFFCURVE",
"614 748 CURVE"
);
},
{
closed = 1;
nodes = (
"200 35 OFFCURVE",
"127 134 OFFCURVE",
"127 285 CURVE SMOOTH",
"127 460 OFFCURVE",
"230 593 OFFCURVE",
"368 593 CURVE SMOOTH",
"482 593 OFFCURVE",
"557 494 OFFCURVE",
"557 343 CURVE SMOOTH",
"557 166 OFFCURVE",
"453 35 OFFCURVE",
"311 35 CURVE SMOOTH"
);
},
{
closed = 1;
nodes = (
"482 -12 OFFCURVE",
"644 165 OFFCURVE",
"644 382 CURVE SMOOTH",
"644 538 OFFCURVE",
"543 649 OFFCURVE",
"397 649 CURVE SMOOTH",
"204 649 OFFCURVE",
"45 470 OFFCURVE",
"45 254 CURVE SMOOTH",
"45 97 OFFCURVE",
"144 -12 OFFCURVE",
"286 -12 CURVE SMOOTH"
);
}
);
width = 684;
},
{
anchors = (
{
name = bottom;
position = "{286, 0}";
},
{
name = top;
position = "{295, 647}";
}
);
layerId = UUID1;
paths = (
{
closed = 1;
nodes = (
"559 731 LINE",
"573 718 OFFCURVE",
"581 698 OFFCURVE",
"581 680 CURVE SMOOTH",
"581 653 OFFCURVE",
"564 631 OFFCURVE",
"537 631 CURVE SMOOTH",
"505 631 OFFCURVE",
"471 659 OFFCURVE",
"372 659 CURVE",
"592 562 LINE",
"654 562 OFFCURVE",
"734 640 OFFCURVE",
"734 711 CURVE SMOOTH",
"734 758 OFFCURVE",
"706 789 OFFCURVE",
"660 789 CURVE SMOOTH",
"635 789 OFFCURVE",
"598 772 OFFCURVE",
"564 745 CURVE"
);
},
{
closed = 1;
nodes = (
"267 114 OFFCURVE",
"247 152 OFFCURVE",
"247 234 CURVE SMOOTH",
"247 438 OFFCURVE",
"275 522 OFFCURVE",
"342 522 CURVE SMOOTH",
"386 522 OFFCURVE",
"407 484 OFFCURVE",
"407 402 CURVE SMOOTH",
"407 197 OFFCURVE",
"379 114 OFFCURVE",
"310 114 CURVE SMOOTH"
);
},
{
closed = 1;
nodes = (
"512 -12 OFFCURVE",
"638 141 OFFCURVE",
"638 398 CURVE SMOOTH",
"638 571 OFFCURVE",
"541 659 OFFCURVE",
"372 659 CURVE SMOOTH",
"140 659 OFFCURVE",
"18 513 OFFCURVE",
"18 256 CURVE SMOOTH",
"18 82 OFFCURVE",
"118 -12 OFFCURVE",
"283 -12 CURVE SMOOTH"
);
}
);
width = 666;
}
);
leftKerningGroup = O;
rightKerningGroup = O;
unicode = 01A0;
},
{
color = 11;
glyphname = Oslash;
layers = (
{
anchors = (
{
name = top;
position = "{328, 647}";
}
);
components = (
{
name = O;
}
);
layerId = UUID1;
paths = (
{
closed = 1;
nodes = (
"642 685 LINE",
"640 698 LINE",
"543 752 LINE",
"418 559 LINE",
"513 488 LINE"
);
},
{
closed = 1;
nodes = (
"513 488 LINE",
"418 559 LINE",
"149 152 LINE",
"242 82 LINE"
);
},
{
closed = 1;
nodes = (
"9 -52 LINE",
"13 -62 LINE",
"108 -117 LINE",
"242 82 LINE",
"149 152 LINE"
);
}
);
width = 633;
},
{
anchors = (
{
name = top;
position = "{328, 647}";
}
);
components = (
{
name = O;
}
);
layerId = UUID0;
paths = (
{
closed = 1;
nodes = (
"553 689 LINE",
"550 701 LINE",
"521 708 LINE",
"463 593 LINE",
"496 579 LINE"
);
},
{
closed = 1;
nodes = (
"496 579 LINE",
"463 593 LINE",
"176 48 LINE",
"208 34 LINE"
);
},
{
closed = 1;
nodes = (
"108 -82 LINE",
"110 -92 LINE",
"137 -98 LINE",
"208 34 LINE",
"176 48 LINE"
);
}
);
width = 663;
},
{
anchors = (
{
name = top;
position = "{328, 647}";
}
);
associatedMasterId = UUID0;
components = (
{
name = O;
}
);
layerId = "88A0378F-1752-4568-BC65-034DA8B5F7BE";
name = "Regular [120]";
paths = (
{
closed = 1;
nodes = (
"553 689 LINE",
"550 701 LINE",
"521 708 LINE",
"463 593 LINE",
"496 579 LINE"
);
},
{
closed = 1;
nodes = (
"108 -82 LINE",
"110 -92 LINE",
"137 -98 LINE",
"208 34 LINE",
"176 48 LINE"
);
}
);
width = 663;
},
{
anchors = (
{
name = top;
position = "{328, 647}";
}
);
associatedMasterId = UUID1;
components = (
{
name = O;
}
);
layerId = "BFF6708C-37B2-495D-B4E2-C98288CC7069";
name = "Bold [120]";
paths = (
{
closed = 1;
nodes = (
"642 685 LINE",
"640 698 LINE",
"543 752 LINE",
"418 559 LINE",
"513 488 LINE"
);
},
{
closed = 1;
nodes = (
"9 -52 LINE",
"13 -62 LINE",
"108 -117 LINE",
"242 82 LINE",
"149 152 LINE"
);
}
);
width = 633;
}
);
leftKerningGroup = O;
rightKerningGroup = O;
unicode = 00D8;
},
{
color = 10;
glyphname = Oslashacute;
layers = (
{
background = {
components = (
{
name = O;
},
{
name = acutecomb.case;
transform = "{1, 0, 0, 1, 120, 0}";
}
);
paths = (
{
closed = 1;
nodes = (
"553 689 LINE",
"550 701 LINE",
"521 708 LINE",
"463 593 LINE",
"496 579 LINE"
);
},
{
closed = 1;
nodes = (
"496 579 LINE",
"463 593 LINE",
"176 48 LINE",
"208 34 LINE"
);
},
{
closed = 1;
nodes = (
"108 -82 LINE",
"110 -92 LINE",
"137 -98 LINE",
"208 34 LINE",
"176 48 LINE"
);
}
);
};
components = (
{
name = Oslash;
},
{
name = acutecomb.case;
transform = "{1, 0, 0, 1, 143, 11}";
}
);
layerId = UUID0;
width = 663;
},
{
background = {
components = (
{
name = O;
},
{
name = acutecomb.case;
transform = "{1, 0, 0, 1, 163, 10}";
}
);
paths = (
{
closed = 1;
nodes = (
"642 685 LINE",
"640 698 LINE",
"543 752 LINE",
"418 559 LINE",
"513 488 LINE"
);
},
{
closed = 1;
nodes = (
"513 488 LINE",
"418 559 LINE",
"149 152 LINE",
"242 82 LINE"
);
},
{
closed = 1;
nodes = (
"9 -52 LINE",
"13 -62 LINE",
"108 -117 LINE",
"242 82 LINE",
"149 152 LINE"
);
}
);
};
components = (
{
name = Oslash;
},
{
name = acutecomb.case;
transform = "{1, 0, 0, 1, 101, 0}";
}
);
layerId = UUID1;
width = 633;
}
);
leftKerningGroup = O;
rightKerningGroup = O;
unicode = 01FE;
},
{
color = 1;
glyphname = OE;
layers = (
{
anchors = (
{
name = top;
position = "{508, 647}";
}
);
background = {
paths = (
{
closed = 1;
nodes = (
"231 39 OFFCURVE",
"161 135 OFFCURVE",
"161 282 CURVE SMOOTH",
"161 459 OFFCURVE",
"260 589 OFFCURVE",
"394 589 CURVE SMOOTH",
"504 589 OFFCURVE",
"576 493 OFFCURVE",
"576 346 CURVE SMOOTH",
"576 168 OFFCURVE",
"476 39 OFFCURVE",
"338 39 CURVE SMOOTH"
);
}
);
};
layerId = UUID0;
paths = (
{
closed = 1;
nodes = (
"572 296 LINE",
"648 303 LINE SMOOTH",
"699 303 OFFCURVE",
"781 300 OFFCURVE",
"781 300 CURVE",
"802 359 LINE",
"799 364 LINE",
"799 364 OFFCURVE",
"715 353 OFFCURVE",
"680 353 CURVE SMOOTH",
"581 354 LINE",
"613 548 LINE SMOOTH",
"619 585 OFFCURVE",
"622 587 OFFCURVE",
"684 587 CURVE SMOOTH",
"798 587 OFFCURVE",
"823 582 OFFCURVE",
"823 536 CURVE SMOOTH",
"823 511 OFFCURVE",
"814 473 OFFCURVE",
"814 473 CURVE",
"863 477 LINE",
"880 569 OFFCURVE",
"906 643 OFFCURVE",
"906 643 CURVE",
"903 649 LINE",
"833 639 OFFCURVE",
"745 635 OFFCURVE",
"609 635 CURVE SMOOTH",
"530 635 OFFCURVE",
"456 649 OFFCURVE",
"390 649 CURVE SMOOTH",
"200 649 OFFCURVE",
"45 473 OFFCURVE",
"45 253 CURVE SMOOTH",
"45 97 OFFCURVE",
"142 -12 OFFCURVE",
"280 -12 CURVE SMOOTH",
"348 -12 OFFCURVE",
"417 1 OFFCURVE",
"515 1 CURVE SMOOTH",
"608 1 OFFCURVE",
"807 -7 OFFCURVE",
"807 -7 CURVE",
"813 -1 LINE",
"832 84 OFFCURVE",
"859 167 OFFCURVE",
"859 167 CURVE",
"857 172 LINE",
"812 167 LINE",
"783 57 OFFCURVE",
"763 45 OFFCURVE",
"614 45 CURVE SMOOTH",
"545 45 OFFCURVE",
"539 51 OFFCURVE",
"546 105 CURVE SMOOTH"
);
},
{
closed = 1;
nodes = (
"200 40 OFFCURVE",
"135 137 OFFCURVE",
"135 280 CURVE SMOOTH",
"135 463 OFFCURVE",
"238 591 OFFCURVE",
"371 591 CURVE SMOOTH",
"506 591 OFFCURVE",
"539 566 OFFCURVE",
"527 467 CURVE SMOOTH",
"494 208 LINE",
"477 85 OFFCURVE",
"427 40 OFFCURVE",
"306 40 CURVE SMOOTH"
);
}
);
width = 923;
},
{
anchors = (
{
name = top;
position = "{508, 647}";
}
);
background = {
paths = (
{
closed = 1;
nodes = (
"298 114 OFFCURVE",
"278 152 OFFCURVE",
"278 234 CURVE SMOOTH",
"278 438 OFFCURVE",
"306 522 OFFCURVE",
"373 522 CURVE SMOOTH",
"417 522 OFFCURVE",
"438 484 OFFCURVE",
"438 402 CURVE SMOOTH",
"438 197 OFFCURVE",
"410 114 OFFCURVE",
"341 114 CURVE SMOOTH"
);
}
);
};
layerId = UUID1;
paths = (
{
closed = 1;
nodes = (
"583 260 LINE",
"656 266 LINE SMOOTH",
"700 266 OFFCURVE",
"771 263 OFFCURVE",
"771 263 CURVE",
"799 378 LINE",
"788 392 LINE",
"788 392 OFFCURVE",
"710 386 OFFCURVE",
"681 386 CURVE SMOOTH",
"603 387 LINE",
"623 500 LINE SMOOTH",
"625 522 OFFCURVE",
"631 527 OFFCURVE",
"657 527 CURVE SMOOTH",
"726 527 OFFCURVE",
"744 518 OFFCURVE",
"744 484 CURVE SMOOTH",
"744 467 OFFCURVE",
"736 435 OFFCURVE",
"736 435 CURVE",
"876 444 LINE",
"892 538 OFFCURVE",
"922 643 OFFCURVE",
"922 643 CURVE",
"911 659 LINE",
"819 647 OFFCURVE",
"684 638 OFFCURVE",
"598 638 CURVE SMOOTH",
"509 638 OFFCURVE",
"429 650 OFFCURVE",
"366 650 CURVE SMOOTH",
"133 650 OFFCURVE",
"18 513 OFFCURVE",
"18 259 CURVE SMOOTH",
"18 85 OFFCURVE",
"120 -10 OFFCURVE",
"289 -10 CURVE SMOOTH",
"341 -10 OFFCURVE",
"415 3 OFFCURVE",
"487 3 CURVE SMOOTH",
"640 3 OFFCURVE",
"801 -7 OFFCURVE",
"801 -7 CURVE",
"818 9 LINE",
"841 118 OFFCURVE",
"870 215 OFFCURVE",
"870 215 CURVE",
"860 230 LINE",
"730 221 LINE",
"708 131 OFFCURVE",
"689 115 OFFCURVE",
"609 115 CURVE SMOOTH",
"570 115 OFFCURVE",
"565 123 OFFCURVE",
"571 175 CURVE SMOOTH"
);
},
{
closed = 1;
nodes = (
"263 108 OFFCURVE",
"245 144 OFFCURVE",
"245 235 CURVE SMOOTH",
"245 428 OFFCURVE",
"279 528 OFFCURVE",
"344 528 CURVE SMOOTH",
"395 528 OFFCURVE",
"419 498 OFFCURVE",
"412 439 CURVE SMOOTH",
"381 196 LINE",
"374 137 OFFCURVE",
"350 108 OFFCURVE",
"309 108 CURVE SMOOTH"
);
}
);
width = 885;
}
);
leftKerningGroup = O;
rightKerningGroup = E;
unicode = 0152;
},
{
color = 1;
glyphname = P;
layers = (
{
anchors = (
{
name = bottom;
position = "{200, 0}";
},
{
name = top;
position = "{317, 647}";
}
);
background = {
paths = (
{
closed = 1;
nodes = (
"115 598 LINE",
"117 594 LINE",
"117 594 OFFCURVE",
"138 596 OFFCURVE",
"149 596 CURVE SMOOTH",
"177 596 OFFCURVE",
"183 585 OFFCURVE",
"178 542 CURVE SMOOTH",
"126 117 LINE SMOOTH",
"119 60 OFFCURVE",
"104 46 OFFCURVE",
"46 35 CURVE",
"34 -8 LINE",
"36 -5 OFFCURVE",
"124 0 OFFCURVE",
"177 0 CURVE SMOOTH",
"207 0 OFFCURVE",
"262 -2 OFFCURVE",
"262 -3 CURVE",
"276 41 LINE",
"276 42 OFFCURVE",
"275 44 OFFCURVE",
"275 45 CURVE SMOOTH",
"275 45 OFFCURVE",
"241 41 OFFCURVE",
"222 41 CURVE SMOOTH",
"189 41 OFFCURVE",
"178 54 OFFCURVE",
"184 92 CURVE SMOOTH",
"207 246 LINE",
"299 246 LINE SMOOTH",
"422 246 OFFCURVE",
"535 364 OFFCURVE",
"535 489 CURVE SMOOTH",
"535 587 OFFCURVE",
"462 640 OFFCURVE",
"342 640 CURVE SMOOTH",
"342 640 OFFCURVE",
"258 636 OFFCURVE",
"232 636 CURVE SMOOTH",
"196 636 OFFCURVE",
"125 640 OFFCURVE",
"127 640 CURVE"
);
},
{
closed = 1;
nodes = (
"217 301 LINE",
"230 396 OFFCURVE",
"246 498 OFFCURVE",
"263 582 CURVE SMOOTH",
"265 595 OFFCURVE",
"264 596 OFFCURVE",
"290 596 CURVE SMOOTH",
"404 596 OFFCURVE",
"457 556 OFFCURVE",
"457 469 CURVE SMOOTH",
"457 365 OFFCURVE",
"407 300 OFFCURVE",
"317 286 CURVE"
);
}
);
};
layerId = UUID0;
paths = (
{
closed = 1;
nodes = (
"115 598 LINE",
"117 594 LINE",
"117 594 OFFCURVE",
"138 596 OFFCURVE",
"149 596 CURVE SMOOTH",
"177 596 OFFCURVE",
"183 585 OFFCURVE",
"178 542 CURVE SMOOTH",
"126 117 LINE SMOOTH",
"119 60 OFFCURVE",
"104 46 OFFCURVE",
"46 35 CURVE",
"34 -8 LINE",
"36 -5 OFFCURVE",
"124 0 OFFCURVE",
"177 0 CURVE SMOOTH",
"207 0 OFFCURVE",
"262 -2 OFFCURVE",
"262 -3 CURVE",
"276 41 LINE",
"276 42 OFFCURVE",
"275 44 OFFCURVE",
"275 45 CURVE SMOOTH",
"275 45 OFFCURVE",
"241 41 OFFCURVE",
"222 41 CURVE SMOOTH",
"189 41 OFFCURVE",
"178 54 OFFCURVE",
"184 92 CURVE SMOOTH",
"207 246 LINE",
"299 246 LINE SMOOTH",
"422 246 OFFCURVE",
"535 364 OFFCURVE",
"535 489 CURVE SMOOTH",
"535 587 OFFCURVE",
"452 640 OFFCURVE",
"332 640 CURVE SMOOTH",
"332 640 OFFCURVE",
"258 636 OFFCURVE",
"232 636 CURVE SMOOTH",
"196 636 OFFCURVE",
"125 640 OFFCURVE",
"127 640 CURVE"
);
},
{
closed = 1;
nodes = (
"217 301 LINE",
"230 396 OFFCURVE",
"246 498 OFFCURVE",
"263 582 CURVE SMOOTH",
"265 595 OFFCURVE",
"264 596 OFFCURVE",
"290 596 CURVE SMOOTH",
"404 596 OFFCURVE",
"457 556 OFFCURVE",
"457 469 CURVE SMOOTH",
"457 365 OFFCURVE",
"407 300 OFFCURVE",
"317 286 CURVE"
);
}
);
width = 528;
},
{
anchors = (
{
name = bottom;
position = "{200, 0}";
},
{
name = top;
position = "{317, 647}";
}
);
background = {
paths = (
{
closed = 1;
nodes = (
"55 569 LINE",
"63 557 LINE",
"63 557 OFFCURVE",
"83 559 OFFCURVE",
"98 559 CURVE SMOOTH",
"116 559 OFFCURVE",
"121 546 OFFCURVE",
"116 505 CURVE SMOOTH",
"74 168 LINE SMOOTH",
"67 112 OFFCURVE",
"49 91 OFFCURVE",
"1 83 CURVE",
"-19 -9 LINE",
"-19 -9 OFFCURVE",
"120 0 OFFCURVE",
"164 0 CURVE SMOOTH",
"206 0 OFFCURVE",
"326 -4 OFFCURVE",
"326 -4 CURVE",
"346 82 LINE",
"345 85 OFFCURVE",
"343 87 OFFCURVE",
"342 90 CURVE SMOOTH",
"342 90 OFFCURVE",
"324 88 OFFCURVE",
"311 88 CURVE SMOOTH",
"271 88 OFFCURVE",
"264 106 OFFCURVE",
"271 160 CURVE SMOOTH",
"277 208 LINE",
"360 208 LINE SMOOTH",
"500 208 OFFCURVE",
"635 330 OFFCURVE",
"635 473 CURVE SMOOTH",
"635 548 OFFCURVE",
"588 653 OFFCURVE",
"383 653 CURVE SMOOTH",
"383 653 OFFCURVE",
"259 647 OFFCURVE",
"214 647 CURVE SMOOTH",
"166 647 OFFCURVE",
"123 647 OFFCURVE",
"74 647 CURVE"
);
},
{
closed = 1;
nodes = (
"294 331 LINE",
"303 394 OFFCURVE",
"314 455 OFFCURVE",
"323 506 CURVE SMOOTH",
"326 525 OFFCURVE",
"328 528 OFFCURVE",
"341 528 CURVE SMOOTH",
"400 528 OFFCURVE",
"427 505 OFFCURVE",
"427 452 CURVE SMOOTH",
"427 388 OFFCURVE",
"407 339 OFFCURVE",
"357 321 CURVE"
);
}
);
};
layerId = UUID1;
paths = (
{
closed = 1;
nodes = (
"55 569 LINE",
"63 557 LINE",
"63 557 OFFCURVE",
"83 559 OFFCURVE",
"98 559 CURVE SMOOTH",
"116 559 OFFCURVE",
"121 546 OFFCURVE",
"116 505 CURVE SMOOTH",
"74 168 LINE SMOOTH",
"67 112 OFFCURVE",
"49 91 OFFCURVE",
"1 83 CURVE",
"-19 -9 LINE",
"-19 -9 OFFCURVE",
"120 0 OFFCURVE",
"164 0 CURVE SMOOTH",
"206 0 OFFCURVE",
"326 -4 OFFCURVE",
"326 -4 CURVE",
"346 82 LINE",
"345 85 OFFCURVE",
"343 87 OFFCURVE",
"342 90 CURVE SMOOTH",
"342 90 OFFCURVE",
"324 88 OFFCURVE",
"311 88 CURVE SMOOTH",
"271 88 OFFCURVE",
"264 106 OFFCURVE",
"271 160 CURVE SMOOTH",
"277 208 LINE",
"360 208 LINE SMOOTH",
"500 208 OFFCURVE",
"635 330 OFFCURVE",
"635 473 CURVE SMOOTH",
"635 548 OFFCURVE",
"588 653 OFFCURVE",
"383 653 CURVE SMOOTH",
"383 653 OFFCURVE",
"259 647 OFFCURVE",
"214 647 CURVE SMOOTH",
"166 647 OFFCURVE",
"123 647 OFFCURVE",
"74 647 CURVE"
);
},
{
closed = 1;
nodes = (
"294 331 LINE",
"303 394 OFFCURVE",
"314 455 OFFCURVE",
"323 506 CURVE SMOOTH",
"326 525 OFFCURVE",
"328 528 OFFCURVE",
"341 528 CURVE SMOOTH",
"400 528 OFFCURVE",
"427 505 OFFCURVE",
"427 452 CURVE SMOOTH",
"427 388 OFFCURVE",
"407 339 OFFCURVE",
"357 321 CURVE"
);
}
);
width = 591;
}
);
leftKerningGroup = H;
rightKerningGroup = P;
unicode = 0050;
},
{
color = 1;
glyphname = Thorn;
layers = (
{
background = {
paths = (
{
closed = 1;
nodes = (
"260 544 LINE SMOOTH",
"266 582 OFFCURVE",
"281 594 OFFCURVE",
"335 601 CURVE",
"345 646 LINE",
"345 646 OFFCURVE",
"276 637 OFFCURVE",
"232 637 CURVE SMOOTH",
"192 637 OFFCURVE",
"118 640 OFFCURVE",
"117 640 CURVE",
"104 596 LINE",
"106 592 LINE",
"106 592 OFFCURVE",
"132 594 OFFCURVE",
"146 594 CURVE SMOOTH",
"175 594 OFFCURVE",
"180 582 OFFCURVE",
"175 540 CURVE SMOOTH",
"123 120 LINE SMOOTH",
"116 64 OFFCURVE",
"97 46 OFFCURVE",
"36 34 CURVE",
"24 -12 LINE",
"24 -12 OFFCURVE",
"89 0 OFFCURVE",
"138 0 CURVE SMOOTH",
"183 0 OFFCURVE",
"265 -3 OFFCURVE",
"265 -3 CURVE",
"279 43 LINE",
"278 47 LINE",
"278 47 OFFCURVE",
"250 44 OFFCURVE",
"227 44 CURVE SMOOTH",
"193 44 OFFCURVE",
"187 58 OFFCURVE",
"193 112 CURVE SMOOTH",
"198 148 LINE",
"266 148 LINE SMOOTH",
"395 148 OFFCURVE",
"519 245 OFFCURVE",
"519 360 CURVE SMOOTH",
"519 452 OFFCURVE",
"453 503 OFFCURVE",
"331 503 CURVE SMOOTH",
"253 503 LINE"
);
},
{
closed = 1;
nodes = (
"245 453 OFFCURVE",
"248 454 OFFCURVE",
"269 454 CURVE SMOOTH",
"381 454 OFFCURVE",
"432 418 OFFCURVE",
"432 341 CURVE SMOOTH",
"432 255 OFFCURVE",
"388 203 OFFCURVE",
"301 192 CURVE",
"274 193 OFFCURVE",
"228 201 OFFCURVE",
"206 209 CURVE",
"213 260 OFFCURVE",
"224 331 OFFCURVE",
"243 446 CURVE SMOOTH"
);
}
);
};
layerId = UUID0;
paths = (
{
closed = 1;
nodes = (
"260 544 LINE SMOOTH",
"268 582 OFFCURVE",
"281 594 OFFCURVE",
"335 601 CURVE",
"345 646 LINE",
"345 646 OFFCURVE",
"276 637 OFFCURVE",
"232 637 CURVE SMOOTH",
"192 637 OFFCURVE",
"118 640 OFFCURVE",
"117 640 CURVE",
"104 596 LINE",
"106 592 LINE",
"106 592 OFFCURVE",
"132 594 OFFCURVE",
"146 594 CURVE SMOOTH",
"175 594 OFFCURVE",
"180 582 OFFCURVE",
"175 540 CURVE SMOOTH",
"123 120 LINE SMOOTH",
"116 64 OFFCURVE",
"97 46 OFFCURVE",
"36 34 CURVE",
"24 -12 LINE",
"24 -12 OFFCURVE",
"89 0 OFFCURVE",
"138 0 CURVE SMOOTH",
"183 0 OFFCURVE",
"265 -3 OFFCURVE",
"265 -3 CURVE",
"279 43 LINE",
"278 47 LINE",
"278 47 OFFCURVE",
"250 44 OFFCURVE",
"227 44 CURVE SMOOTH",
"193 44 OFFCURVE",
"187 58 OFFCURVE",
"193 112 CURVE SMOOTH",
"197 151 LINE",
"265 151 LINE SMOOTH",
"394 151 OFFCURVE",
"518 248 OFFCURVE",
"518 363 CURVE SMOOTH",
"518 455 OFFCURVE",
"452 506 OFFCURVE",
"330 506 CURVE SMOOTH",
"252 506 LINE"
);
},
{
closed = 1;
nodes = (
"243 456 OFFCURVE",
"247 457 OFFCURVE",
"268 457 CURVE SMOOTH",
"380 457 OFFCURVE",
"431 421 OFFCURVE",
"431 344 CURVE SMOOTH",
"431 258 OFFCURVE",
"387 206 OFFCURVE",
"300 195 CURVE",
"273 196 OFFCURVE",
"227 204 OFFCURVE",
"205 212 CURVE",
"212 263 OFFCURVE",
"226 334 OFFCURVE",
"242 449 CURVE SMOOTH"
);
}
);
width = 523;
},
{
layerId = UUID1;
paths = (
{
closed = 1;
nodes = (
"325 527 LINE SMOOTH",
"329 549 OFFCURVE",
"336 552 OFFCURVE",
"384 562 CURVE",
"402 652 LINE",
"402 652 OFFCURVE",
"273 647 OFFCURVE",
"232 647 CURVE SMOOTH",
"179 647 OFFCURVE",
"129 647 OFFCURVE",
"73 647 CURVE",
"56 572 LINE",
"64 558 LINE",
"64 558 OFFCURVE",
"78 559 OFFCURVE",
"88 559 CURVE SMOOTH",
"115 559 OFFCURVE",
"121 549 OFFCURVE",
"116 508 CURVE SMOOTH",
"73 162 LINE SMOOTH",
"67 106 OFFCURVE",
"53 91 OFFCURVE",
"1 80 CURVE",
"-17 -5 LINE",
"-17 -5 OFFCURVE",
"86 0 OFFCURVE",
"147 0 CURVE SMOOTH",
"191 0 OFFCURVE",
"321 -4 OFFCURVE",
"321 -4 CURVE",
"340 80 LINE",
"333 90 LINE",
"333 90 OFFCURVE",
"320 87 OFFCURVE",
"292 87 CURVE SMOOTH",
"268 87 OFFCURVE",
"262 92 OFFCURVE",
"265 116 CURVE SMOOTH",
"268 139 LINE",
"337 139 LINE SMOOTH",
"492 139 OFFCURVE",
"605 226 OFFCURVE",
"605 360 CURVE SMOOTH",
"605 469 OFFCURVE",
"536 522 OFFCURVE",
"390 522 CURVE SMOOTH",
"324 522 LINE"
);
},
{
closed = 1;
nodes = (
"303 401 OFFCURVE",
"310 407 OFFCURVE",
"323 407 CURVE SMOOTH",
"374 407 OFFCURVE",
"398 388 OFFCURVE",
"398 344 CURVE SMOOTH",
"398 295 OFFCURVE",
"381 257 OFFCURVE",
"342 246 CURVE",
"333 246 OFFCURVE",
"309 250 OFFCURVE",
"284 256 CURVE",
"288 290 OFFCURVE",
"298 358 OFFCURVE",
"301 385 CURVE SMOOTH"
);
}
);
width = 590;
}
);
leftKerningGroup = H;
rightKerningGroup = P;
unicode = 00DE;
},
{
color = 1;
glyphname = Q;
layers = (
{
anchors = (
{
name = bottom;
position = "{423, 0}";
},
{
name = top;
position = "{333, 647}";
}
);
background = {
paths = (
{
closed = 1;
nodes = (
"287 -12 LINE",
"493 -184 OFFCURVE",
"548 -214 OFFCURVE",
"640 -214 CURVE SMOOTH",
"658 -214 OFFCURVE",
"736 -148 OFFCURVE",
"736 -148 CURVE",
"733 -133 LINE",
"729 -131 LINE",
"729 -131 OFFCURVE",
"697 -141 OFFCURVE",
"651 -141 CURVE SMOOTH",
"574 -141 OFFCURVE",
"497 -105 OFFCURVE",
"371 -6 CURVE",
"372 12 LINE"
);
},
{
closed = 1;
nodes = (
"200 35 OFFCURVE",
"127 134 OFFCURVE",
"127 285 CURVE SMOOTH",
"127 460 OFFCURVE",
"230 593 OFFCURVE",
"368 593 CURVE SMOOTH",
"482 593 OFFCURVE",
"557 494 OFFCURVE",
"557 343 CURVE SMOOTH",
"557 166 OFFCURVE",
"453 35 OFFCURVE",
"311 35 CURVE SMOOTH"
);
},
{
closed = 1;
nodes = (
"482 -12 OFFCURVE",
"644 165 OFFCURVE",
"644 382 CURVE SMOOTH",
"644 538 OFFCURVE",
"543 648 OFFCURVE",
"397 648 CURVE SMOOTH",
"204 648 OFFCURVE",
"45 470 OFFCURVE",
"45 254 CURVE SMOOTH",
"45 97 OFFCURVE",
"144 -12 OFFCURVE",
"286 -12 CURVE SMOOTH"
);
}
);
};
layerId = UUID0;
paths = (
{
closed = 1;
nodes = (
"287 -12 LINE",
"493 -184 OFFCURVE",
"548 -214 OFFCURVE",
"640 -214 CURVE SMOOTH",
"658 -214 OFFCURVE",
"736 -148 OFFCURVE",
"736 -148 CURVE",
"733 -133 LINE",
"729 -131 LINE",
"729 -131 OFFCURVE",
"697 -141 OFFCURVE",
"651 -141 CURVE SMOOTH",
"574 -141 OFFCURVE",
"497 -105 OFFCURVE",
"371 -6 CURVE",
"372 12 LINE"
);
},
{
closed = 1;
nodes = (
"200 35 OFFCURVE",
"127 134 OFFCURVE",
"127 285 CURVE SMOOTH",
"127 461 OFFCURVE",
"231 593 OFFCURVE",
"368 593 CURVE SMOOTH",
"482 593 OFFCURVE",
"557 494 OFFCURVE",
"557 343 CURVE SMOOTH",
"557 166 OFFCURVE",
"453 35 OFFCURVE",
"311 35 CURVE SMOOTH"
);
},
{
closed = 1;
nodes = (
"490 -12 OFFCURVE",
"644 163 OFFCURVE",
"644 382 CURVE SMOOTH",
"644 536 OFFCURVE",
"535 648 OFFCURVE",
"387 648 CURVE SMOOTH",
"197 648 OFFCURVE",
"45 473 OFFCURVE",
"45 254 CURVE SMOOTH",
"45 100 OFFCURVE",
"151 -12 OFFCURVE",
"296 -12 CURVE SMOOTH"
);
}
);
width = 670;
},
{
anchors = (
{
name = bottom;
position = "{422, 0}";
},
{
name = top;
position = "{332, 647}";
}
);
background = {
paths = (
{
closed = 1;
nodes = (
"273 -12 LINE",
"447 -207 OFFCURVE",
"493 -242 OFFCURVE",
"572 -242 CURVE SMOOTH",
"609 -242 OFFCURVE",
"759 -141 OFFCURVE",
"759 -141 CURVE",
"750 -73 LINE",
"740 -62 LINE",
"740 -62 OFFCURVE",
"693 -72 OFFCURVE",
"650 -72 CURVE SMOOTH",
"587 -72 OFFCURVE",
"507 -37 OFFCURVE",
"448 18 CURVE",
"449 32 LINE"
);
},
{
closed = 1;
nodes = (
"267 114 OFFCURVE",
"247 152 OFFCURVE",
"247 234 CURVE SMOOTH",
"247 438 OFFCURVE",
"275 522 OFFCURVE",
"342 522 CURVE SMOOTH",
"386 522 OFFCURVE",
"407 484 OFFCURVE",
"407 402 CURVE SMOOTH",
"407 197 OFFCURVE",
"379 114 OFFCURVE",
"310 114 CURVE SMOOTH"
);
},
{
closed = 1;
nodes = (
"512 -12 OFFCURVE",
"638 141 OFFCURVE",
"638 398 CURVE SMOOTH",
"638 571 OFFCURVE",
"541 659 OFFCURVE",
"372 659 CURVE SMOOTH",
"140 659 OFFCURVE",
"18 513 OFFCURVE",
"18 256 CURVE SMOOTH",
"18 82 OFFCURVE",
"118 -12 OFFCURVE",
"283 -12 CURVE SMOOTH"
);
}
);
};
layerId = UUID1;
paths = (
{
closed = 1;
nodes = (
"273 -12 LINE",
"448 -206 OFFCURVE",
"494 -241 OFFCURVE",
"573 -241 CURVE SMOOTH",
"610 -241 OFFCURVE",
"758 -141 OFFCURVE",
"758 -141 CURVE",
"749 -75 LINE",
"739 -64 LINE",
"739 -64 OFFCURVE",
"692 -74 OFFCURVE",
"649 -74 CURVE SMOOTH",
"586 -74 OFFCURVE",
"506 -39 OFFCURVE",
"445 17 CURVE",
"446 31 LINE"
);
},
{
closed = 1;
nodes = (
"264 112 OFFCURVE",
"243 151 OFFCURVE",
"243 236 CURVE SMOOTH",
"243 439 OFFCURVE",
"273 524 OFFCURVE",
"342 524 CURVE SMOOTH",
"388 524 OFFCURVE",
"411 484 OFFCURVE",
"411 400 CURVE SMOOTH",
"411 196 OFFCURVE",
"380 112 OFFCURVE",
"309 112 CURVE SMOOTH"
);
},
{
closed = 1;
nodes = (
"511 -12 OFFCURVE",
"637 142 OFFCURVE",
"637 398 CURVE SMOOTH",
"637 570 OFFCURVE",
"540 659 OFFCURVE",
"372 659 CURVE SMOOTH",
"141 659 OFFCURVE",
"18 512 OFFCURVE",
"18 256 CURVE SMOOTH",
"18 83 OFFCURVE",
"118 -12 OFFCURVE",
"283 -12 CURVE SMOOTH"
);
}
);
width = 636;
}
);
leftKerningGroup = O;
rightKerningGroup = O;
unicode = 0051;
},
{
color = 1;
glyphname = R;
layers = (
{
anchors = (
{
name = bottom;
position = "{265, 0}";
},
{
name = top;
position = "{343, 636}";
}
);
background = {
paths = (
{
closed = 1;
nodes = (
"303 276 LINE",
"383 79 LINE SMOOTH",
"407 22 OFFCURVE",
"441 -16 OFFCURVE",
"473 -16 CURVE",
"554 -5 LINE",
"563 27 LINE",
"560 30 LINE",
"507 30 OFFCURVE",
"481 52 OFFCURVE",
"450 115 CURVE SMOOTH",
"365 293 LINE",
"470 339 OFFCURVE",
"522 415 OFFCURVE",
"522 503 CURVE SMOOTH",
"522 587 OFFCURVE",
"447 640 OFFCURVE",
"339 640 CURVE SMOOTH",
"339 640 OFFCURVE",
"264 636 OFFCURVE",
"232 636 CURVE SMOOTH",
"196 636 OFFCURVE",
"127 640 OFFCURVE",
"127 640 CURVE",
"115 598 LINE",
"117 594 LINE",
"117 594 OFFCURVE",
"138 596 OFFCURVE",
"149 596 CURVE SMOOTH",
"177 596 OFFCURVE",
"183 585 OFFCURVE",
"178 541 CURVE SMOOTH",
"126 117 LINE SMOOTH",
"119 59 OFFCURVE",
"103 46 OFFCURVE",
"42 39 CURVE",
"28 -4 LINE",
"28 -4 OFFCURVE",
"90 0 OFFCURVE",
"137 -1 CURVE SMOOTH",
"182 -2 OFFCURVE",
"237 -4 OFFCURVE",
"237 -4 CURVE",
"250 36 LINE",
"249 39 LINE",
"187 39 OFFCURVE",
"180 49 OFFCURVE",
"190 122 CURVE SMOOTH",
"212 276 LINE"
);
},
{
closed = 1;
nodes = (
"221 328 LINE",
"230 400 OFFCURVE",
"239 472 OFFCURVE",
"260 579 CURVE SMOOTH",
"265 597 OFFCURVE",
"268 602 OFFCURVE",
"281 602 CURVE SMOOTH",
"389 602 OFFCURVE",
"443 562 OFFCURVE",
"443 486 CURVE SMOOTH",
"443 348 OFFCURVE",
"317 317 OFFCURVE",
"319 318 CURVE"
);
}
);
};
layerId = UUID0;
paths = (
{
closed = 1;
nodes = (
"303 276 LINE",
"383 79 LINE SMOOTH",
"407 22 OFFCURVE",
"441 -16 OFFCURVE",
"473 -16 CURVE",
"554 -5 LINE",
"563 27 LINE",
"560 30 LINE",
"507 30 OFFCURVE",
"481 52 OFFCURVE",
"450 115 CURVE SMOOTH",
"365 293 LINE",
"470 339 OFFCURVE",
"522 415 OFFCURVE",
"522 503 CURVE SMOOTH",
"522 587 OFFCURVE",
"437 640 OFFCURVE",
"329 640 CURVE SMOOTH",
"329 640 OFFCURVE",
"264 636 OFFCURVE",
"232 636 CURVE SMOOTH",
"196 636 OFFCURVE",
"127 640 OFFCURVE",
"127 640 CURVE",
"115 598 LINE",
"117 594 LINE",
"117 594 OFFCURVE",
"138 596 OFFCURVE",
"149 596 CURVE SMOOTH",
"177 596 OFFCURVE",
"183 585 OFFCURVE",
"178 541 CURVE SMOOTH",
"126 117 LINE SMOOTH",
"119 59 OFFCURVE",
"103 46 OFFCURVE",
"42 39 CURVE",
"28 -4 LINE",
"28 -4 OFFCURVE",
"90 0 OFFCURVE",
"137 -1 CURVE SMOOTH",
"182 -2 OFFCURVE",
"237 -4 OFFCURVE",
"237 -4 CURVE",
"250 36 LINE",
"249 39 LINE",
"187 39 OFFCURVE",
"180 49 OFFCURVE",
"190 122 CURVE SMOOTH",
"212 276 LINE"
);
},
{
closed = 1;
nodes = (
"221 328 LINE",
"230 400 OFFCURVE",
"239 472 OFFCURVE",
"260 579 CURVE SMOOTH",
"265 597 OFFCURVE",
"268 602 OFFCURVE",
"281 602 CURVE SMOOTH",
"389 602 OFFCURVE",
"443 562 OFFCURVE",
"443 486 CURVE SMOOTH",
"443 348 OFFCURVE",
"317 317 OFFCURVE",
"319 318 CURVE"
);
}
);
width = 585;
},
{
anchors = (
{
name = bottom;
position = "{302, 0}";
},
{
name = top;
position = "{381, 647}";
}
);
background = {
paths = (
{
closed = 1;
nodes = (
"332 228 LINE",
"371 75 LINE SMOOTH",
"388 9 OFFCURVE",
"415 -16 OFFCURVE",
"471 -16 CURVE",
"626 -5 LINE",
"644 68 LINE",
"635 84 LINE",
"608 84 OFFCURVE",
"578 115 OFFCURVE",
"553 172 CURVE SMOOTH",
"508 276 LINE",
"601 329 OFFCURVE",
"648 401 OFFCURVE",
"648 489 CURVE SMOOTH",
"648 598 OFFCURVE",
"555 653 OFFCURVE",
"388 653 CURVE SMOOTH",
"388 653 OFFCURVE",
"262 647 OFFCURVE",
"214 647 CURVE SMOOTH",
"174 647 OFFCURVE",
"75 648 OFFCURVE",
"75 648 CURVE",
"55 569 LINE",
"63 557 LINE",
"63 557 OFFCURVE",
"83 559 OFFCURVE",
"98 559 CURVE SMOOTH",
"116 559 OFFCURVE",
"121 548 OFFCURVE",
"117 515 CURVE SMOOTH",
"74 168 LINE SMOOTH",
"67 111 OFFCURVE",
"49 91 OFFCURVE",
"1 83 CURVE",
"-19 -9 LINE",
"-19 -9 OFFCURVE",
"80 0 OFFCURVE",
"153 0 CURVE SMOOTH",
"194 0 OFFCURVE",
"315 -4 OFFCURVE",
"315 -4 CURVE",
"335 80 LINE",
"331 88 LINE",
"269 91 OFFCURVE",
"264 98 OFFCURVE",
"271 160 CURVE SMOOTH",
"279 228 LINE"
);
},
{
closed = 1;
nodes = (
"297 354 LINE",
"302 389 OFFCURVE",
"306 414 OFFCURVE",
"323 506 CURVE SMOOTH",
"326 525 OFFCURVE",
"328 528 OFFCURVE",
"342 528 CURVE SMOOTH",
"408 528 OFFCURVE",
"439 506 OFFCURVE",
"439 458 CURVE SMOOTH",
"439 400 OFFCURVE",
"416 362 OFFCURVE",
"369 344 CURVE"
);
}
);
};
layerId = UUID1;
paths = (
{
closed = 1;
nodes = (
"332 228 LINE",
"371 75 LINE SMOOTH",
"388 9 OFFCURVE",
"415 -16 OFFCURVE",
"471 -16 CURVE",
"626 -5 LINE",
"644 68 LINE",
"635 84 LINE",
"608 84 OFFCURVE",
"578 115 OFFCURVE",
"553 172 CURVE SMOOTH",
"508 276 LINE",
"601 329 OFFCURVE",
"648 401 OFFCURVE",
"648 489 CURVE SMOOTH",
"648 598 OFFCURVE",
"555 653 OFFCURVE",
"388 653 CURVE SMOOTH",
"388 653 OFFCURVE",
"262 647 OFFCURVE",
"214 647 CURVE SMOOTH",
"174 647 OFFCURVE",
"75 648 OFFCURVE",
"75 648 CURVE",
"55 569 LINE",
"63 557 LINE",
"63 557 OFFCURVE",
"83 559 OFFCURVE",
"98 559 CURVE SMOOTH",
"116 559 OFFCURVE",
"121 548 OFFCURVE",
"117 515 CURVE SMOOTH",
"74 168 LINE SMOOTH",
"67 111 OFFCURVE",
"49 91 OFFCURVE",
"1 83 CURVE",
"-19 -9 LINE",
"-19 -9 OFFCURVE",
"80 0 OFFCURVE",
"153 0 CURVE SMOOTH",
"194 0 OFFCURVE",
"315 -4 OFFCURVE",
"315 -4 CURVE",
"335 80 LINE",
"331 88 LINE",
"269 91 OFFCURVE",
"264 98 OFFCURVE",
"271 160 CURVE SMOOTH",
"279 228 LINE"
);
},
{
closed = 1;
nodes = (
"297 354 LINE",
"302 389 OFFCURVE",
"306 414 OFFCURVE",
"323 506 CURVE SMOOTH",
"326 525 OFFCURVE",
"328 528 OFFCURVE",
"342 528 CURVE SMOOTH",
"408 528 OFFCURVE",
"439 506 OFFCURVE",
"439 458 CURVE SMOOTH",
"439 400 OFFCURVE",
"416 362 OFFCURVE",
"369 344 CURVE"
);
}
);
width = 661;
}
);
leftKerningGroup = H;
rightKerningGroup = R;
unicode = 0052;
},
{
color = 1;
glyphname = S;
layers = (
{
anchors = (
{
name = bottom;
position = "{226, 0}";
},
{
name = top;
position = "{314, 636}";
}
);
background = {
paths = (
{
closed = 1;
nodes = (
"340 -12 OFFCURVE",
"442 78 OFFCURVE",
"442 195 CURVE SMOOTH",
"442 292 OFFCURVE",
"323 336 OFFCURVE",
"243 390 CURVE SMOOTH",
"202 419 OFFCURVE",
"170 449 OFFCURVE",
"170 492 CURVE SMOOTH",
"170 553 OFFCURVE",
"230 599 OFFCURVE",
"306 599 CURVE SMOOTH",
"383 599 OFFCURVE",
"411 580 OFFCURVE",
"411 525 CURVE SMOOTH",
"411 495 OFFCURVE",
"400 451 OFFCURVE",
"400 451 CURVE",
"405 446 LINE",
"441 450 LINE",
"458 542 OFFCURVE",
"482 619 OFFCURVE",
"482 619 CURVE",
"480 624 LINE",
"480 624 OFFCURVE",
"413 648 OFFCURVE",
"328 648 CURVE SMOOTH",
"197 648 OFFCURVE",
"96 559 OFFCURVE",
"96 450 CURVE SMOOTH",
"96 364 OFFCURVE",
"181 320 OFFCURVE",
"255 276 CURVE SMOOTH",
"312 242 OFFCURVE",
"361 207 OFFCURVE",
"361 154 CURVE SMOOTH",
"361 81 OFFCURVE",
"299 32 OFFCURVE",
"211 32 CURVE SMOOTH",
"106 32 OFFCURVE",
"89 61 OFFCURVE",
"107 210 CURVE",
"66 205 LINE",
"54 106 OFFCURVE",
"32 31 OFFCURVE",
"32 31 CURVE",
"36 21 LINE",
"36 21 OFFCURVE",
"102 -12 OFFCURVE",
"192 -12 CURVE SMOOTH"
);
}
);
};
layerId = UUID0;
paths = (
{
closed = 1;
nodes = (
"340 -12 OFFCURVE",
"442 78 OFFCURVE",
"442 195 CURVE SMOOTH",
"442 292 OFFCURVE",
"323 336 OFFCURVE",
"243 390 CURVE SMOOTH",
"202 419 OFFCURVE",
"170 449 OFFCURVE",
"170 492 CURVE SMOOTH",
"170 553 OFFCURVE",
"230 599 OFFCURVE",
"306 599 CURVE SMOOTH",
"383 599 OFFCURVE",
"411 580 OFFCURVE",
"411 525 CURVE SMOOTH",
"411 495 OFFCURVE",
"400 451 OFFCURVE",
"400 451 CURVE",
"405 446 LINE",
"441 450 LINE",
"458 542 OFFCURVE",
"482 619 OFFCURVE",
"482 619 CURVE",
"480 624 LINE",
"480 624 OFFCURVE",
"413 648 OFFCURVE",
"328 648 CURVE SMOOTH",
"197 648 OFFCURVE",
"96 559 OFFCURVE",
"96 450 CURVE SMOOTH",
"96 364 OFFCURVE",
"181 320 OFFCURVE",
"255 276 CURVE SMOOTH",
"312 242 OFFCURVE",
"361 207 OFFCURVE",
"361 154 CURVE SMOOTH",
"361 81 OFFCURVE",
"299 32 OFFCURVE",
"211 32 CURVE SMOOTH",
"106 32 OFFCURVE",
"89 61 OFFCURVE",
"107 210 CURVE",
"66 205 LINE",
"54 106 OFFCURVE",
"32 31 OFFCURVE",
"32 31 CURVE",
"36 21 LINE",
"36 21 OFFCURVE",
"102 -12 OFFCURVE",
"192 -12 CURVE SMOOTH"
);
}
);
width = 507;
},
{
anchors = (
{
name = bottom;
position = "{239, 0}";
},
{
name = top;
position = "{338, 647}";
}
);
background = {
paths = (
{
closed = 1;
nodes = (
"396 -12 OFFCURVE",
"519 74 OFFCURVE",
"519 216 CURVE SMOOTH",
"519 333 OFFCURVE",
"408 371 OFFCURVE",
"333 407 CURVE SMOOTH",
"294 426 OFFCURVE",
"265 444 OFFCURVE",
"265 472 CURVE SMOOTH",
"265 500 OFFCURVE",
"291 521 OFFCURVE",
"328 521 CURVE SMOOTH",
"367 521 OFFCURVE",
"390 502 OFFCURVE",
"390 463 CURVE SMOOTH",
"390 458 OFFCURVE",
"387 435 OFFCURVE",
"387 435 CURVE",
"398 427 LINE",
"516 435 LINE",
"534 525 OFFCURVE",
"563 609 OFFCURVE",
"563 609 CURVE",
"553 631 LINE",
"553 631 OFFCURVE",
"467 659 OFFCURVE",
"360 659 CURVE SMOOTH",
"166 659 OFFCURVE",
"39 566 OFFCURVE",
"39 425 CURVE SMOOTH",
"39 323 OFFCURVE",
"120 280 OFFCURVE",
"191 246 CURVE SMOOTH",
"245 221 OFFCURVE",
"292 201 OFFCURVE",
"292 166 CURVE SMOOTH",
"292 139 OFFCURVE",
"266 121 OFFCURVE",
"227 121 CURVE SMOOTH",
"173 121 OFFCURVE",
"150 160 OFFCURVE",
"156 223 CURVE",
"29 214 LINE",
"18 148 OFFCURVE",
"-13 49 OFFCURVE",
"-13 49 CURVE",
"-3 31 LINE",
"-3 31 OFFCURVE",
"80 -12 OFFCURVE",
"195 -12 CURVE SMOOTH"
);
}
);
};
layerId = UUID1;
paths = (
{
closed = 1;
nodes = (
"396 -12 OFFCURVE",
"519 74 OFFCURVE",
"519 216 CURVE SMOOTH",
"519 333 OFFCURVE",
"408 371 OFFCURVE",
"333 407 CURVE SMOOTH",
"294 426 OFFCURVE",
"265 444 OFFCURVE",
"265 472 CURVE SMOOTH",
"265 500 OFFCURVE",
"291 521 OFFCURVE",
"328 521 CURVE SMOOTH",
"367 521 OFFCURVE",
"390 502 OFFCURVE",
"390 463 CURVE SMOOTH",
"390 458 OFFCURVE",
"387 435 OFFCURVE",
"387 435 CURVE",
"398 427 LINE",
"516 435 LINE",
"534 525 OFFCURVE",
"563 609 OFFCURVE",
"563 609 CURVE",
"553 631 LINE",
"553 631 OFFCURVE",
"467 659 OFFCURVE",
"360 659 CURVE SMOOTH",
"166 659 OFFCURVE",
"39 566 OFFCURVE",
"39 425 CURVE SMOOTH",
"39 323 OFFCURVE",
"120 280 OFFCURVE",
"191 246 CURVE SMOOTH",
"245 221 OFFCURVE",
"292 201 OFFCURVE",
"292 166 CURVE SMOOTH",
"292 139 OFFCURVE",
"266 121 OFFCURVE",
"227 121 CURVE SMOOTH",
"173 121 OFFCURVE",
"150 160 OFFCURVE",
"156 223 CURVE",
"29 214 LINE",
"18 148 OFFCURVE",
"-13 49 OFFCURVE",
"-13 49 CURVE",
"-3 31 LINE",
"-3 31 OFFCURVE",
"80 -12 OFFCURVE",
"195 -12 CURVE SMOOTH"
);
}
);
width = 536;
}
);
leftKerningGroup = S;
rightKerningGroup = S;
unicode = 0053;
},
{
color = 1;
glyphname = Saltillo;
layers = (
{
background = {
paths = (
{
closed = 1;
nodes = (
"180 648 LINE",
"104 633 LINE",
"102 575 OFFCURVE",
"92 461 OFFCURVE",
"73 362 CURVE",
"84 360 LINE",
"114 375 LINE",
"143 468 OFFCURVE",
"173 581 OFFCURVE",
"187 639 CURVE"
);
}
);
};
layerId = UUID0;
paths = (
{
closed = 1;
nodes = (
"185 662 LINE",
"107 647 LINE",
"104 580 OFFCURVE",
"91 450 OFFCURVE",
"65 336 CURVE",
"76 334 LINE",
"106 349 LINE",
"142 456 OFFCURVE",
"176 586 OFFCURVE",
"192 653 CURVE"
);
}
);
width = 177;
},
{
background = {
paths = (
{
closed = 1;
nodes = (
"76 601 LINE",
"94 581 OFFCURVE",
"105 551 OFFCURVE",
"105 525 CURVE SMOOTH",
"105 488 OFFCURVE",
"80 446 OFFCURVE",
"41 419 CURVE",
"41 394 LINE",
"99 348 LINE",
"201 406 OFFCURVE",
"266 487 OFFCURVE",
"266 558 CURVE SMOOTH",
"266 619 OFFCURVE",
"232 659 OFFCURVE",
"181 659 CURVE SMOOTH",
"152 659 OFFCURVE",
"114 642 OFFCURVE",
"79 615 CURVE"
);
}
);
};
layerId = UUID1;
paths = (
{
closed = 1;
nodes = (
"254 659 LINE",
"119 645 LINE",
"115 577 OFFCURVE",
"103 444 OFFCURVE",
"81 326 CURVE",
"99 320 LINE",
"176 345 LINE",
"211 457 OFFCURVE",
"246 583 OFFCURVE",
"261 647 CURVE"
);
}
);
width = 259;
}
);
leftKerningGroup = asterisk;
rightKerningGroup = asterisk;
unicode = A78B;
},
{
color = 1;
glyphname = Germandbls;
layers = (
{
background = {
paths = (
{
closed = 1;
nodes = (
"213 280 LINE",
"230 283 OFFCURVE",
"259 287 OFFCURVE",
"288 287 CURVE SMOOTH",
"333 287 OFFCURVE",
"407 284 OFFCURVE",
"407 284 CURVE",
"426 341 LINE",
"424 345 LINE",
"424 345 OFFCURVE",
"352 334 OFFCURVE",
"322 334 CURVE SMOOTH",
"223 335 LINE",
"256 551 LINE SMOOTH",
"262 589 OFFCURVE",
"266 590 OFFCURVE",
"329 590 CURVE SMOOTH",
"429 590 OFFCURVE",
"453 586 OFFCURVE",
"453 541 CURVE SMOOTH",
"453 514 OFFCURVE",
"444 472 OFFCURVE",
"444 472 CURVE",
"487 476 LINE",
"504 568 OFFCURVE",
"530 643 OFFCURVE",
"530 643 CURVE",
"528 648 LINE",
"466 639 OFFCURVE",
"389 636 OFFCURVE",
"257 636 CURVE SMOOTH",
"200 636 OFFCURVE",
"126 639 OFFCURVE",
"126 639 CURVE",
"115 597 LINE",
"116 594 LINE",
"116 594 OFFCURVE",
"138 596 OFFCURVE",
"149 596 CURVE SMOOTH",
"178 596 OFFCURVE",
"183 585 OFFCURVE",
"178 542 CURVE SMOOTH",
"125 117 LINE SMOOTH",
"118 61 OFFCURVE",
"101 43 OFFCURVE",
"39 31 CURVE",
"29 -12 LINE",
"29 -12 OFFCURVE",
"90 0 OFFCURVE",
"137 0 CURVE SMOOTH",
"188 0 OFFCURVE",
"279 -4 OFFCURVE",
"279 -4 CURVE",
"292 39 LINE",
"291 43 LINE",
"291 43 OFFCURVE",
"242 40 OFFCURVE",
"222 40 CURVE SMOOTH",
"189 40 OFFCURVE",
"181 61 OFFCURVE",
"188 108 CURVE SMOOTH"
);
}
);
};
layerId = UUID0;
paths = (
{
closed = 1;
nodes = (
"574 -12 OFFCURVE",
"683 91 OFFCURVE",
"683 219 CURVE SMOOTH",
"683 311 OFFCURVE",
"610 377 OFFCURVE",
"500 382 CURVE SMOOTH",
"465 383 LINE",
"663 624 LINE",
"653 642 LINE",
"653 642 OFFCURVE",
"440 636 OFFCURVE",
"300 636 CURVE SMOOTH",
"244 636 OFFCURVE",
"126 639 OFFCURVE",
"126 639 CURVE",
"114 598 LINE",
"116 594 LINE",
"116 594 OFFCURVE",
"137 596 OFFCURVE",
"149 596 CURVE SMOOTH",
"178 596 OFFCURVE",
"184 585 OFFCURVE",
"178 542 CURVE SMOOTH",
"125 117 LINE SMOOTH",
"118 61 OFFCURVE",
"100 43 OFFCURVE",
"40 31 CURVE",
"28 -12 LINE",
"28 -12 OFFCURVE",
"89 0 OFFCURVE",
"135 0 CURVE SMOOTH",
"180 0 OFFCURVE",
"249 -4 OFFCURVE",
"249 -4 CURVE",
"264 40 LINE",
"262 43 LINE",
"262 43 OFFCURVE",
"235 40 OFFCURVE",
"221 40 CURVE SMOOTH",
"188 40 OFFCURVE",
"181 54 OFFCURVE",
"188 108 CURVE",
"255 551 LINE SMOOTH",
"261 589 OFFCURVE",
"264 591 OFFCURVE",
"329 591 CURVE SMOOTH",
"565 591 LINE",
"360 335 LINE",
"373 306 LINE",
"373 306 OFFCURVE",
"414 312 OFFCURVE",
"450 312 CURVE SMOOTH",
"552 312 OFFCURVE",
"604 268 OFFCURVE",
"604 186 CURVE SMOOTH",
"604 96 OFFCURVE",
"545 32 OFFCURVE",
"469 32 CURVE SMOOTH",
"363 32 OFFCURVE",
"345 60 OFFCURVE",
"363 200 CURVE",
"322 196 LINE",
"308 108 OFFCURVE",
"291 31 OFFCURVE",
"291 31 CURVE",
"294 21 LINE",
"294 21 OFFCURVE",
"349 -12 OFFCURVE",
"439 -12 CURVE SMOOTH"
);
}
);
width = 710;
},
{
background = {
paths = (
{
closed = 1;
nodes = (
"281 243 LINE",
"298 245 OFFCURVE",
"326 249 OFFCURVE",
"354 249 CURVE SMOOTH",
"397 249 OFFCURVE",
"465 246 OFFCURVE",
"465 246 CURVE",
"493 361 LINE",
"482 375 LINE",
"482 375 OFFCURVE",
"408 369 OFFCURVE",
"380 369 CURVE SMOOTH",
"300 370 LINE",
"323 500 LINE SMOOTH",
"327 522 OFFCURVE",
"332 527 OFFCURVE",
"358 527 CURVE SMOOTH",
"405 527 OFFCURVE",
"421 517 OFFCURVE",
"421 484 CURVE SMOOTH",
"421 467 OFFCURVE",
"414 436 OFFCURVE",
"414 436 CURVE",
"554 444 LINE",
"569 536 OFFCURVE",
"595 643 OFFCURVE",
"595 643 CURVE",
"584 659 LINE",
"534 652 OFFCURVE",
"419 647 OFFCURVE",
"310 647 CURVE SMOOTH",
"220 647 OFFCURVE",
"80 650 OFFCURVE",
"80 650 CURVE",
"61 571 LINE",
"71 557 LINE",
"71 557 OFFCURVE",
"86 559 OFFCURVE",
"96 559 CURVE SMOOTH",
"117 559 OFFCURVE",
"121 548 OFFCURVE",
"116 505 CURVE SMOOTH",
"73 170 LINE SMOOTH",
"65 110 OFFCURVE",
"49 90 OFFCURVE",
"0 82 CURVE",
"-20 -10 LINE",
"-20 -10 OFFCURVE",
"88 0 OFFCURVE",
"191 0 CURVE SMOOTH",
"236 0 OFFCURVE",
"349 -3 OFFCURVE",
"349 -3 CURVE",
"375 105 LINE",
"361 123 LINE",
"361 123 OFFCURVE",
"335 115 OFFCURVE",
"305 115 CURVE SMOOTH",
"272 115 OFFCURVE",
"266 127 OFFCURVE",
"272 175 CURVE SMOOTH"
);
}
);
};
layerId = UUID1;
paths = (
{
closed = 1;
nodes = (
"702 -12 OFFCURVE",
"824 94 OFFCURVE",
"824 249 CURVE SMOOTH",
"824 348 OFFCURVE",
"762 422 OFFCURVE",
"669 422 CURVE SMOOTH",
"652 422 LINE",
"832 602 LINE",
"812 655 LINE",
"812 655 OFFCURVE",
"528 647 OFFCURVE",
"403 647 CURVE SMOOTH",
"313 647 OFFCURVE",
"80 650 OFFCURVE",
"80 650 CURVE",
"61 571 LINE",
"72 557 LINE",
"72 557 OFFCURVE",
"86 559 OFFCURVE",
"97 559 CURVE SMOOTH",
"118 559 OFFCURVE",
"121 548 OFFCURVE",
"116 505 CURVE SMOOTH",
"74 170 LINE SMOOTH",
"66 110 OFFCURVE",
"49 90 OFFCURVE",
"0 82 CURVE",
"-20 -10 LINE",
"-20 -10 OFFCURVE",
"88 0 OFFCURVE",
"191 0 CURVE SMOOTH",
"223 0 OFFCURVE",
"303 -3 OFFCURVE",
"303 -3 CURVE",
"327 98 LINE",
"313 116 LINE",
"313 116 OFFCURVE",
"304 115 OFFCURVE",
"290 115 CURVE SMOOTH",
"269 115 OFFCURVE",
"265 127 OFFCURVE",
"271 175 CURVE",
"323 500 LINE SMOOTH",
"326 522 OFFCURVE",
"333 527 OFFCURVE",
"357 527 CURVE SMOOTH",
"565 527 LINE",
"385 335 LINE",
"418 276 LINE",
"418 276 OFFCURVE",
"474 290 OFFCURVE",
"518 290 CURVE SMOOTH",
"578 290 OFFCURVE",
"610 263 OFFCURVE",
"610 215 CURVE SMOOTH",
"610 159 OFFCURVE",
"586 121 OFFCURVE",
"541 121 CURVE SMOOTH",
"504 121 OFFCURVE",
"488 151 OFFCURVE",
"496 213 CURVE",
"379 204 LINE",
"367 142 OFFCURVE",
"339 49 OFFCURVE",
"339 49 CURVE",
"349 31 LINE",
"349 31 OFFCURVE",
"418 -12 OFFCURVE",
"526 -12 CURVE SMOOTH"
);
}
);
width = 832;
}
);
leftKerningGroup = H;
rightKerningGroup = uni1E9E;
unicode = 1E9E;
},
{
color = 4;
glyphname = Schwa;
layers = (
{
anchors = (
{
name = bottom;
position = "{290, 0}";
},
{
name = top;
position = "{368, 636}";
}
);
background = {
paths = (
{
closed = 1;
nodes = (
"176 35 OFFCURVE",
"103 134 OFFCURVE",
"103 285 CURVE SMOOTH",
"103 461 OFFCURVE",
"207 593 OFFCURVE",
"344 593 CURVE SMOOTH",
"458 593 OFFCURVE",
"533 494 OFFCURVE",
"533 343 CURVE SMOOTH",
"533 166 OFFCURVE",
"429 35 OFFCURVE",
"287 35 CURVE SMOOTH"
);
},
{
closed = 1;
nodes = (
"466 -12 OFFCURVE",
"620 163 OFFCURVE",
"620 382 CURVE SMOOTH",
"620 536 OFFCURVE",
"511 648 OFFCURVE",
"363 648 CURVE SMOOTH",
"173 648 OFFCURVE",
"21 473 OFFCURVE",
"21 254 CURVE SMOOTH",
"21 100 OFFCURVE",
"127 -12 OFFCURVE",
"272 -12 CURVE SMOOTH"
);
}
);
};
layerId = UUID0;
paths = (
{
closed = 1;
nodes = (
"435 -12 OFFCURVE",
"592 147 OFFCURVE",
"612 330 CURVE SMOOTH",
"631 508 OFFCURVE",
"515 647 OFFCURVE",
"357 647 CURVE SMOOTH",
"289 647 OFFCURVE",
"232 624 OFFCURVE",
"123 557 CURVE",
"132 529 LINE",
"141 527 LINE",
"200 553 OFFCURVE",
"274 571 OFFCURVE",
"328 571 CURVE SMOOTH",
"461 571 OFFCURVE",
"547 455 OFFCURVE",
"530 299 CURVE SMOOTH",
"513 146 OFFCURVE",
"413 33 OFFCURVE",
"289 33 CURVE SMOOTH",
"179 33 OFFCURVE",
"104 128 OFFCURVE",
"101 274 CURVE",
"26 287 LINE",
"10 109 OFFCURVE",
"104 -12 OFFCURVE",
"260 -12 CURVE SMOOTH"
);
},
{
closed = 1;
nodes = (
"563 263 LINE",
"566 303 LINE",
"37 303 LINE",
"26 286 LINE",
"31 257 LINE"
);
}
);
width = 636;
},
{
anchors = (
{
name = bottom;
position = "{286, 0}";
},
{
name = top;
position = "{365, 647}";
}
);
background = {
paths = (
{
closed = 1;
nodes = (
"265 114 OFFCURVE",
"245 152 OFFCURVE",
"245 234 CURVE SMOOTH",
"245 438 OFFCURVE",
"273 522 OFFCURVE",
"340 522 CURVE SMOOTH",
"384 522 OFFCURVE",
"405 484 OFFCURVE",
"405 402 CURVE SMOOTH",
"405 197 OFFCURVE",
"377 114 OFFCURVE",
"308 114 CURVE SMOOTH"
);
},
{
closed = 1;
nodes = (
"510 -12 OFFCURVE",
"636 141 OFFCURVE",
"636 398 CURVE SMOOTH",
"636 571 OFFCURVE",
"539 659 OFFCURVE",
"370 659 CURVE SMOOTH",
"138 659 OFFCURVE",
"16 513 OFFCURVE",
"16 256 CURVE SMOOTH",
"16 82 OFFCURVE",
"116 -12 OFFCURVE",
"281 -12 CURVE SMOOTH"
);
}
);
};
layerId = UUID1;
paths = (
{
closed = 1;
nodes = (
"472 -12 OFFCURVE",
"606 112 OFFCURVE",
"631 317 CURVE SMOOTH",
"656 525 OFFCURVE",
"549 659 OFFCURVE",
"354 659 CURVE SMOOTH",
"265 659 OFFCURVE",
"190 634 OFFCURVE",
"68 557 CURVE",
"86 477 LINE",
"99 470 LINE",
"153 494 OFFCURVE",
"227 512 OFFCURVE",
"286 512 CURVE SMOOTH",
"394 512 OFFCURVE",
"421 462 OFFCURVE",
"402 302 CURVE SMOOTH",
"386 171 OFFCURVE",
"354 114 OFFCURVE",
"297 114 CURVE SMOOTH",
"243 114 OFFCURVE",
"229 165 OFFCURVE",
"244 303 CURVE",
"16 318 LINE",
"-8 104 OFFCURVE",
"81 -12 OFFCURVE",
"274 -12 CURVE SMOOTH"
);
},
{
closed = 1;
nodes = (
"497 256 LINE",
"507 336 LINE",
"28 336 LINE",
"16 314 LINE",
"49 237 LINE"
);
}
);
width = 630;
}
);
leftKerningGroup = O;
rightKerningGroup = O;
unicode = 018F;
},
{
color = 1;
glyphname = T;
layers = (
{
anchors = (
{
name = bottom;
position = "{234, 0}";
},
{
name = center;
position = "{273, 318}";
},
{
name = top;
position = "{312, 636}";
}
);
background = {
paths = (
{
closed = 1;
nodes = (
"218 162 LINE SMOOTH",
"204 54 OFFCURVE",
"196 45 OFFCURVE",
"106 36 CURVE",
"94 -4 LINE",
"94 -4 OFFCURVE",
"177 0 OFFCURVE",
"223 0 CURVE SMOOTH",
"269 0 OFFCURVE",
"363 -3 OFFCURVE",
"363 -3 CURVE",
"377 40 LINE",
"375 44 LINE",
"375 44 OFFCURVE",
"355 41 OFFCURVE",
"320 41 CURVE SMOOTH",
"287 41 OFFCURVE",
"273 56 OFFCURVE",
"273 92 CURVE SMOOTH",
"273 130 OFFCURVE",
"331 507 OFFCURVE",
"351 601 CURVE",
"493 594 OFFCURVE",
"496 591 OFFCURVE",
"499 472 CURVE",
"543 476 LINE",
"543 476 OFFCURVE",
"541 557 OFFCURVE",
"549 640 CURVE",
"541 647 LINE",
"459 636 LINE",
"161 636 LINE",
"85 647 LINE",
"75 640 LINE",
"62 557 OFFCURVE",
"40 472 OFFCURVE",
"40 472 CURVE",
"84 476 LINE",
"114 592 OFFCURVE",
"116 594 OFFCURVE",
"271 601 CURVE"
);
}
);
};
layerId = UUID0;
paths = (
{
closed = 1;
nodes = (
"218 162 LINE SMOOTH",
"204 54 OFFCURVE",
"196 45 OFFCURVE",
"106 36 CURVE",
"94 -4 LINE",
"94 -4 OFFCURVE",
"177 0 OFFCURVE",
"223 0 CURVE SMOOTH",
"269 0 OFFCURVE",
"363 -3 OFFCURVE",
"363 -3 CURVE",
"377 40 LINE",
"375 44 LINE",
"375 44 OFFCURVE",
"355 41 OFFCURVE",
"320 41 CURVE SMOOTH",
"287 41 OFFCURVE",
"273 56 OFFCURVE",
"273 92 CURVE SMOOTH",
"273 130 OFFCURVE",
"331 507 OFFCURVE",
"351 601 CURVE",
"493 594 OFFCURVE",
"496 591 OFFCURVE",
"499 472 CURVE",
"543 476 LINE",
"543 476 OFFCURVE",
"541 557 OFFCURVE",
"549 640 CURVE",
"541 647 LINE",
"459 636 LINE",
"161 636 LINE",
"85 647 LINE",
"75 640 LINE",
"62 557 OFFCURVE",
"40 472 OFFCURVE",
"40 472 CURVE",
"84 476 LINE",
"114 592 OFFCURVE",
"116 594 OFFCURVE",
"271 601 CURVE"
);
}
);
width = 523;
},
{
anchors = (
{
name = bottom;
position = "{260, 0}";
},
{
name = center;
position = "{300, 324}";
},
{
name = top;
position = "{339, 647}";
}
);
background = {
paths = (
{
closed = 1;
nodes = (
"181 168 LINE SMOOTH",
"173 106 OFFCURVE",
"154 90 OFFCURVE",
"74 83 CURVE",
"55 -9 LINE",
"55 -9 OFFCURVE",
"192 0 OFFCURVE",
"255 0 CURVE SMOOTH",
"311 0 OFFCURVE",
"454 -6 OFFCURVE",
"454 -6 CURVE",
"474 88 LINE",
"470 94 LINE",
"470 94 OFFCURVE",
"444 91 OFFCURVE",
"420 91 CURVE SMOOTH",
"390 91 OFFCURVE",
"377 105 OFFCURVE",
"377 141 CURVE SMOOTH",
"377 177 OFFCURVE",
"413 427 OFFCURVE",
"428 526 CURVE",
"476 526 OFFCURVE",
"478 506 OFFCURVE",
"472 382 CURVE",
"597 390 LINE",
"597 390 OFFCURVE",
"610 527 OFFCURVE",
"624 644 CURVE",
"613 658 LINE",
"492 647 LINE",
"187 647 LINE",
"72 658 LINE",
"57 644 LINE",
"42 530 OFFCURVE",
"17 382 OFFCURVE",
"17 382 CURVE",
"143 390 LINE",
"165 501 OFFCURVE",
"176 526 OFFCURVE",
"225 526 CURVE"
);
}
);
};
layerId = UUID1;
paths = (
{
closed = 1;
nodes = (
"181 168 LINE SMOOTH",
"173 106 OFFCURVE",
"154 90 OFFCURVE",
"74 83 CURVE",
"55 -9 LINE",
"55 -9 OFFCURVE",
"192 0 OFFCURVE",
"255 0 CURVE SMOOTH",
"311 0 OFFCURVE",
"454 -6 OFFCURVE",
"454 -6 CURVE",
"474 88 LINE",
"470 94 LINE",
"470 94 OFFCURVE",
"444 91 OFFCURVE",
"420 91 CURVE SMOOTH",
"390 91 OFFCURVE",
"377 105 OFFCURVE",
"377 141 CURVE SMOOTH",
"377 177 OFFCURVE",
"413 427 OFFCURVE",
"428 526 CURVE",
"476 526 OFFCURVE",
"478 506 OFFCURVE",
"472 382 CURVE",
"597 390 LINE",
"597 390 OFFCURVE",
"610 527 OFFCURVE",
"624 644 CURVE",
"613 658 LINE",
"492 647 LINE",
"187 647 LINE",
"72 658 LINE",
"57 644 LINE",
"42 530 OFFCURVE",
"17 382 OFFCURVE",
"17 382 CURVE",
"143 390 LINE",
"165 501 OFFCURVE",
"176 526 OFFCURVE",
"225 526 CURVE"
);
}
);
width = 578;
}
);
leftKerningGroup = T;
rightKerningGroup = T;
unicode = 0054;
},
{
color = 0;
glyphname = Tbar;
layers = (
{
components = (
{
name = T;
}
);
layerId = UUID0;
paths = (
{
closed = 1;
nodes = (
"279 345 LINE",
"132 346 LINE",
"125 307 LINE",
"134 298 LINE",
"257 299 LINE",
"406 300 LINE",
"410 337 LINE",
"397 350 LINE"
);
}
);
width = 526;
},
{
components = (
{
name = T;
}
);
layerId = UUID1;
paths = (
{
closed = 1;
nodes = (
"317 296 LINE",
"88 297 LINE",
"80 239 LINE",
"91 229 LINE",
"291 230 LINE",
"498 230 LINE",
"503 285 LINE",
"488 300 LINE"
);
}
);
width = 578;
}
);
leftKerningGroup = T;
rightKerningGroup = T;
unicode = 0166;
},
{
color = 1;
glyphname = U;
layers = (
{
anchors = (
{
name = bottom;
position = "{300, 0}";
},
{
name = ogonek;
position = "{461, 40}";
},
{
name = top;
position = "{378, 636}";
},
{
name = topright;
position = "{685, 636}";
}
);
background = {
paths = (
{
closed = 1;
nodes = (
"222 546 LINE SMOOTH",
"229 584 OFFCURVE",
"242 596 OFFCURVE",
"291 603 CURVE",
"300 646 LINE",
"300 646 OFFCURVE",
"240 636 OFFCURVE",
"199 636 CURVE SMOOTH",
"163 636 OFFCURVE",
"93 639 OFFCURVE",
"93 639 CURVE",
"81 598 LINE",
"82 594 LINE",
"82 594 OFFCURVE",
"103 596 OFFCURVE",
"115 596 CURVE SMOOTH",
"145 596 OFFCURVE",
"150 585 OFFCURVE",
"145 542 CURVE SMOOTH",
"104 210 LINE SMOOTH",
"102 196 OFFCURVE",
"101 183 OFFCURVE",
"101 170 CURVE SMOOTH",
"100 54 OFFCURVE",
"165 -12 OFFCURVE",
"286 -12 CURVE SMOOTH",
"436 -12 OFFCURVE",
"533 68 OFFCURVE",
"550 206 CURVE SMOOTH",
"592 546 LINE SMOOTH",
"597 588 OFFCURVE",
"608 596 OFFCURVE",
"665 603 CURVE",
"675 646 LINE",
"675 646 OFFCURVE",
"622 636 OFFCURVE",
"581 636 CURVE SMOOTH",
"545 636 OFFCURVE",
"474 639 OFFCURVE",
"474 639 CURVE",
"463 598 LINE",
"463 594 LINE",
"463 594 OFFCURVE",
"494 596 OFFCURVE",
"506 596 CURVE SMOOTH",
"534 596 OFFCURVE",
"538 588 OFFCURVE",
"535 542 CURVE",
"535 542 OFFCURVE",
"509 285 OFFCURVE",
"500 215 CURVE SMOOTH",
"487 102 OFFCURVE",
"422 41 OFFCURVE",
"315 41 CURVE SMOOTH",
"223 41 OFFCURVE",
"175 98 OFFCURVE",
"175 202 CURVE SMOOTH",
"175 217 OFFCURVE",
"176 234 OFFCURVE",
"178 252 CURVE SMOOTH"
);
}
);
};
layerId = UUID0;
paths = (
{
closed = 1;
nodes = (
"222 546 LINE SMOOTH",
"229 584 OFFCURVE",
"242 596 OFFCURVE",
"291 603 CURVE",
"300 646 LINE",
"300 646 OFFCURVE",
"240 636 OFFCURVE",
"199 636 CURVE SMOOTH",
"163 636 OFFCURVE",
"93 639 OFFCURVE",
"93 639 CURVE",
"81 598 LINE",
"82 594 LINE",
"82 594 OFFCURVE",
"103 596 OFFCURVE",
"115 596 CURVE SMOOTH",
"145 596 OFFCURVE",
"150 585 OFFCURVE",
"145 542 CURVE SMOOTH",
"104 210 LINE SMOOTH",
"102 196 OFFCURVE",
"101 183 OFFCURVE",
"101 170 CURVE SMOOTH",
"100 54 OFFCURVE",
"165 -12 OFFCURVE",
"286 -12 CURVE SMOOTH",
"436 -12 OFFCURVE",
"533 68 OFFCURVE",
"550 206 CURVE SMOOTH",
"592 546 LINE SMOOTH",
"597 588 OFFCURVE",
"608 596 OFFCURVE",
"665 603 CURVE",
"675 646 LINE",
"675 646 OFFCURVE",
"622 636 OFFCURVE",
"581 636 CURVE SMOOTH",
"545 636 OFFCURVE",
"474 639 OFFCURVE",
"474 639 CURVE",
"463 598 LINE",
"463 594 LINE",
"463 594 OFFCURVE",
"494 596 OFFCURVE",
"506 596 CURVE SMOOTH",
"534 596 OFFCURVE",
"538 588 OFFCURVE",
"535 542 CURVE",
"535 542 OFFCURVE",
"509 285 OFFCURVE",
"500 215 CURVE SMOOTH",
"487 102 OFFCURVE",
"422 41 OFFCURVE",
"315 41 CURVE SMOOTH",
"223 41 OFFCURVE",
"175 98 OFFCURVE",
"175 202 CURVE SMOOTH",
"175 217 OFFCURVE",
"176 234 OFFCURVE",
"178 252 CURVE SMOOTH"
);
}
);
width = 655;
},
{
anchors = (
{
name = bottom;
position = "{274, 0}";
},
{
name = ogonek;
position = "{461, 40}";
},
{
name = top;
position = "{353, 647}";
},
{
name = topright;
position = "{635, 647}";
}
);
background = {
paths = (
{
closed = 1;
nodes = (
"292 509 LINE SMOOTH",
"296 541 OFFCURVE",
"310 554 OFFCURVE",
"344 558 CURVE",
"365 651 LINE",
"365 651 OFFCURVE",
"271 647 OFFCURVE",
"233 647 CURVE SMOOTH",
"155 647 OFFCURVE",
"59 650 OFFCURVE",
"59 650 CURVE",
"38 561 LINE",
"40 557 LINE",
"40 557 OFFCURVE",
"58 559 OFFCURVE",
"68 559 CURVE SMOOTH",
"90 559 OFFCURVE",
"93 550 OFFCURVE",
"88 505 CURVE SMOOTH",
"50 199 LINE SMOOTH",
"48 185 OFFCURVE",
"47 172 OFFCURVE",
"47 159 CURVE SMOOTH",
"47 43 OFFCURVE",
"120 -12 OFFCURVE",
"274 -12 CURVE SMOOTH",
"442 -12 OFFCURVE",
"532 68 OFFCURVE",
"554 234 CURVE SMOOTH",
"589 516 LINE SMOOTH",
"592 540 OFFCURVE",
"598 546 OFFCURVE",
"640 560 CURVE",
"659 650 LINE",
"659 650 OFFCURVE",
"577 647 OFFCURVE",
"516 647 CURVE SMOOTH",
"481 647 OFFCURVE",
"400 650 OFFCURVE",
"400 650 CURVE",
"378 561 LINE",
"381 557 LINE",
"381 557 OFFCURVE",
"393 559 OFFCURVE",
"402 559 CURVE SMOOTH",
"421 559 OFFCURVE",
"425 547 OFFCURVE",
"420 505 CURVE",
"420 505 OFFCURVE",
"392 265 OFFCURVE",
"384 203 CURVE SMOOTH",
"375 139 OFFCURVE",
"354 115 OFFCURVE",
"308 115 CURVE SMOOTH",
"268 115 OFFCURVE",
"248 141 OFFCURVE",
"249 192 CURVE SMOOTH",
"249 198 OFFCURVE",
"250 211 OFFCURVE",
"251 220 CURVE SMOOTH"
);
}
);
};
layerId = UUID1;
paths = (
{
closed = 1;
nodes = (
"292 509 LINE SMOOTH",
"296 541 OFFCURVE",
"310 554 OFFCURVE",
"344 558 CURVE",
"365 651 LINE",
"365 651 OFFCURVE",
"271 647 OFFCURVE",
"233 647 CURVE SMOOTH",
"155 647 OFFCURVE",
"59 650 OFFCURVE",
"59 650 CURVE",
"38 561 LINE",
"40 557 LINE",
"40 557 OFFCURVE",
"58 559 OFFCURVE",
"68 559 CURVE SMOOTH",
"90 559 OFFCURVE",
"93 550 OFFCURVE",
"88 505 CURVE SMOOTH",
"50 199 LINE SMOOTH",
"48 185 OFFCURVE",
"47 172 OFFCURVE",
"47 159 CURVE SMOOTH",
"47 43 OFFCURVE",
"120 -12 OFFCURVE",
"274 -12 CURVE SMOOTH",
"442 -12 OFFCURVE",
"532 68 OFFCURVE",
"554 234 CURVE SMOOTH",
"589 516 LINE SMOOTH",
"592 540 OFFCURVE",
"598 546 OFFCURVE",
"640 560 CURVE",
"659 650 LINE",
"659 650 OFFCURVE",
"577 647 OFFCURVE",
"516 647 CURVE SMOOTH",
"481 647 OFFCURVE",
"400 650 OFFCURVE",
"400 650 CURVE",
"378 561 LINE",
"381 557 LINE",
"381 557 OFFCURVE",
"393 559 OFFCURVE",
"402 559 CURVE SMOOTH",
"421 559 OFFCURVE",
"425 547 OFFCURVE",
"420 505 CURVE",
"420 505 OFFCURVE",
"392 265 OFFCURVE",
"384 203 CURVE SMOOTH",
"375 139 OFFCURVE",
"354 115 OFFCURVE",
"308 115 CURVE SMOOTH",
"268 115 OFFCURVE",
"248 141 OFFCURVE",
"249 192 CURVE SMOOTH",
"249 198 OFFCURVE",
"250 211 OFFCURVE",
"251 220 CURVE SMOOTH"
);
}
);
width = 605;
}
);
leftKerningGroup = U;
rightKerningGroup = U;
unicode = 0055;
},
{
color = 1;
glyphname = Uhorn;
layers = (
{
anchors = (
{
name = bottom;
position = "{304, 0}";
},
{
name = top;
position = "{362, 636}";
}
);
background = {
paths = (
{
closed = 1;
nodes = (
"224 544 LINE SMOOTH",
"230 582 OFFCURVE",
"243 594 OFFCURVE",
"292 601 CURVE",
"301 646 LINE",
"301 646 OFFCURVE",
"240 637 OFFCURVE",
"199 637 CURVE SMOOTH",
"161 637 OFFCURVE",
"89 640 OFFCURVE",
"89 640 CURVE",
"77 596 LINE",
"78 592 LINE",
"78 592 OFFCURVE",
"100 594 OFFCURVE",
"111 594 CURVE SMOOTH",
"140 594 OFFCURVE",
"145 583 OFFCURVE",
"140 540 CURVE SMOOTH",
"99 209 LINE SMOOTH",
"82 68 OFFCURVE",
"148 -12 OFFCURVE",
"283 -12 CURVE SMOOTH",
"434 -12 OFFCURVE",
"531 68 OFFCURVE",
"548 208 CURVE SMOOTH",
"590 544 LINE SMOOTH",
"595 589 OFFCURVE",
"620 595 OFFCURVE",
"649 609 CURVE SMOOTH",
"679 624 OFFCURVE",
"712 655 OFFCURVE",
"712 714 CURVE SMOOTH",
"712 744 OFFCURVE",
"695 763 OFFCURVE",
"668 763 CURVE SMOOTH",
"653 763 OFFCURVE",
"633 753 OFFCURVE",
"611 737 CURVE",
"607 723 LINE",
"623 711 OFFCURVE",
"632 693 OFFCURVE",
"632 677 CURVE SMOOTH",
"632 652 OFFCURVE",
"618 637 OFFCURVE",
"587 637 CURVE SMOOTH",
"538 637 OFFCURVE",
"468 640 OFFCURVE",
"468 640 CURVE",
"456 596 LINE",
"458 592 LINE",
"458 592 OFFCURVE",
"487 594 OFFCURVE",
"499 594 CURVE SMOOTH",
"526 594 OFFCURVE",
"530 587 OFFCURVE",
"527 540 CURVE",
"527 540 OFFCURVE",
"501 284 OFFCURVE",
"493 214 CURVE SMOOTH",
"479 104 OFFCURVE",
"416 45 OFFCURVE",
"313 45 CURVE SMOOTH",
"211 45 OFFCURVE",
"164 118 OFFCURVE",
"180 250 CURVE"
);
}
);
};
layerId = UUID0;
paths = (
{
closed = 1;
nodes = (
"592 546 LINE",
"597 591 OFFCURVE",
"622 597 OFFCURVE",
"651 611 CURVE SMOOTH",
"681 626 OFFCURVE",
"714 657 OFFCURVE",
"714 716 CURVE SMOOTH",
"714 746 OFFCURVE",
"697 765 OFFCURVE",
"670 765 CURVE SMOOTH",
"655 765 OFFCURVE",
"635 755 OFFCURVE",
"613 739 CURVE",
"609 725 LINE",
"625 713 OFFCURVE",
"634 695 OFFCURVE",
"634 679 CURVE SMOOTH",
"634 654 OFFCURVE",
"621 637 OFFCURVE",
"581 637 CURVE"
);
},
{
closed = 1;
nodes = (
"222 546 LINE",
"229 584 OFFCURVE",
"242 596 OFFCURVE",
"291 603 CURVE",
"300 646 LINE",
"300 646 OFFCURVE",
"240 636 OFFCURVE",
"199 636 CURVE SMOOTH",
"163 636 OFFCURVE",
"93 639 OFFCURVE",
"93 639 CURVE",
"81 598 LINE",
"82 594 LINE",
"82 594 OFFCURVE",
"103 596 OFFCURVE",
"115 596 CURVE SMOOTH",
"145 596 OFFCURVE",
"150 585 OFFCURVE",
"145 542 CURVE SMOOTH",
"104 210 LINE SMOOTH",
"102 196 OFFCURVE",
"101 183 OFFCURVE",
"101 170 CURVE SMOOTH",
"100 54 OFFCURVE",
"165 -12 OFFCURVE",
"286 -12 CURVE SMOOTH",
"436 -12 OFFCURVE",
"533 68 OFFCURVE",
"550 206 CURVE SMOOTH",
"592 546 LINE",
"581 637 LINE",
"545 637 OFFCURVE",
"474 639 OFFCURVE",
"474 639 CURVE",
"463 598 LINE",
"463 594 LINE",
"463 594 OFFCURVE",
"494 596 OFFCURVE",
"506 596 CURVE SMOOTH",
"534 596 OFFCURVE",
"538 588 OFFCURVE",
"535 542 CURVE",
"535 542 OFFCURVE",
"509 285 OFFCURVE",
"500 215 CURVE",
"487 102 OFFCURVE",
"422 41 OFFCURVE",
"315 41 CURVE SMOOTH",
"223 41 OFFCURVE",
"175 98 OFFCURVE",
"175 202 CURVE SMOOTH",
"175 217 OFFCURVE",
"176 234 OFFCURVE",
"178 252 CURVE"
);
}
);
width = 663;
},
{
anchors = (
{
name = bottom;
position = "{296, 0}";
},
{
name = top;
position = "{355, 647}";
}
);
background = {
paths = (
{
closed = 1;
nodes = (
"292 509 LINE SMOOTH",
"297 541 OFFCURVE",
"311 554 OFFCURVE",
"344 558 CURVE",
"365 651 LINE",
"365 651 OFFCURVE",
"271 647 OFFCURVE",
"233 647 CURVE SMOOTH",
"155 647 OFFCURVE",
"59 650 OFFCURVE",
"59 650 CURVE",
"38 561 LINE",
"40 557 LINE",
"40 557 OFFCURVE",
"58 559 OFFCURVE",
"68 559 CURVE SMOOTH",
"90 559 OFFCURVE",
"93 549 OFFCURVE",
"88 505 CURVE SMOOTH",
"50 199 LINE SMOOTH",
"32 52 OFFCURVE",
"97 -12 OFFCURVE",
"264 -12 CURVE SMOOTH",
"436 -12 OFFCURVE",
"535 72 OFFCURVE",
"554 234 CURVE SMOOTH",
"589 516 LINE SMOOTH",
"594 554 OFFCURVE",
"599 568 OFFCURVE",
"663 604 CURVE SMOOTH",
"729 645 OFFCURVE",
"750 680 OFFCURVE",
"750 744 CURVE SMOOTH",
"750 791 OFFCURVE",
"722 822 OFFCURVE",
"676 822 CURVE SMOOTH",
"650 822 OFFCURVE",
"613 805 OFFCURVE",
"580 778 CURVE",
"575 764 LINE",
"588 749 OFFCURVE",
"595 727 OFFCURVE",
"595 706 CURVE SMOOTH",
"595 667 OFFCURVE",
"578 647 OFFCURVE",
"532 647 CURVE SMOOTH",
"489 647 OFFCURVE",
"400 650 OFFCURVE",
"400 650 CURVE",
"379 561 LINE",
"381 557 LINE",
"381 557 OFFCURVE",
"393 559 OFFCURVE",
"403 559 CURVE SMOOTH",
"422 559 OFFCURVE",
"426 546 OFFCURVE",
"421 505 CURVE",
"421 505 OFFCURVE",
"392 265 OFFCURVE",
"384 203 CURVE SMOOTH",
"377 141 OFFCURVE",
"354 115 OFFCURVE",
"308 115 CURVE SMOOTH",
"265 115 OFFCURVE",
"243 154 OFFCURVE",
"251 220 CURVE"
);
}
);
};
layerId = UUID1;
paths = (
{
closed = 1;
nodes = (
"589 516 LINE",
"594 554 OFFCURVE",
"599 568 OFFCURVE",
"663 604 CURVE SMOOTH",
"729 645 OFFCURVE",
"750 680 OFFCURVE",
"750 744 CURVE SMOOTH",
"750 791 OFFCURVE",
"722 822 OFFCURVE",
"676 822 CURVE SMOOTH",
"650 822 OFFCURVE",
"613 805 OFFCURVE",
"580 778 CURVE",
"575 764 LINE",
"588 749 OFFCURVE",
"595 727 OFFCURVE",
"595 706 CURVE SMOOTH",
"595 667 OFFCURVE",
"578 647 OFFCURVE",
"532 647 CURVE"
);
},
{
closed = 1;
nodes = (
"292 509 LINE",
"296 541 OFFCURVE",
"310 554 OFFCURVE",
"344 558 CURVE",
"365 651 LINE",
"365 651 OFFCURVE",
"271 647 OFFCURVE",
"233 647 CURVE SMOOTH",
"155 647 OFFCURVE",
"59 650 OFFCURVE",
"59 650 CURVE",
"38 561 LINE",
"40 557 LINE",
"40 557 OFFCURVE",
"58 559 OFFCURVE",
"68 559 CURVE SMOOTH",
"90 559 OFFCURVE",
"93 550 OFFCURVE",
"88 505 CURVE SMOOTH",
"50 199 LINE SMOOTH",
"48 185 OFFCURVE",
"47 172 OFFCURVE",
"47 159 CURVE SMOOTH",
"47 43 OFFCURVE",
"120 -12 OFFCURVE",
"274 -12 CURVE SMOOTH",
"442 -12 OFFCURVE",
"532 68 OFFCURVE",
"554 234 CURVE SMOOTH",
"589 516 LINE",
"532 647 LINE",
"497 647 OFFCURVE",
"400 650 OFFCURVE",
"400 650 CURVE",
"378 561 LINE",
"381 557 LINE",
"381 557 OFFCURVE",
"393 559 OFFCURVE",
"402 559 CURVE SMOOTH",
"421 559 OFFCURVE",
"425 547 OFFCURVE",
"420 505 CURVE",
"420 505 OFFCURVE",
"392 265 OFFCURVE",
"384 203 CURVE",
"375 139 OFFCURVE",
"354 115 OFFCURVE",
"308 115 CURVE SMOOTH",
"268 115 OFFCURVE",
"248 141 OFFCURVE",
"249 192 CURVE SMOOTH",
"249 198 OFFCURVE",
"250 211 OFFCURVE",
"251 220 CURVE"
);
}
);
width = 649;
}
);
leftKerningGroup = U;
rightKerningGroup = U;
unicode = 01AF;
},
{
color = 1;
glyphname = Uogonek;
layers = (
{
background = {
paths = (
{
closed = 1;
nodes = (
"675 646 OFFCURVE",
"622 636 OFFCURVE",
"581 636 CURVE SMOOTH",
"545 636 OFFCURVE",
"474 639 OFFCURVE",
"474 639 CURVE",
"463 598 LINE",
"463 594 LINE",
"463 594 OFFCURVE",
"494 596 OFFCURVE",
"506 596 CURVE SMOOTH",
"534 596 OFFCURVE",
"538 589 OFFCURVE",
"535 542 CURVE",
"535 542 OFFCURVE",
"509 285 OFFCURVE",
"500 215 CURVE SMOOTH",
"486 101 OFFCURVE",
"421 41 OFFCURVE",
"315 41 CURVE SMOOTH",
"224 41 OFFCURVE",
"175 97 OFFCURVE",
"175 202 CURVE SMOOTH",
"175 217 OFFCURVE",
"176 234 OFFCURVE",
"178 252 CURVE SMOOTH",
"222 546 LINE SMOOTH",
"228 584 OFFCURVE",
"242 596 OFFCURVE",
"291 603 CURVE",
"300 646 LINE",
"300 646 OFFCURVE",
"240 636 OFFCURVE",
"199 636 CURVE SMOOTH",
"163 636 OFFCURVE",
"93 639 OFFCURVE",
"93 639 CURVE",
"81 598 LINE",
"82 594 LINE",
"82 594 OFFCURVE",
"103 596 OFFCURVE",
"115 596 CURVE SMOOTH",
"144 596 OFFCURVE",
"150 586 OFFCURVE",
"145 542 CURVE SMOOTH",
"104 210 LINE SMOOTH",
"102 196 OFFCURVE",
"101 183 OFFCURVE",
"101 170 CURVE SMOOTH",
"100 53 OFFCURVE",
"166 -12 OFFCURVE",
"286 -12 CURVE SMOOTH",
"319 -12 OFFCURVE",
"351 -8 OFFCURVE",
"379 0 CURVE",
"307 -71 OFFCURVE",
"277 -118 OFFCURVE",
"277 -158 CURVE SMOOTH",
"277 -209 OFFCURVE",
"314 -241 OFFCURVE",
"373 -241 CURVE",
"424 -224 OFFCURVE",
"477 -178 OFFCURVE",
"477 -178 CURVE",
"467 -159 LINE",
"467 -159 OFFCURVE",
"427 -182 OFFCURVE",
"390 -182 CURVE SMOOTH",
"361 -182 OFFCURVE",
"341 -163 OFFCURVE",
"341 -134 CURVE SMOOTH",
"341 -97 OFFCURVE",
"362 -68 OFFCURVE",
"473 45 CURVE SMOOTH",
"514 86 OFFCURVE",
"542 143 OFFCURVE",
"550 206 CURVE SMOOTH",
"592 546 LINE SMOOTH",
"595 585 OFFCURVE",
"605 594 OFFCURVE",
"665 603 CURVE",
"675 646 LINE"
);
}
);
};
layerId = UUID0;
paths = (
{
closed = 1;
nodes = (
"93 639 CURVE",
"81 598 LINE",
"82 594 LINE",
"82 594 OFFCURVE",
"103 596 OFFCURVE",
"115 596 CURVE SMOOTH",
"144 596 OFFCURVE",
"150 586 OFFCURVE",
"145 542 CURVE SMOOTH",
"104 210 LINE SMOOTH",
"102 196 OFFCURVE",
"101 183 OFFCURVE",
"101 170 CURVE SMOOTH",
"100 53 OFFCURVE",
"166 -12 OFFCURVE",
"286 -12 CURVE SMOOTH",
"325 -12 OFFCURVE",
"363 -6 OFFCURVE",
"395 5 CURVE",
"400 21 LINE",
"313 -62 OFFCURVE",
"277 -114 OFFCURVE",
"277 -158 CURVE SMOOTH",
"277 -209 OFFCURVE",
"314 -241 OFFCURVE",
"373 -241 CURVE",
"424 -224 OFFCURVE",
"477 -178 OFFCURVE",
"477 -178 CURVE",
"467 -159 LINE",
"467 -159 OFFCURVE",
"427 -182 OFFCURVE",
"390 -182 CURVE SMOOTH",
"361 -182 OFFCURVE",
"341 -163 OFFCURVE",
"341 -134 CURVE SMOOTH",
"341 -36 OFFCURVE",
"528 30 OFFCURVE",
"550 206 CURVE SMOOTH",
"592 546 LINE SMOOTH",
"595 585 OFFCURVE",
"605 594 OFFCURVE",
"665 603 CURVE",
"675 646 LINE",
"675 646 OFFCURVE",
"622 636 OFFCURVE",
"581 636 CURVE SMOOTH",
"545 636 OFFCURVE",
"474 639 OFFCURVE",
"474 639 CURVE",
"463 598 LINE",
"463 594 LINE",
"463 594 OFFCURVE",
"494 596 OFFCURVE",
"506 596 CURVE SMOOTH",
"534 596 OFFCURVE",
"538 589 OFFCURVE",
"535 542 CURVE",
"535 542 OFFCURVE",
"509 285 OFFCURVE",
"500 215 CURVE SMOOTH",
"486 101 OFFCURVE",
"421 41 OFFCURVE",
"315 41 CURVE SMOOTH",
"224 41 OFFCURVE",
"175 97 OFFCURVE",
"175 202 CURVE SMOOTH",
"175 217 OFFCURVE",
"176 234 OFFCURVE",
"178 252 CURVE SMOOTH",
"222 546 LINE SMOOTH",
"228 584 OFFCURVE",
"242 596 OFFCURVE",
"291 603 CURVE",
"300 646 LINE",
"300 646 OFFCURVE",
"240 636 OFFCURVE",
"199 636 CURVE SMOOTH",
"163 636 OFFCURVE",
"93 639 OFFCURVE"
);
}
);
width = 652;
},
{
background = {
paths = (
{
closed = 1;
nodes = (
"365 651 OFFCURVE",
"271 647 OFFCURVE",
"233 647 CURVE SMOOTH",
"155 647 OFFCURVE",
"59 650 OFFCURVE",
"59 650 CURVE",
"38 561 LINE",
"40 557 LINE",
"40 557 OFFCURVE",
"58 559 OFFCURVE",
"68 559 CURVE SMOOTH",
"90 559 OFFCURVE",
"93 550 OFFCURVE",
"88 505 CURVE SMOOTH",
"50 199 LINE SMOOTH",
"48 185 OFFCURVE",
"47 172 OFFCURVE",
"47 159 CURVE SMOOTH",
"47 43 OFFCURVE",
"120 -12 OFFCURVE",
"274 -12 CURVE SMOOTH",
"310 -12 OFFCURVE",
"344 -7 OFFCURVE",
"370 1 CURVE",
"396 59 LINE",
"275 -58 OFFCURVE",
"243 -104 OFFCURVE",
"243 -151 CURVE SMOOTH",
"243 -208 OFFCURVE",
"290 -241 OFFCURVE",
"370 -241 CURVE",
"395 -232 OFFCURVE",
"439 -203 OFFCURVE",
"484 -167 CURVE",
"456 -120 LINE",
"433 -135 OFFCURVE",
"412 -143 OFFCURVE",
"397 -143 CURVE SMOOTH",
"382 -143 OFFCURVE",
"372 -134 OFFCURVE",
"372 -117 CURVE SMOOTH",
"372 -85 OFFCURVE",
"402 -39 OFFCURVE",
"461 30 CURVE SMOOTH",
"514 92 OFFCURVE",
"544 158 OFFCURVE",
"554 234 CURVE SMOOTH",
"589 516 LINE SMOOTH",
"592 540 OFFCURVE",
"598 546 OFFCURVE",
"640 560 CURVE",
"659 650 LINE",
"659 650 OFFCURVE",
"577 647 OFFCURVE",
"516 647 CURVE SMOOTH",
"481 647 OFFCURVE",
"400 650 OFFCURVE",
"400 650 CURVE",
"378 561 LINE",
"381 557 LINE",
"381 557 OFFCURVE",
"393 559 OFFCURVE",
"402 559 CURVE SMOOTH",
"421 559 OFFCURVE",
"425 547 OFFCURVE",
"420 505 CURVE",
"420 505 OFFCURVE",
"392 265 OFFCURVE",
"384 203 CURVE SMOOTH",
"375 139 OFFCURVE",
"354 115 OFFCURVE",
"308 115 CURVE SMOOTH",
"268 115 OFFCURVE",
"248 141 OFFCURVE",
"249 192 CURVE SMOOTH",
"249 197 OFFCURVE",
"250 210 OFFCURVE",
"251 220 CURVE",
"292 509 LINE SMOOTH",
"296 541 OFFCURVE",
"310 554 OFFCURVE",
"344 558 CURVE",
"365 651 LINE"
);
}
);
};
layerId = UUID1;
paths = (
{
closed = 1;
nodes = (
"59 650 CURVE",
"38 561 LINE",
"40 557 LINE",
"40 557 OFFCURVE",
"58 559 OFFCURVE",
"68 559 CURVE SMOOTH",
"90 559 OFFCURVE",
"93 550 OFFCURVE",
"88 505 CURVE SMOOTH",
"50 199 LINE SMOOTH",
"48 185 OFFCURVE",
"47 172 OFFCURVE",
"47 159 CURVE SMOOTH",
"47 43 OFFCURVE",
"120 -12 OFFCURVE",
"274 -12 CURVE SMOOTH",
"310 -12 OFFCURVE",
"344 -7 OFFCURVE",
"370 1 CURVE",
"396 59 LINE",
"275 -58 OFFCURVE",
"243 -104 OFFCURVE",
"243 -151 CURVE SMOOTH",
"243 -208 OFFCURVE",
"290 -241 OFFCURVE",
"370 -241 CURVE",
"395 -232 OFFCURVE",
"439 -203 OFFCURVE",
"484 -167 CURVE",
"456 -120 LINE",
"433 -135 OFFCURVE",
"412 -143 OFFCURVE",
"397 -143 CURVE SMOOTH",
"382 -143 OFFCURVE",
"372 -134 OFFCURVE",
"372 -117 CURVE SMOOTH",
"372 -32 OFFCURVE",
"530 47 OFFCURVE",
"554 234 CURVE SMOOTH",
"589 516 LINE SMOOTH",
"592 540 OFFCURVE",
"598 546 OFFCURVE",
"640 560 CURVE",
"659 650 LINE",
"659 650 OFFCURVE",
"577 647 OFFCURVE",
"516 647 CURVE SMOOTH",
"481 647 OFFCURVE",
"400 650 OFFCURVE",
"400 650 CURVE",
"378 561 LINE",
"381 557 LINE",
"381 557 OFFCURVE",
"393 559 OFFCURVE",
"402 559 CURVE SMOOTH",
"421 559 OFFCURVE",
"425 547 OFFCURVE",
"420 505 CURVE",
"420 505 OFFCURVE",
"392 265 OFFCURVE",
"384 203 CURVE SMOOTH",
"375 139 OFFCURVE",
"354 115 OFFCURVE",
"308 115 CURVE SMOOTH",
"268 115 OFFCURVE",
"248 141 OFFCURVE",
"249 192 CURVE SMOOTH",
"249 197 OFFCURVE",
"250 210 OFFCURVE",
"251 220 CURVE",
"292 509 LINE SMOOTH",
"296 541 OFFCURVE",
"310 554 OFFCURVE",
"344 558 CURVE",
"365 651 LINE",
"365 651 OFFCURVE",
"271 647 OFFCURVE",
"233 647 CURVE SMOOTH",
"155 647 OFFCURVE",
"59 650 OFFCURVE"
);
}
);
width = 605;
}
);
leftKerningGroup = U;
rightKerningGroup = U;
unicode = 0172;
},
{
color = 1;
glyphname = V;
layers = (
{
anchors = (
{
name = bottom;
position = "{264, 0}";
},
{
name = top;
position = "{342, 636}";
}
);
background = {
paths = (
{
closed = 1;
nodes = (
"173 269 OFFCURVE",
"227 -17 OFFCURVE",
"227 -17 CURVE",
"285 5 LINE",
"553 547 LINE SMOOTH",
"573 585 OFFCURVE",
"584 593 OFFCURVE",
"624 595 CURVE",
"637 640 LINE",
"637 640 OFFCURVE",
"577 636 OFFCURVE",
"531 636 CURVE SMOOTH",
"468 636 OFFCURVE",
"395 644 OFFCURVE",
"395 644 CURVE",
"384 603 LINE",
"386 599 LINE",
"437 599 LINE SMOOTH",
"480 599 OFFCURVE",
"499 588 OFFCURVE",
"499 563 CURVE SMOOTH",
"499 535 OFFCURVE",
"348 234 OFFCURVE",
"280 93 CURVE",
"272 93 LINE",
"272 93 OFFCURVE",
"206 514 OFFCURVE",
"206 560 CURVE SMOOTH",
"206 590 OFFCURVE",
"217 599 OFFCURVE",
"297 604 CURVE",
"306 641 LINE",
"304 648 LINE",
"304 648 OFFCURVE",
"209 636 OFFCURVE",
"159 636 CURVE SMOOTH",
"127 636 OFFCURVE",
"50 639 OFFCURVE",
"50 639 CURVE",
"38 599 LINE",
"39 595 LINE",
"89 594 OFFCURVE",
"115 576 OFFCURVE",
"122 538 CURVE SMOOTH"
);
}
);
};
layerId = UUID0;
paths = (
{
closed = 1;
nodes = (
"173 269 OFFCURVE",
"227 -17 OFFCURVE",
"227 -17 CURVE",
"285 5 LINE",
"553 547 LINE SMOOTH",
"573 585 OFFCURVE",
"584 593 OFFCURVE",
"624 595 CURVE",
"637 640 LINE",
"637 640 OFFCURVE",
"577 636 OFFCURVE",
"531 636 CURVE SMOOTH",
"468 636 OFFCURVE",
"390 644 OFFCURVE",
"390 644 CURVE",
"379 603 LINE",
"381 599 LINE",
"432 599 LINE SMOOTH",
"475 599 OFFCURVE",
"494 588 OFFCURVE",
"494 563 CURVE SMOOTH",
"494 535 OFFCURVE",
"343 234 OFFCURVE",
"275 93 CURVE",
"267 93 LINE",
"267 93 OFFCURVE",
"201 514 OFFCURVE",
"201 560 CURVE SMOOTH",
"201 590 OFFCURVE",
"212 599 OFFCURVE",
"292 604 CURVE",
"301 641 LINE",
"299 648 LINE",
"299 648 OFFCURVE",
"209 636 OFFCURVE",
"159 636 CURVE SMOOTH",
"127 636 OFFCURVE",
"50 639 OFFCURVE",
"50 639 CURVE",
"38 599 LINE",
"39 595 LINE",
"89 594 OFFCURVE",
"115 576 OFFCURVE",
"122 538 CURVE SMOOTH"
);
}
);
width = 584;
},
{
anchors = (
{
name = bottom;
position = "{283, 0}";
},
{
name = top;
position = "{362, 647}";
}
);
background = {
paths = (
{
closed = 1;
nodes = (
"97 385 OFFCURVE",
"138 -13 OFFCURVE",
"138 -13 CURVE",
"418 4 LINE",
"617 506 LINE SMOOTH",
"633 545 OFFCURVE",
"641 554 OFFCURVE",
"663 561 CURVE",
"680 648 LINE",
"680 648 OFFCURVE",
"616 647 OFFCURVE",
"560 647 CURVE SMOOTH",
"501 647 OFFCURVE",
"410 650 OFFCURVE",
"410 650 CURVE",
"392 567 LINE",
"399 557 LINE",
"423 557 LINE SMOOTH",
"443 557 OFFCURVE",
"449 550 OFFCURVE",
"449 537 CURVE SMOOTH",
"449 504 OFFCURVE",
"348 223 OFFCURVE",
"328 168 CURVE",
"306 168 LINE",
"306 168 OFFCURVE",
"300 423 OFFCURVE",
"300 507 CURVE SMOOTH",
"300 541 OFFCURVE",
"312 552 OFFCURVE",
"366 559 CURVE",
"382 643 LINE",
"376 652 LINE",
"376 652 OFFCURVE",
"282 647 OFFCURVE",
"188 647 CURVE SMOOTH",
"135 647 OFFCURVE",
"54 649 OFFCURVE",
"54 649 CURVE",
"36 570 LINE",
"42 560 LINE",
"68 556 OFFCURVE",
"79 538 OFFCURVE",
"85 493 CURVE SMOOTH"
);
}
);
};
layerId = UUID1;
paths = (
{
closed = 1;
nodes = (
"97 385 OFFCURVE",
"138 -13 OFFCURVE",
"138 -13 CURVE",
"418 4 LINE",
"617 506 LINE SMOOTH",
"633 545 OFFCURVE",
"641 554 OFFCURVE",
"663 561 CURVE",
"680 648 LINE",
"680 648 OFFCURVE",
"616 647 OFFCURVE",
"560 647 CURVE SMOOTH",
"501 647 OFFCURVE",
"410 650 OFFCURVE",
"410 650 CURVE",
"392 567 LINE",
"399 557 LINE",
"423 557 LINE SMOOTH",
"443 557 OFFCURVE",
"449 550 OFFCURVE",
"449 537 CURVE SMOOTH",
"449 504 OFFCURVE",
"348 223 OFFCURVE",
"328 168 CURVE",
"306 168 LINE",
"306 168 OFFCURVE",
"300 423 OFFCURVE",
"300 507 CURVE SMOOTH",
"300 541 OFFCURVE",
"312 552 OFFCURVE",
"366 559 CURVE",
"382 643 LINE",
"376 652 LINE",
"376 652 OFFCURVE",
"282 647 OFFCURVE",
"188 647 CURVE SMOOTH",
"135 647 OFFCURVE",
"54 649 OFFCURVE",
"54 649 CURVE",
"36 570 LINE",
"42 560 LINE",
"68 556 OFFCURVE",
"79 538 OFFCURVE",
"85 493 CURVE SMOOTH"
);
}
);
width = 623;
}
);
leftKerningGroup = V;
rightKerningGroup = V;
unicode = 0056;
},
{
color = 1;
glyphname = W;
layers = (
{
anchors = (
{
name = bottom;
position = "{419, 0}";
},
{
name = top;
position = "{497, 636}";
}
);
background = {
paths = (
{
closed = 1;
nodes = (
"592 5 LINE",
"862 547 LINE SMOOTH",
"881 586 OFFCURVE",
"893 593 OFFCURVE",
"930 595 CURVE",
"942 640 LINE",
"942 640 OFFCURVE",
"884 636 OFFCURVE",
"841 636 CURVE SMOOTH",
"780 636 OFFCURVE",
"709 644 OFFCURVE",
"709 644 CURVE",
"697 603 LINE",
"699 599 LINE",
"747 599 LINE SMOOTH",
"790 599 OFFCURVE",
"809 590 OFFCURVE",
"809 568 CURVE SMOOTH",
"809 539 OFFCURVE",
"659 231 OFFCURVE",
"594 93 CURVE",
"588 93 LINE",
"588 93 OFFCURVE",
"524 512 OFFCURVE",
"524 560 CURVE SMOOTH",
"524 590 OFFCURVE",
"535 598 OFFCURVE",
"614 604 CURVE",
"622 641 LINE",
"621 648 LINE",
"621 648 OFFCURVE",
"538 636 OFFCURVE",
"481 636 CURVE SMOOTH",
"450 636 OFFCURVE",
"375 639 OFFCURVE",
"375 639 CURVE",
"363 599 LINE",
"364 595 LINE",
"411 593 OFFCURVE",
"436 577 OFFCURVE",
"445 536 CURVE SMOOTH",
"448 517 OFFCURVE",
"450 496 OFFCURVE",
"456 480 CURVE",
"393 348 OFFCURVE",
"331 223 OFFCURVE",
"271 93 CURVE",
"265 93 LINE",
"265 93 OFFCURVE",
"202 503 OFFCURVE",
"202 559 CURVE SMOOTH",
"202 590 OFFCURVE",
"214 599 OFFCURVE",
"292 604 CURVE",
"299 641 LINE",
"297 648 LINE",
"297 648 OFFCURVE",
"225 636 OFFCURVE",
"157 636 CURVE SMOOTH",
"127 636 OFFCURVE",
"51 639 OFFCURVE",
"51 639 CURVE",
"40 599 LINE",
"42 595 LINE",
"90 594 OFFCURVE",
"114 576 OFFCURVE",
"121 538 CURVE SMOOTH",
"170 270 OFFCURVE",
"213 -17 OFFCURVE",
"213 -17 CURVE",
"272 5 LINE",
"461 415 LINE",
"467 415 LINE",
"535 -17 LINE"
);
}
);
};
layerId = UUID0;
paths = (
{
closed = 1;
nodes = (
"592 5 LINE",
"862 547 LINE SMOOTH",
"881 586 OFFCURVE",
"893 593 OFFCURVE",
"930 595 CURVE",
"942 640 LINE",
"942 640 OFFCURVE",
"884 636 OFFCURVE",
"841 636 CURVE SMOOTH",
"780 636 OFFCURVE",
"709 644 OFFCURVE",
"709 644 CURVE",
"697 603 LINE",
"699 599 LINE",
"742 599 LINE SMOOTH",
"785 599 OFFCURVE",
"804 590 OFFCURVE",
"804 568 CURVE SMOOTH",
"804 539 OFFCURVE",
"654 231 OFFCURVE",
"589 93 CURVE",
"583 93 LINE",
"583 93 OFFCURVE",
"519 512 OFFCURVE",
"519 560 CURVE SMOOTH",
"519 590 OFFCURVE",
"535 598 OFFCURVE",
"614 604 CURVE",
"622 641 LINE",
"621 648 LINE",
"621 648 OFFCURVE",
"538 636 OFFCURVE",
"481 636 CURVE SMOOTH",
"450 636 OFFCURVE",
"375 639 OFFCURVE",
"375 639 CURVE",
"363 599 LINE",
"364 595 LINE",
"411 593 OFFCURVE",
"431 577 OFFCURVE",
"440 536 CURVE SMOOTH",
"443 517 OFFCURVE",
"449 496 OFFCURVE",
"451 480 CURVE",
"388 348 OFFCURVE",
"326 223 OFFCURVE",
"266 93 CURVE",
"260 93 LINE",
"260 93 OFFCURVE",
"197 503 OFFCURVE",
"197 559 CURVE SMOOTH",
"197 590 OFFCURVE",
"214 599 OFFCURVE",
"292 604 CURVE",
"299 641 LINE",
"297 648 LINE",
"297 648 OFFCURVE",
"225 636 OFFCURVE",
"157 636 CURVE SMOOTH",
"127 636 OFFCURVE",
"51 639 OFFCURVE",
"51 639 CURVE",
"40 599 LINE",
"42 595 LINE",
"90 594 OFFCURVE",
"114 576 OFFCURVE",
"121 538 CURVE SMOOTH",
"170 270 OFFCURVE",
"213 -17 OFFCURVE",
"213 -17 CURVE",
"272 5 LINE",
"462 405 LINE",
"468 405 LINE",
"535 -17 LINE"
);
}
);
width = 893;
},
{
anchors = (
{
name = bottom;
position = "{457, 0}";
},
{
name = top;
position = "{536, 647}";
}
);
background = {
paths = (
{
closed = 1;
nodes = (
"778 4 LINE",
"966 506 LINE SMOOTH",
"980 542 OFFCURVE",
"988 553 OFFCURVE",
"1011 561 CURVE",
"1028 648 LINE",
"1028 648 OFFCURVE",
"967 647 OFFCURVE",
"913 647 CURVE SMOOTH",
"857 647 OFFCURVE",
"769 650 OFFCURVE",
"769 650 CURVE",
"751 567 LINE",
"757 557 LINE",
"780 557 LINE SMOOTH",
"801 557 OFFCURVE",
"805 554 OFFCURVE",
"805 540 CURVE SMOOTH",
"805 518 OFFCURVE",
"730 282 OFFCURVE",
"687 168 CURVE",
"666 168 LINE",
"666 168 OFFCURVE",
"660 422 OFFCURVE",
"660 508 CURVE SMOOTH",
"660 542 OFFCURVE",
"674 553 OFFCURVE",
"726 559 CURVE",
"743 643 LINE",
"736 652 LINE",
"736 652 OFFCURVE",
"646 647 OFFCURVE",
"556 647 CURVE SMOOTH",
"498 647 OFFCURVE",
"397 649 OFFCURVE",
"397 649 CURVE",
"378 570 LINE",
"384 560 LINE",
"428 560 OFFCURVE",
"436 555 OFFCURVE",
"433 529 CURVE SMOOTH",
"435 534 OFFCURVE",
"440 554 OFFCURVE",
"426 502 CURVE",
"407 440 OFFCURVE",
"346 258 OFFCURVE",
"314 168 CURVE",
"293 168 LINE",
"293 168 OFFCURVE",
"288 422 OFFCURVE",
"288 508 CURVE SMOOTH",
"288 539 OFFCURVE",
"304 551 OFFCURVE",
"353 559 CURVE",
"370 643 LINE",
"364 652 LINE",
"364 652 OFFCURVE",
"272 647 OFFCURVE",
"183 647 CURVE SMOOTH",
"132 647 OFFCURVE",
"55 649 OFFCURVE",
"55 649 CURVE",
"36 570 LINE",
"42 560 LINE",
"65 555 OFFCURVE",
"74 540 OFFCURVE",
"83 493 CURVE SMOOTH",
"93 385 OFFCURVE",
"131 -13 OFFCURVE",
"131 -13 CURVE",
"401 4 LINE",
"488 272 LINE",
"502 272 LINE",
"508 -13 LINE"
);
}
);
};
layerId = UUID1;
paths = (
{
closed = 1;
nodes = (
"778 4 LINE",
"966 506 LINE SMOOTH",
"980 542 OFFCURVE",
"988 553 OFFCURVE",
"1011 561 CURVE",
"1028 648 LINE",
"1028 648 OFFCURVE",
"967 647 OFFCURVE",
"913 647 CURVE SMOOTH",
"857 647 OFFCURVE",
"769 650 OFFCURVE",
"769 650 CURVE",
"751 567 LINE",
"757 557 LINE",
"780 557 LINE SMOOTH",
"801 557 OFFCURVE",
"805 554 OFFCURVE",
"805 540 CURVE SMOOTH",
"805 518 OFFCURVE",
"730 282 OFFCURVE",
"687 168 CURVE",
"666 168 LINE",
"666 168 OFFCURVE",
"660 422 OFFCURVE",
"660 508 CURVE SMOOTH",
"660 542 OFFCURVE",
"674 553 OFFCURVE",
"726 559 CURVE",
"743 643 LINE",
"736 652 LINE",
"736 652 OFFCURVE",
"646 647 OFFCURVE",
"556 647 CURVE SMOOTH",
"498 647 OFFCURVE",
"397 649 OFFCURVE",
"397 649 CURVE",
"378 570 LINE",
"384 560 LINE",
"428 560 OFFCURVE",
"436 555 OFFCURVE",
"433 529 CURVE SMOOTH",
"435 534 OFFCURVE",
"440 554 OFFCURVE",
"426 502 CURVE",
"407 440 OFFCURVE",
"346 258 OFFCURVE",
"314 168 CURVE",
"293 168 LINE",
"293 168 OFFCURVE",
"288 422 OFFCURVE",
"288 508 CURVE SMOOTH",
"288 539 OFFCURVE",
"304 551 OFFCURVE",
"353 559 CURVE",
"370 643 LINE",
"364 652 LINE",
"364 652 OFFCURVE",
"272 647 OFFCURVE",
"183 647 CURVE SMOOTH",
"132 647 OFFCURVE",
"55 649 OFFCURVE",
"55 649 CURVE",
"36 570 LINE",
"42 560 LINE",
"65 555 OFFCURVE",
"74 540 OFFCURVE",
"83 493 CURVE SMOOTH",
"93 385 OFFCURVE",
"131 -13 OFFCURVE",
"131 -13 CURVE",
"401 4 LINE",
"488 272 LINE",
"502 272 LINE",
"508 -13 LINE"
);
}
);
width = 971;
}
);
leftKerningGroup = V;
rightKerningGroup = V;
unicode = 0057;
},
{
color = 1;
glyphname = X;
layers = (
{
anchors = (
{
name = bottom;
position = "{271, 0}";
},
{
name = top;
position = "{390, 647}";
}
);
background = {
paths = (
{
closed = 1;
nodes = (
"293 316 LINE",
"190 517 LINE SMOOTH",
"165 565 OFFCURVE",
"127 592 OFFCURVE",
"68 600 CURVE",
"68 604 LINE",
"77 640 LINE",
"77 640 OFFCURVE",
"172 636 OFFCURVE",
"214 636 CURVE SMOOTH",
"291 636 OFFCURVE",
"344 645 OFFCURVE",
"344 645 CURVE",
"346 638 LINE",
"339 605 LINE",
"282 601 OFFCURVE",
"258 590 OFFCURVE",
"258 568 CURVE SMOOTH",
"258 550 OFFCURVE",
"292 476 OFFCURVE",
"342 374 CURVE",
"394 438 OFFCURVE",
"497 547 OFFCURVE",
"497 576 CURVE SMOOTH",
"497 592 OFFCURVE",
"480 599 OFFCURVE",
"444 603 CURVE",
"444 604 OFFCURVE",
"443 606 OFFCURVE",
"443 607 CURVE",
"452 644 LINE",
"451 644 OFFCURVE",
"522 636 OFFCURVE",
"557 636 CURVE SMOOTH",
"594 636 OFFCURVE",
"649 640 OFFCURVE",
"649 640 CURVE",
"652 634 LINE",
"642 599 LINE",
"583 589 OFFCURVE",
"561 565 OFFCURVE",
"499 496 CURVE SMOOTH",
"362 342 LINE",
"478 124 LINE SMOOTH",
"506 72 OFFCURVE",
"539 47 OFFCURVE",
"600 41 CURVE",
"589 -3 LINE",
"589 -3 OFFCURVE",
"515 0 OFFCURVE",
"471 0 CURVE SMOOTH",
"417 0 OFFCURVE",
"323 -8 OFFCURVE",
"323 -8 CURVE",
"321 -1 LINE",
"329 35 LINE",
"384 38 OFFCURVE",
"410 49 OFFCURVE",
"410 74 CURVE SMOOTH",
"410 85 OFFCURVE",
"404 99 OFFCURVE",
"396 116 CURVE SMOOTH",
"313 284 LINE",
"205 159 LINE SMOOTH",
"154 100 OFFCURVE",
"144 84 OFFCURVE",
"144 64 CURVE SMOOTH",
"144 48 OFFCURVE",
"160 40 OFFCURVE",
"196 37 CURVE",
"198 34 LINE",
"186 -7 LINE",
"186 -7 OFFCURVE",
"118 0 OFFCURVE",
"82 0 CURVE SMOOTH",
"46 0 OFFCURVE",
"-11 -4 OFFCURVE",
"-11 -4 CURVE",
"-14 3 LINE",
"-4 41 LINE",
"56 59 OFFCURVE",
"102 105 OFFCURVE",
"170 180 CURVE SMOOTH"
);
}
);
};
layerId = UUID0;
paths = (
{
closed = 1;
nodes = (
"323 -8 OFFCURVE",
"417 0 OFFCURVE",
"471 0 CURVE SMOOTH",
"515 0 OFFCURVE",
"589 -3 OFFCURVE",
"589 -3 CURVE",
"600 41 LINE",
"539 47 OFFCURVE",
"506 72 OFFCURVE",
"478 124 CURVE SMOOTH",
"362 342 LINE",
"499 496 LINE SMOOTH",
"561 565 OFFCURVE",
"583 589 OFFCURVE",
"642 599 CURVE",
"652 634 LINE",
"649 640 LINE",
"649 640 OFFCURVE",
"594 636 OFFCURVE",
"557 636 CURVE SMOOTH",
"522 636 OFFCURVE",
"451 644 OFFCURVE",
"452 644 CURVE",
"443 607 LINE",
"443 606 OFFCURVE",
"444 604 OFFCURVE",
"444 603 CURVE",
"480 599 OFFCURVE",
"492 592 OFFCURVE",
"492 576 CURVE SMOOTH",
"492 547 OFFCURVE",
"389 438 OFFCURVE",
"337 374 CURVE",
"287 476 OFFCURVE",
"253 550 OFFCURVE",
"253 568 CURVE SMOOTH",
"253 590 OFFCURVE",
"282 601 OFFCURVE",
"339 605 CURVE",
"346 638 LINE",
"344 645 LINE",
"344 645 OFFCURVE",
"291 636 OFFCURVE",
"214 636 CURVE SMOOTH",
"172 636 OFFCURVE",
"77 640 OFFCURVE",
"77 640 CURVE",
"68 604 LINE",
"68 600 LINE",
"127 592 OFFCURVE",
"165 565 OFFCURVE",
"190 517 CURVE SMOOTH",
"293 316 LINE",
"170 180 LINE SMOOTH",
"102 105 OFFCURVE",
"56 59 OFFCURVE",
"-4 41 CURVE",
"-14 3 LINE",
"-11 -4 LINE",
"-11 -4 OFFCURVE",
"46 0 OFFCURVE",
"82 0 CURVE SMOOTH",
"118 0 OFFCURVE",
"186 -7 OFFCURVE",
"186 -7 CURVE",
"198 34 LINE",
"196 37 LINE",
"160 40 OFFCURVE",
"149 48 OFFCURVE",
"149 64 CURVE SMOOTH",
"149 84 OFFCURVE",
"159 100 OFFCURVE",
"210 159 CURVE SMOOTH",
"316 280 LINE",
"401 116 LINE SMOOTH",
"410 99 OFFCURVE",
"415 85 OFFCURVE",
"415 74 CURVE SMOOTH",
"415 49 OFFCURVE",
"384 38 OFFCURVE",
"329 35 CURVE",
"321 -1 LINE",
"323 -8 LINE"
);
}
);
width = 627;
},
{
anchors = (
{
name = bottom;
position = "{271, 0}";
},
{
name = top;
position = "{390, 647}";
}
);
background = {
paths = (
{
closed = 1;
nodes = (
"224 346 LINE",
"162 467 LINE SMOOTH",
"129 531 OFFCURVE",
"103 539 OFFCURVE",
"58 551 CURVE",
"54 557 LINE",
"74 648 LINE",
"74 648 OFFCURVE",
"140 647 OFFCURVE",
"246 647 CURVE SMOOTH",
"287 647 OFFCURVE",
"416 653 OFFCURVE",
"416 653 CURVE",
"421 642 LINE",
"404 560 LINE",
"377 560 OFFCURVE",
"365 551 OFFCURVE",
"365 532 CURVE SMOOTH",
"365 506 OFFCURVE",
"385 472 OFFCURVE",
"410 424 CURVE",
"439 469 OFFCURVE",
"480 526 OFFCURVE",
"480 544 CURVE SMOOTH",
"480 557 OFFCURVE",
"472 561 OFFCURVE",
"447 561 CURVE",
"446 563 OFFCURVE",
"446 565 OFFCURVE",
"445 567 CURVE",
"461 647 LINE",
"514 647 OFFCURVE",
"562 647 OFFCURVE",
"614 647 CURVE SMOOTH",
"671 647 OFFCURVE",
"741 650 OFFCURVE",
"741 650 CURVE",
"744 642 LINE",
"728 555 LINE",
"662 524 OFFCURVE",
"630 499 OFFCURVE",
"591 446 CURVE SMOOTH",
"484 301 LINE",
"550 179 LINE SMOOTH",
"584 120 OFFCURVE",
"614 94 OFFCURVE",
"660 93 CURVE",
"644 -1 LINE",
"644 -1 OFFCURVE",
"549 2 OFFCURVE",
"512 2 CURVE SMOOTH",
"467 2 OFFCURVE",
"308 -5 OFFCURVE",
"308 -5 CURVE",
"302 2 LINE",
"319 86 LINE",
"338 87 OFFCURVE",
"348 94 OFFCURVE",
"348 109 CURVE SMOOTH",
"348 116 OFFCURVE",
"345 124 OFFCURVE",
"340 133 CURVE SMOOTH",
"294 221 LINE",
"253 158 LINE SMOOTH",
"242 141 OFFCURVE",
"233 125 OFFCURVE",
"233 113 CURVE SMOOTH",
"233 96 OFFCURVE",
"243 88 OFFCURVE",
"266 88 CURVE",
"271 77 LINE",
"256 -4 LINE",
"256 -4 OFFCURVE",
"139 2 OFFCURVE",
"108 2 CURVE SMOOTH",
"69 2 OFFCURVE",
"-24 -4 OFFCURVE",
"-24 -4 CURVE",
"-27 10 LINE",
"-12 90 LINE",
"17 104 OFFCURVE",
"83 166 OFFCURVE",
"124 219 CURVE SMOOTH"
);
}
);
};
layerId = UUID1;
paths = (
{
closed = 1;
nodes = (
"308 -5 OFFCURVE",
"467 2 OFFCURVE",
"512 2 CURVE SMOOTH",
"549 2 OFFCURVE",
"644 -1 OFFCURVE",
"644 -1 CURVE",
"660 93 LINE",
"614 94 OFFCURVE",
"584 120 OFFCURVE",
"550 179 CURVE SMOOTH",
"484 301 LINE",
"591 446 LINE SMOOTH",
"630 499 OFFCURVE",
"662 524 OFFCURVE",
"728 555 CURVE",
"744 642 LINE",
"741 650 LINE",
"741 650 OFFCURVE",
"671 647 OFFCURVE",
"614 647 CURVE SMOOTH",
"562 647 OFFCURVE",
"514 647 OFFCURVE",
"461 647 CURVE",
"445 567 LINE",
"446 565 OFFCURVE",
"446 563 OFFCURVE",
"447 561 CURVE",
"472 561 OFFCURVE",
"480 557 OFFCURVE",
"480 544 CURVE SMOOTH",
"480 526 OFFCURVE",
"439 469 OFFCURVE",
"410 424 CURVE",
"385 472 OFFCURVE",
"365 506 OFFCURVE",
"365 532 CURVE SMOOTH",
"365 551 OFFCURVE",
"377 560 OFFCURVE",
"404 560 CURVE",
"421 642 LINE",
"416 653 LINE",
"416 653 OFFCURVE",
"287 647 OFFCURVE",
"246 647 CURVE SMOOTH",
"140 647 OFFCURVE",
"74 648 OFFCURVE",
"74 648 CURVE",
"54 557 LINE",
"58 551 LINE",
"103 539 OFFCURVE",
"129 531 OFFCURVE",
"162 467 CURVE SMOOTH",
"224 346 LINE",
"124 219 LINE SMOOTH",
"83 166 OFFCURVE",
"17 104 OFFCURVE",
"-12 90 CURVE",
"-27 10 LINE",
"-24 -4 LINE",
"-24 -4 OFFCURVE",
"69 2 OFFCURVE",
"108 2 CURVE SMOOTH",
"139 2 OFFCURVE",
"256 -4 OFFCURVE",
"256 -4 CURVE",
"271 77 LINE",
"266 88 LINE",
"243 88 OFFCURVE",
"233 96 OFFCURVE",
"233 113 CURVE SMOOTH",
"233 125 OFFCURVE",
"242 141 OFFCURVE",
"253 158 CURVE SMOOTH",
"294 221 LINE",
"340 133 LINE SMOOTH",
"345 124 OFFCURVE",
"348 116 OFFCURVE",
"348 109 CURVE SMOOTH",
"348 94 OFFCURVE",
"338 87 OFFCURVE",
"319 86 CURVE",
"302 2 LINE",
"308 -5 LINE"
);
}
);
width = 693;
}
);
leftKerningGroup = X;
rightKerningGroup = X;
unicode = 0058;
},
{
color = 1;
glyphname = Y;
layers = (
{
anchors = (
{
name = bottom;
position = "{228, 0}";
},
{
name = center;
position = "{246, 178}";
},
{
name = top;
position = "{326, 636}";
},
{
name = topleft;
position = "{70, 636}";
}
);
background = {
paths = (
{
closed = 1;
nodes = (
"195 591 OFFCURVE",
"207 599 OFFCURVE",
"273 605 CURVE",
"281 638 LINE",
"279 645 LINE",
"279 645 OFFCURVE",
"197 636 OFFCURVE",
"142 636 CURVE SMOOTH",
"98 636 OFFCURVE",
"39 640 OFFCURVE",
"39 640 CURVE",
"28 604 LINE",
"30 600 LINE",
"106 593 OFFCURVE",
"108 567 OFFCURVE",
"137 483 CURVE SMOOTH",
"200 301 LINE",
"218 252 OFFCURVE",
"218 226 OFFCURVE",
"214 186 CURVE SMOOTH",
"209 141 LINE SMOOTH",
"201 66 OFFCURVE",
"191 46 OFFCURVE",
"121 31 CURVE",
"110 -12 LINE",
"110 -12 OFFCURVE",
"171 0 OFFCURVE",
"219 0 CURVE SMOOTH",
"260 0 OFFCURVE",
"338 -3 OFFCURVE",
"338 -3 CURVE",
"352 40 LINE",
"350 44 LINE",
"350 44 OFFCURVE",
"322 41 OFFCURVE",
"303 41 CURVE SMOOTH",
"268 41 OFFCURVE",
"263 58 OFFCURVE",
"270 110 CURVE SMOOTH",
"286 223 OFFCURVE",
"287 257 OFFCURVE",
"314 294 CURVE",
"431 469 LINE SMOOTH",
"496 566 OFFCURVE",
"505 587 OFFCURVE",
"573 599 CURVE",
"584 634 LINE",
"581 640 LINE",
"581 640 OFFCURVE",
"529 636 OFFCURVE",
"492 636 CURVE SMOOTH",
"457 636 OFFCURVE",
"387 644 OFFCURVE",
"388 644 CURVE",
"377 607 LINE",
"379 603 LINE",
"418 600 OFFCURVE",
"436 591 OFFCURVE",
"436 575 CURVE SMOOTH",
"436 562 OFFCURVE",
"428 542 OFFCURVE",
"415 522 CURVE SMOOTH",
"276 304 LINE",
"272 304 LINE",
"272 302 OFFCURVE",
"195 531 OFFCURVE",
"195 567 CURVE SMOOTH"
);
}
);
};
layerId = UUID0;
paths = (
{
closed = 1;
nodes = (
"190 591 OFFCURVE",
"207 599 OFFCURVE",
"273 605 CURVE",
"281 638 LINE",
"279 645 LINE",
"279 645 OFFCURVE",
"197 636 OFFCURVE",
"142 636 CURVE SMOOTH",
"98 636 OFFCURVE",
"39 640 OFFCURVE",
"39 640 CURVE",
"28 604 LINE",
"30 600 LINE",
"106 593 OFFCURVE",
"108 567 OFFCURVE",
"137 483 CURVE SMOOTH",
"200 301 LINE",
"218 252 OFFCURVE",
"218 226 OFFCURVE",
"214 186 CURVE SMOOTH",
"209 141 LINE SMOOTH",
"201 66 OFFCURVE",
"191 46 OFFCURVE",
"121 31 CURVE",
"110 -12 LINE",
"110 -12 OFFCURVE",
"171 0 OFFCURVE",
"219 0 CURVE SMOOTH",
"260 0 OFFCURVE",
"338 -3 OFFCURVE",
"338 -3 CURVE",
"352 40 LINE",
"350 44 LINE",
"350 44 OFFCURVE",
"322 41 OFFCURVE",
"303 41 CURVE SMOOTH",
"268 41 OFFCURVE",
"263 58 OFFCURVE",
"270 110 CURVE SMOOTH",
"286 223 OFFCURVE",
"287 257 OFFCURVE",
"314 294 CURVE",
"431 469 LINE SMOOTH",
"496 566 OFFCURVE",
"505 587 OFFCURVE",
"573 599 CURVE",
"584 634 LINE",
"581 640 LINE",
"581 640 OFFCURVE",
"529 636 OFFCURVE",
"492 636 CURVE SMOOTH",
"457 636 OFFCURVE",
"387 644 OFFCURVE",
"388 644 CURVE",
"377 607 LINE",
"379 603 LINE",
"418 600 OFFCURVE",
"431 591 OFFCURVE",
"431 575 CURVE SMOOTH",
"431 562 OFFCURVE",
"423 542 OFFCURVE",
"410 522 CURVE SMOOTH",
"271 304 LINE",
"267 304 LINE",
"267 302 OFFCURVE",
"190 531 OFFCURVE",
"190 567 CURVE SMOOTH"
);
}
);
width = 512;
},
{
anchors = (
{
name = bottom;
position = "{296, 0}";
},
{
name = center;
position = "{325, 201}";
},
{
name = top;
position = "{385, 647}";
},
{
name = topleft;
position = "{70, 647}";
}
);
background = {
paths = (
{
closed = 1;
nodes = (
"332 551 OFFCURVE",
"345 560 OFFCURVE",
"373 560 CURVE",
"392 642 LINE",
"386 653 LINE",
"386 653 OFFCURVE",
"253 646 OFFCURVE",
"209 646 CURVE SMOOTH",
"177 646 OFFCURVE",
"61 648 OFFCURVE",
"61 648 CURVE",
"40 557 LINE",
"44 551 LINE",
"83 532 OFFCURVE",
"114 504 OFFCURVE",
"128 467 CURVE SMOOTH",
"208 268 LINE",
"224 229 OFFCURVE",
"228 207 OFFCURVE",
"224 178 CURVE SMOOTH",
"222 162 LINE SMOOTH",
"215 103 OFFCURVE",
"195 89 OFFCURVE",
"111 83 CURVE",
"92 -9 LINE",
"92 -9 OFFCURVE",
"230 0 OFFCURVE",
"293 0 CURVE SMOOTH",
"350 0 OFFCURVE",
"497 -6 OFFCURVE",
"497 -6 CURVE",
"517 88 LINE",
"513 94 LINE",
"513 94 OFFCURVE",
"488 91 OFFCURVE",
"463 91 CURVE SMOOTH",
"426 91 OFFCURVE",
"416 107 OFFCURVE",
"422 154 CURVE SMOOTH",
"426 188 OFFCURVE",
"429 212 OFFCURVE",
"448 247 CURVE",
"558 429 LINE SMOOTH",
"590 485 OFFCURVE",
"637 531 OFFCURVE",
"680 555 CURVE",
"698 642 LINE",
"695 650 LINE",
"695 650 OFFCURVE",
"635 646 OFFCURVE",
"584 646 CURVE SMOOTH",
"532 646 OFFCURVE",
"483 646 OFFCURVE",
"429 646 CURVE",
"411 567 LINE",
"413 561 LINE",
"438 561 OFFCURVE",
"447 557 OFFCURVE",
"447 547 CURVE SMOOTH",
"447 538 OFFCURVE",
"440 521 OFFCURVE",
"429 501 CURVE SMOOTH",
"379 387 LINE",
"365 387 LINE",
"351 435 OFFCURVE",
"332 514 OFFCURVE",
"332 533 CURVE SMOOTH"
);
}
);
};
layerId = UUID1;
paths = (
{
closed = 1;
nodes = (
"332 551 OFFCURVE",
"345 560 OFFCURVE",
"373 560 CURVE",
"392 642 LINE",
"386 653 LINE",
"386 653 OFFCURVE",
"253 646 OFFCURVE",
"209 646 CURVE SMOOTH",
"177 646 OFFCURVE",
"61 648 OFFCURVE",
"61 648 CURVE",
"40 557 LINE",
"44 551 LINE",
"83 532 OFFCURVE",
"114 504 OFFCURVE",
"128 467 CURVE SMOOTH",
"208 268 LINE",
"224 229 OFFCURVE",
"228 207 OFFCURVE",
"224 178 CURVE SMOOTH",
"222 162 LINE SMOOTH",
"215 103 OFFCURVE",
"195 89 OFFCURVE",
"111 83 CURVE",
"92 -9 LINE",
"92 -9 OFFCURVE",
"230 0 OFFCURVE",
"293 0 CURVE SMOOTH",
"350 0 OFFCURVE",
"497 -6 OFFCURVE",
"497 -6 CURVE",
"517 88 LINE",
"513 94 LINE",
"513 94 OFFCURVE",
"488 91 OFFCURVE",
"463 91 CURVE SMOOTH",
"426 91 OFFCURVE",
"416 107 OFFCURVE",
"422 154 CURVE SMOOTH",
"426 188 OFFCURVE",
"429 212 OFFCURVE",
"448 247 CURVE",
"558 429 LINE SMOOTH",
"590 485 OFFCURVE",
"637 531 OFFCURVE",
"680 555 CURVE",
"698 642 LINE",
"695 650 LINE",
"695 650 OFFCURVE",
"635 646 OFFCURVE",
"584 646 CURVE SMOOTH",
"532 646 OFFCURVE",
"483 646 OFFCURVE",
"429 646 CURVE",
"411 567 LINE",
"413 561 LINE",
"438 561 OFFCURVE",
"447 557 OFFCURVE",
"447 547 CURVE SMOOTH",
"447 538 OFFCURVE",
"440 521 OFFCURVE",
"429 501 CURVE SMOOTH",
"379 387 LINE",
"365 387 LINE",
"351 435 OFFCURVE",
"332 514 OFFCURVE",
"332 533 CURVE SMOOTH"
);
}
);
width = 650;
}
);
leftKerningGroup = Y;
rightKerningGroup = Y;
unicode = 0059;
},
{
color = 1;
glyphname = Z;
layers = (
{
anchors = (
{
name = bottom;
position = "{244, 0}";
},
{
name = top;
position = "{342, 636}";
}
);
background = {
paths = (
{
closed = 1;
nodes = (
"447 13 LINE",
"463 108 OFFCURVE",
"496 215 OFFCURVE",
"496 215 CURVE",
"453 210 LINE",
"417 95 OFFCURVE",
"371 44 OFFCURVE",
"305 43 CURVE SMOOTH",
"106 36 LINE",
"155 103 OFFCURVE",
"334 348 OFFCURVE",
"548 602 CURVE",
"541 630 LINE",
"297 637 LINE",
"130 648 LINE",
"119 639 LINE",
"106 548 OFFCURVE",
"78 447 OFFCURVE",
"78 447 CURVE",
"122 451 LINE",
"145 553 OFFCURVE",
"181 588 OFFCURVE",
"269 590 CURVE SMOOTH",
"439 596 LINE",
"10 28 LINE",
"18 -3 LINE",
"87 3 LINE",
"431 -3 LINE"
);
}
);
};
layerId = UUID0;
paths = (
{
closed = 1;
nodes = (
"447 13 LINE",
"463 108 OFFCURVE",
"496 215 OFFCURVE",
"496 215 CURVE",
"453 210 LINE",
"417 95 OFFCURVE",
"371 48 OFFCURVE",
"305 47 CURVE SMOOTH",
"111 40 LINE",
"160 107 OFFCURVE",
"343 352 OFFCURVE",
"548 602 CURVE",
"541 630 LINE",
"297 637 LINE",
"130 648 LINE",
"119 639 LINE",
"106 548 OFFCURVE",
"78 447 OFFCURVE",
"78 447 CURVE",
"122 451 LINE",
"145 553 OFFCURVE",
"181 584 OFFCURVE",
"269 586 CURVE SMOOTH",
"439 592 LINE",
"10 28 LINE",
"18 -3 LINE",
"87 3 LINE",
"431 -3 LINE"
);
}
);
width = 544;
},
{
anchors = (
{
name = bottom;
position = "{260, 0}";
},
{
name = top;
position = "{359, 647}";
}
);
background = {
paths = (
{
closed = 1;
nodes = (
"531 19 LINE",
"545 119 OFFCURVE",
"585 275 OFFCURVE",
"585 275 CURVE",
"457 266 LINE",
"438 173 OFFCURVE",
"409 134 OFFCURVE",
"346 124 CURVE SMOOTH",
"247 109 LINE",
"311 194 OFFCURVE",
"460 396 OFFCURVE",
"627 595 CURVE",
"609 649 LINE",
"284 649 LINE",
"109 660 LINE",
"97 649 LINE",
"83 556 OFFCURVE",
"53 409 OFFCURVE",
"53 409 CURVE",
"181 418 LINE",
"194 503 OFFCURVE",
"205 521 OFFCURVE",
"282 532 CURVE SMOOTH",
"353 542 LINE",
"-21 51 LINE",
"8 -7 LINE",
"89 3 LINE",
"508 -3 LINE"
);
}
);
};
layerId = UUID1;
paths = (
{
closed = 1;
nodes = (
"531 19 LINE",
"545 119 OFFCURVE",
"585 275 OFFCURVE",
"585 275 CURVE",
"457 266 LINE",
"438 173 OFFCURVE",
"409 134 OFFCURVE",
"346 124 CURVE SMOOTH",
"247 109 LINE",
"311 194 OFFCURVE",
"460 396 OFFCURVE",
"627 595 CURVE",
"609 649 LINE",
"284 649 LINE",
"109 660 LINE",
"97 649 LINE",
"83 556 OFFCURVE",
"53 409 OFFCURVE",
"53 409 CURVE",
"181 418 LINE",
"194 503 OFFCURVE",
"205 521 OFFCURVE",
"282 532 CURVE SMOOTH",
"353 542 LINE",
"-21 51 LINE",
"8 -7 LINE",
"89 3 LINE",
"508 -3 LINE"
);
}
);
width = 578;
}
);
leftKerningGroup = Z;
rightKerningGroup = Z;
unicode = 005A;
},
{
color = 1;
glyphname = C.ss01;
layers = (
{
anchors = (
{
name = bottom;
position = "{231, 0}";
},
{
name = top;
position = "{309, 636}";
}
);
background = {
paths = (
{
closed = 1;
nodes = (
"360 -9 OFFCURVE",
"425 22 OFFCURVE",
"425 22 CURVE",
"431 30 LINE",
"443 87 OFFCURVE",
"467 161 OFFCURVE",
"467 161 CURVE",
"421 157 LINE",
"392 74 OFFCURVE",
"347 37 OFFCURVE",
"279 37 CURVE SMOOTH",
"188 37 OFFCURVE",
"134 108 OFFCURVE",
"134 220 CURVE SMOOTH",
"134 364 OFFCURVE",
"211 455 OFFCURVE",
"324 455 CURVE SMOOTH",
"392 455 OFFCURVE",
"425 434 OFFCURVE",
"425 392 CURVE SMOOTH",
"425 377 OFFCURVE",
"418 344 OFFCURVE",
"418 344 CURVE",
"464 348 LINE",
"478 422 OFFCURVE",
"501 482 OFFCURVE",
"501 482 CURVE",
"498 488 LINE",
"498 488 OFFCURVE",
"417 507 OFFCURVE",
"352 507 CURVE SMOOTH",
"176 507 OFFCURVE",
"49 378 OFFCURVE",
"49 200 CURVE SMOOTH",
"49 71 OFFCURVE",
"135 -9 OFFCURVE",
"265 -9 CURVE SMOOTH"
);
}
);
};
layerId = UUID0;
paths = (
{
closed = 1;
nodes = (
"428 22 LINE",
"435 30 LINE",
"447 89 OFFCURVE",
"471 163 OFFCURVE",
"471 163 CURVE",
"421 159 LINE",
"393 77 OFFCURVE",
"349 45 OFFCURVE",
"282 45 CURVE SMOOTH",
"191 45 OFFCURVE",
"138 112 OFFCURVE",
"138 222 CURVE SMOOTH",
"138 365 OFFCURVE",
"212 452 OFFCURVE",
"325 452 CURVE SMOOTH",
"392 452 OFFCURVE",
"425 432 OFFCURVE",
"425 390 CURVE SMOOTH",
"425 376 OFFCURVE",
"418 343 OFFCURVE",
"418 343 CURVE",
"468 346 LINE",
"482 422 OFFCURVE",
"505 482 OFFCURVE",
"505 482 CURVE",
"502 488 LINE",
"237 483 LINE",
"124 437 OFFCURVE",
"47 333 OFFCURVE",
"47 200 CURVE SMOOTH",
"47 119 OFFCURVE",
"79 54 OFFCURVE",
"134 21 CURVE"
);
},
{
closed = 1;
nodes = (
"19 462 LINE",
"575 462 LINE",
"579 497 LINE",
"24 497 LINE"
);
},
{
closed = 1;
nodes = (
"-37 0 LINE",
"518 0 LINE",
"522 35 LINE",
"-33 35 LINE"
);
}
);
width = 517;
},
{
anchors = (
{
name = bottom;
position = "{219, 0}";
},
{
name = top;
position = "{298, 647}";
}
);
background = {
paths = (
{
closed = 1;
nodes = (
"340 -8 OFFCURVE",
"425 21 OFFCURVE",
"425 21 CURVE",
"438 34 LINE",
"446 112 OFFCURVE",
"466 207 OFFCURVE",
"466 207 CURVE",
"326 198 LINE",
"313 129 OFFCURVE",
"302 114 OFFCURVE",
"266 114 CURVE SMOOTH",
"231 114 OFFCURVE",
"221 136 OFFCURVE",
"221 218 CURVE SMOOTH",
"221 350 OFFCURVE",
"237 395 OFFCURVE",
"288 395 CURVE SMOOTH",
"318 395 OFFCURVE",
"336 380 OFFCURVE",
"336 355 CURVE SMOOTH",
"336 341 OFFCURVE",
"327 295 OFFCURVE",
"327 295 CURVE",
"469 303 LINE",
"487 402 OFFCURVE",
"513 475 OFFCURVE",
"513 475 CURVE",
"507 493 LINE",
"507 493 OFFCURVE",
"387 514 OFFCURVE",
"318 514 CURVE SMOOTH",
"117 514 OFFCURVE",
"16 411 OFFCURVE",
"16 206 CURVE SMOOTH",
"16 67 OFFCURVE",
"93 -8 OFFCURVE",
"234 -8 CURVE SMOOTH"
);
}
);
};
layerId = UUID1;
paths = (
{
closed = 1;
nodes = (
"424 21 LINE",
"437 34 LINE",
"446 112 OFFCURVE",
"466 207 OFFCURVE",
"466 207 CURVE",
"327 198 LINE",
"316 135 OFFCURVE",
"301 114 OFFCURVE",
"266 114 CURVE SMOOTH",
"234 114 OFFCURVE",
"220 137 OFFCURVE",
"220 208 CURVE SMOOTH",
"220 369 OFFCURVE",
"243 395 OFFCURVE",
"296 395 CURVE SMOOTH",
"325 395 OFFCURVE",
"335 384 OFFCURVE",
"335 355 CURVE SMOOTH",
"335 346 OFFCURVE",
"328 295 OFFCURVE",
"328 295 CURVE",
"468 303 LINE",
"486 402 OFFCURVE",
"512 475 OFFCURVE",
"512 475 CURVE",
"508 493 LINE",
"200 492 LINE",
"78 450 OFFCURVE",
"16 376 OFFCURVE",
"16 204 CURVE SMOOTH",
"16 120 OFFCURVE",
"45 55 OFFCURVE",
"100 22 CURVE"
);
},
{
closed = 1;
nodes = (
"5 438 LINE",
"543 438 LINE",
"551 503 LINE",
"13 503 LINE"
);
},
{
closed = 1;
nodes = (
"-48 0 LINE",
"489 0 LINE",
"497 65 LINE",
"-40 65 LINE"
);
}
);
width = 496;
}
);
},
{
color = 1;
glyphname = D.ss01;
layers = (
{
anchors = (
{
name = bottom;
position = "{261, 0}";
},
{
name = center;
position = "{300, 318}";
},
{
name = top;
position = "{339, 636}";
}
);
background = {
paths = (
{
closed = 1;
nodes = (
"414 -9 OFFCURVE",
"548 126 OFFCURVE",
"548 295 CURVE SMOOTH",
"548 419 OFFCURVE",
"450 501 OFFCURVE",
"309 501 CURVE SMOOTH",
"309 501 OFFCURVE",
"232 497 OFFCURVE",
"195 497 CURVE SMOOTH",
"165 497 OFFCURVE",
"109 500 OFFCURVE",
"109 500 CURVE",
"99 463 LINE",
"100 459 LINE",
"100 459 OFFCURVE",
"118 460 OFFCURVE",
"128 460 CURVE SMOOTH",
"150 460 OFFCURVE",
"154 452 OFFCURVE",
"150 418 CURVE SMOOTH",
"111 97 LINE",
"105 53 OFFCURVE",
"91 40 OFFCURVE",
"41 31 CURVE",
"32 -9 LINE",
"32 -9 OFFCURVE",
"86 0 OFFCURVE",
"126 0 CURVE SMOOTH",
"167 0 OFFCURVE",
"247 -9 OFFCURVE",
"247 -9 CURVE"
);
},
{
closed = 1;
nodes = (
"392 457 OFFCURVE",
"463 395 OFFCURVE",
"463 281 CURVE SMOOTH",
"463 135 OFFCURVE",
"384 37 OFFCURVE",
"262 37 CURVE SMOOTH",
"197 37 OFFCURVE",
"176 48 OFFCURVE",
"176 88 CURVE SMOOTH",
"176 114 OFFCURVE",
"199 254 OFFCURVE",
"231 439 CURVE SMOOTH",
"233 453 OFFCURVE",
"239 457 OFFCURVE",
"259 457 CURVE SMOOTH"
);
}
);
};
layerId = UUID0;
paths = (
{
closed = 1;
nodes = (
"385 25 LINE",
"488 78 OFFCURVE",
"555 181 OFFCURVE",
"555 294 CURVE SMOOTH",
"555 366 OFFCURVE",
"525 429 OFFCURVE",
"471 465 CURVE",
"129 462 LINE",
"151 462 OFFCURVE",
"156 453 OFFCURVE",
"152 420 CURVE SMOOTH",
"112 101 LINE SMOOTH",
"107 57 OFFCURVE",
"89 35 OFFCURVE",
"44 35 CURVE"
);
},
{
closed = 1;
nodes = (
"19 462 LINE",
"636 462 LINE",
"640 497 LINE",
"24 497 LINE"
);
},
{
closed = 1;
nodes = (
"-37 0 LINE",
"579 0 LINE",
"583 35 LINE",
"-33 35 LINE"
);
},
{
closed = 1;
nodes = (
"392 457 OFFCURVE",
"463 395 OFFCURVE",
"463 281 CURVE SMOOTH",
"463 135 OFFCURVE",
"384 37 OFFCURVE",
"262 37 CURVE SMOOTH",
"197 37 OFFCURVE",
"176 48 OFFCURVE",
"176 88 CURVE SMOOTH",
"176 114 OFFCURVE",
"199 254 OFFCURVE",
"231 439 CURVE SMOOTH",
"233 453 OFFCURVE",
"239 457 OFFCURVE",
"259 457 CURVE SMOOTH"
);
}
);
width = 578;
},
{
anchors = (
{
name = bottom;
position = "{251, 0}";
},
{
name = center;
position = "{291, 324}";
},
{
name = top;
position = "{330, 647}";
}
);
background = {
paths = (
{
closed = 1;
nodes = (
"431 -9 OFFCURVE",
"556 116 OFFCURVE",
"556 313 CURVE SMOOTH",
"556 445 OFFCURVE",
"472 509 OFFCURVE",
"320 509 CURVE SMOOTH",
"320 509 OFFCURVE",
"229 504 OFFCURVE",
"191 504 CURVE SMOOTH",
"158 504 OFFCURVE",
"62 507 OFFCURVE",
"62 507 CURVE",
"46 438 LINE",
"54 426 LINE",
"54 426 OFFCURVE",
"67 428 OFFCURVE",
"79 428 CURVE SMOOTH",
"93 428 OFFCURVE",
"96 418 OFFCURVE",
"93 386 CURVE SMOOTH",
"62 137 LINE",
"55 92 OFFCURVE",
"42 79 OFFCURVE",
"4 73 CURVE",
"-13 -6 LINE",
"-13 -6 OFFCURVE",
"62 0 OFFCURVE",
"108 0 CURVE SMOOTH",
"160 0 OFFCURVE",
"236 -9 OFFCURVE",
"236 -9 CURVE"
);
},
{
closed = 1;
nodes = (
"337 399 OFFCURVE",
"350 380 OFFCURVE",
"350 309 CURVE SMOOTH",
"350 168 OFFCURVE",
"315 98 OFFCURVE",
"246 98 CURVE SMOOTH",
"237 98 OFFCURVE",
"234 104 OFFCURVE",
"234 118 CURVE SMOOTH",
"234 122 OFFCURVE",
"272 384 OFFCURVE",
"274 378 CURVE SMOOTH",
"277 394 OFFCURVE",
"281 399 OFFCURVE",
"291 399 CURVE SMOOTH"
);
}
);
};
layerId = UUID1;
paths = (
{
closed = 1;
nodes = (
"388 23 LINE",
"493 74 OFFCURVE",
"555 177 OFFCURVE",
"555 313 CURVE SMOOTH",
"555 388 OFFCURVE",
"532 443 OFFCURVE",
"483 474 CURVE",
"80 438 LINE",
"94 438 OFFCURVE",
"98 428 OFFCURVE",
"94 396 CURVE SMOOTH",
"61 127 LINE SMOOTH",
"56 84 OFFCURVE",
"42 65 OFFCURVE",
"3 65 CURVE"
);
},
{
closed = 1;
nodes = (
"5 438 LINE",
"607 438 LINE",
"615 503 LINE",
"13 503 LINE"
);
},
{
closed = 1;
nodes = (
"-48 0 LINE",
"553 0 LINE",
"561 65 LINE",
"-40 65 LINE"
);
},
{
closed = 1;
nodes = (
"337 399 OFFCURVE",
"350 380 OFFCURVE",
"350 309 CURVE SMOOTH",
"350 168 OFFCURVE",
"315 98 OFFCURVE",
"246 98 CURVE SMOOTH",
"237 98 OFFCURVE",
"234 104 OFFCURVE",
"234 118 CURVE SMOOTH",
"234 122 OFFCURVE",
"272 384 OFFCURVE",
"274 378 CURVE SMOOTH",
"277 394 OFFCURVE",
"281 399 OFFCURVE",
"291 399 CURVE SMOOTH"
);
}
);
width = 560;
}
);
},
{
color = 1;
glyphname = I.ss01;
layers = (
{
anchors = (
{
name = bottom;
position = "{127, 0}";
},
{
name = ogonek;
position = "{251, 10}";
},
{
name = top;
position = "{205, 636}";
},
{
name = topleft;
position = "{70, 636}";
}
);
background = {
paths = (
{
closed = 1;
nodes = (
"124 95 LINE",
"124 51 OFFCURVE",
"113 35 OFFCURVE",
"60 35 CURVE SMOOTH",
"230 35 LINE SMOOTH",
"202 35 OFFCURVE",
"195 46 OFFCURVE",
"195 89 CURVE"
);
},
{
closed = 1;
nodes = (
"341 35 LINE",
"-18 35 LINE"
);
},
{
closed = 1;
nodes = (
"235 451 OFFCURVE",
"247 460 OFFCURVE",
"290 465 CURVE",
"299 505 LINE",
"299 505 OFFCURVE",
"239 497 OFFCURVE",
"203 497 CURVE SMOOTH",
"170 497 OFFCURVE",
"110 500 OFFCURVE",
"106 500 CURVE",
"96 463 LINE SMOOTH",
"96 461 OFFCURVE",
"97 460 OFFCURVE",
"97 459 CURVE SMOOTH",
"97 459 OFFCURVE",
"118 460 OFFCURVE",
"129 460 CURVE SMOOTH",
"153 460 OFFCURVE",
"157 451 OFFCURVE",
"153 419 CURVE SMOOTH",
"113 97 LINE SMOOTH",
"108 54 OFFCURVE",
"92 39 OFFCURVE",
"43 30 CURVE",
"33 -9 LINE",
"33 -9 OFFCURVE",
"88 0 OFFCURVE",
"129 0 CURVE SMOOTH",
"166 0 OFFCURVE",
"235 -2 OFFCURVE",
"235 -2 CURVE",
"247 37 LINE",
"245 40 LINE",
"245 40 OFFCURVE",
"224 38 OFFCURVE",
"205 38 CURVE SMOOTH",
"185 38 OFFCURVE",
"176 46 OFFCURVE",
"176 71 CURVE SMOOTH",
"176 104 OFFCURVE",
"207 292 OFFCURVE",
"230 422 CURVE SMOOTH"
);
}
);
};
layerId = UUID0;
paths = (
{
closed = 1;
nodes = (
"239 460 OFFCURVE",
"248 462 OFFCURVE",
"291 462 CURVE",
"128 462 LINE",
"151 462 OFFCURVE",
"157 460 OFFCURVE",
"153 427 CURVE SMOOTH",
"111 95 LINE SMOOTH",
"106 51 OFFCURVE",
"93 35 OFFCURVE",
"42 35 CURVE",
"208 35 LINE",
"187 35 OFFCURVE",
"179 43 OFFCURVE",
"179 69 CURVE SMOOTH",
"179 100 OFFCURVE",
"210 299 OFFCURVE",
"234 430 CURVE SMOOTH"
);
},
{
closed = 1;
nodes = (
"19 462 LINE",
"368 462 LINE",
"372 497 LINE",
"24 497 LINE"
);
},
{
closed = 1;
nodes = (
"-37 0 LINE",
"311 0 LINE",
"315 35 LINE",
"-33 35 LINE"
);
}
);
width = 310;
},
{
anchors = (
{
name = bottom;
position = "{127, 0}";
},
{
name = ogonek;
position = "{252, 10}";
},
{
name = top;
position = "{206, 647}";
},
{
name = topleft;
position = "{70, 647}";
}
);
background = {
paths = (
{
closed = 1;
nodes = (
"74 132 LINE",
"74 97 OFFCURVE",
"69 75 OFFCURVE",
"27 75 CURVE SMOOTH",
"277 75 LINE SMOOTH",
"256 75 OFFCURVE",
"251 84 OFFCURVE",
"251 127 CURVE"
);
},
{
closed = 1;
nodes = (
"342 75 LINE",
"-23 75 LINE"
);
},
{
closed = 1;
nodes = (
"284 420 OFFCURVE",
"289 426 OFFCURVE",
"326 431 CURVE",
"341 507 LINE",
"341 507 OFFCURVE",
"227 504 OFFCURVE",
"193 504 CURVE SMOOTH",
"148 504 OFFCURVE",
"109 504 OFFCURVE",
"57 504 CURVE",
"43 441 LINE SMOOTH",
"45 437 OFFCURVE",
"47 433 OFFCURVE",
"50 429 CURVE SMOOTH",
"50 429 OFFCURVE",
"60 429 OFFCURVE",
"68 429 CURVE SMOOTH",
"90 429 OFFCURVE",
"96 422 OFFCURVE",
"92 390 CURVE SMOOTH",
"59 132 LINE SMOOTH",
"55 89 OFFCURVE",
"45 78 OFFCURVE",
"1 69 CURVE",
"-13 -3 LINE",
"-13 -3 OFFCURVE",
"75 0 OFFCURVE",
"128 0 CURVE SMOOTH",
"162 0 OFFCURVE",
"267 -3 OFFCURVE",
"267 -3 CURVE",
"283 67 LINE",
"278 76 LINE",
"278 76 OFFCURVE",
"270 74 OFFCURVE",
"254 74 CURVE SMOOTH",
"240 74 OFFCURVE",
"234 80 OFFCURVE",
"234 103 CURVE SMOOTH",
"234 134 OFFCURVE",
"265 330 OFFCURVE",
"277 391 CURVE SMOOTH"
);
}
);
};
layerId = UUID1;
paths = (
{
closed = 1;
nodes = (
"284 430 OFFCURVE",
"290 438 OFFCURVE",
"326 438 CURVE",
"70 438 LINE",
"92 438 OFFCURVE",
"96 432 OFFCURVE",
"93 400 CURVE SMOOTH",
"58 122 LINE SMOOTH",
"54 87 OFFCURVE",
"47 65 OFFCURVE",
"7 65 CURVE",
"253 65 LINE",
"238 65 OFFCURVE",
"232 71 OFFCURVE",
"232 94 CURVE SMOOTH",
"232 126 OFFCURVE",
"264 336 OFFCURVE",
"277 401 CURVE SMOOTH"
);
},
{
closed = 1;
nodes = (
"5 438 LINE",
"360 438 LINE",
"368 503 LINE",
"13 503 LINE"
);
},
{
closed = 1;
nodes = (
"-48 0 LINE",
"306 0 LINE",
"314 65 LINE",
"-40 65 LINE"
);
}
);
width = 312;
}
);
},
{
color = 1;
glyphname = L.ss01;
layers = (
{
anchors = (
{
name = bottom;
position = "{187, 0}";
},
{
name = center;
position = "{226, 318}";
},
{
name = top;
position = "{265, 636}";
},
{
name = topright;
position = "{460, 636}";
}
);
background = {
paths = (
{
closed = 1;
nodes = (
"233 0 OFFCURVE",
"367 -7 OFFCURVE",
"367 -7 CURVE",
"372 -2 LINE",
"391 79 OFFCURVE",
"414 153 OFFCURVE",
"414 153 CURVE",
"413 154 OFFCURVE",
"412 156 OFFCURVE",
"412 158 CURVE",
"369 153 LINE",
"342 56 OFFCURVE",
"323 41 OFFCURVE",
"235 41 CURVE SMOOTH",
"188 41 OFFCURVE",
"177 48 OFFCURVE",
"177 78 CURVE SMOOTH",
"177 105 OFFCURVE",
"209 311 OFFCURVE",
"225 396 CURVE SMOOTH",
"237 455 OFFCURVE",
"241 458 OFFCURVE",
"288 465 CURVE",
"296 505 LINE",
"296 505 OFFCURVE",
"238 497 OFFCURVE",
"204 497 CURVE SMOOTH",
"172 497 OFFCURVE",
"116 500 OFFCURVE",
"111 500 CURVE",
"101 463 LINE",
"102 461 OFFCURVE",
"103 460 OFFCURVE",
"103 459 CURVE SMOOTH",
"103 459 OFFCURVE",
"120 460 OFFCURVE",
"129 460 CURVE SMOOTH",
"151 460 OFFCURVE",
"157 453 OFFCURVE",
"153 419 CURVE SMOOTH",
"113 98 LINE SMOOTH",
"107 53 OFFCURVE",
"93 38 OFFCURVE",
"52 32 CURVE",
"41 -8 LINE",
"41 -8 OFFCURVE",
"93 0 OFFCURVE",
"155 0 CURVE SMOOTH"
);
}
);
};
layerId = UUID0;
paths = (
{
closed = 1;
nodes = (
"382 16 LINE",
"401 98 OFFCURVE",
"419 156 OFFCURVE",
"419 156 CURVE",
"417 162 LINE",
"372 157 LINE",
"344 59 OFFCURVE",
"324 35 OFFCURVE",
"237 35 CURVE SMOOTH",
"193 35 OFFCURVE",
"180 41 OFFCURVE",
"180 73 CURVE SMOOTH",
"180 96 OFFCURVE",
"211 305 OFFCURVE",
"229 399 CURVE SMOOTH",
"239 447 OFFCURVE",
"245 462 OFFCURVE",
"290 462 CURVE",
"128 462 LINE",
"151 462 OFFCURVE",
"156 454 OFFCURVE",
"152 420 CURVE SMOOTH",
"111 90 LINE SMOOTH",
"105 45 OFFCURVE",
"93 35 OFFCURVE",
"52 35 CURVE"
);
},
{
closed = 1;
nodes = (
"19 462 LINE",
"488 462 LINE",
"492 497 LINE",
"24 497 LINE"
);
},
{
closed = 1;
nodes = (
"-37 0 LINE",
"431 0 LINE",
"435 35 LINE",
"-33 35 LINE"
);
}
);
width = 430;
},
{
anchors = (
{
name = bottom;
position = "{206, 0}";
},
{
name = center;
position = "{246, 324}";
},
{
name = top;
position = "{285, 647}";
},
{
name = topright;
position = "{499, 647}";
}
);
background = {
paths = (
{
closed = 1;
nodes = (
"288 0 OFFCURVE",
"405 -5 OFFCURVE",
"405 -5 CURVE",
"420 9 LINE",
"441 122 OFFCURVE",
"465 227 OFFCURVE",
"465 227 CURVE",
"463 231 OFFCURVE",
"459 236 OFFCURVE",
"456 240 CURVE",
"339 229 LINE",
"322 123 OFFCURVE",
"305 99 OFFCURVE",
"255 99 CURVE SMOOTH",
"243 99 OFFCURVE",
"236 106 OFFCURVE",
"236 122 CURVE SMOOTH",
"236 155 OFFCURVE",
"264 323 OFFCURVE",
"276 389 CURVE SMOOTH",
"279 410 OFFCURVE",
"297 419 OFFCURVE",
"354 424 CURVE",
"374 507 LINE",
"374 507 OFFCURVE",
"232 504 OFFCURVE",
"192 504 CURVE SMOOTH",
"147 504 OFFCURVE",
"106 504 OFFCURVE",
"55 504 CURVE",
"41 441 LINE",
"43 437 OFFCURVE",
"45 433 OFFCURVE",
"47 429 CURVE SMOOTH",
"47 429 OFFCURVE",
"59 429 OFFCURVE",
"67 429 CURVE SMOOTH",
"90 429 OFFCURVE",
"95 422 OFFCURVE",
"91 390 CURVE SMOOTH",
"59 139 LINE SMOOTH",
"54 92 OFFCURVE",
"40 77 OFFCURVE",
"-1 70 CURVE",
"-17 -8 LINE",
"-17 -8 OFFCURVE",
"77 0 OFFCURVE",
"164 0 CURVE SMOOTH"
);
}
);
};
layerId = UUID1;
paths = (
{
closed = 1;
nodes = (
"420 9 LINE",
"440 122 OFFCURVE",
"465 227 OFFCURVE",
"465 227 CURVE",
"455 240 LINE",
"339 229 LINE",
"322 123 OFFCURVE",
"305 99 OFFCURVE",
"255 99 CURVE SMOOTH",
"242 99 OFFCURVE",
"235 107 OFFCURVE",
"235 123 CURVE SMOOTH",
"235 152 OFFCURVE",
"264 334 OFFCURVE",
"277 399 CURVE SMOOTH",
"281 422 OFFCURVE",
"289 439 OFFCURVE",
"345 439 CURVE",
"68 439 LINE",
"90 439 OFFCURVE",
"95 432 OFFCURVE",
"92 400 CURVE SMOOTH",
"59 134 LINE SMOOTH",
"53 87 OFFCURVE",
"41 65 OFFCURVE",
"-1 65 CURVE"
);
},
{
closed = 1;
nodes = (
"5 439 LINE",
"517 439 LINE",
"525 503 LINE",
"13 503 LINE"
);
},
{
closed = 1;
nodes = (
"-48 0 LINE",
"463 0 LINE",
"471 65 LINE",
"-40 65 LINE"
);
}
);
width = 469;
}
);
},
